<?xml version="1.0" encoding="utf-8"?>
<!-- Generator: Adobe Illustrator 20.0.0, SVG Export Plug-In . SVG Version: 6.00 Build 0)  -->
<svg version="1.1" id="Режим_изоляции"
	 xmlns="http://www.w3.org/2000/svg" xmlns:xlink="http://www.w3.org/1999/xlink" x="0px" y="0px" width="1977.7px" height="78.5px"
	 viewBox="0 0 1977.7 78.5" style="enable-background:new 0 0 1977.7 78.5;" xml:space="preserve">
<style type="text/css">
	.st0{fill:#ADB7BD;}
</style>
<title>left-menu-icon-sprite</title>
<g>
	<path class="st0" d="M22.6,71.7H0.5l0.7-1.4c1.5-3.1,0.8-6.2-0.1-9.5L1,60c-0.7-2.1-0.2-4.3,1.1-6c2.3-2.9,5.8-4.6,9.5-4.7
		c3.7,0.1,7.2,1.8,9.5,4.7c0.9,1.2,1.4,2.7,1.4,4.2l2,2.7l-2.1-1.7c-0.1,0.3-0.1,0.6-0.2,0.9l-0.2,0.7c-0.8,3.3-1.6,6.4-0.1,9.5
		L22.6,71.7z M6.8,69.7h12.7c-1-3.2-0.2-6.4,0.5-9.4l0.2-0.8c0.2-0.6,0.3-1.2,0.2-1.8l-2-1.6c-1.6-1.2-3.5-1.9-5.5-2
		c-2.6,0.1-5.1,1.3-6.7,3.3c-0.7,0.8-0.9,2-0.6,3v0.1l0.2,0.8c0.8,2.6,1.2,5.4,1,8.1L6.8,69.7z"/>
	<path class="st0" d="M1.8,70.4h19.6c1,0,1.8,0.8,1.8,1.8v0.4c0,1-0.8,1.8-1.8,1.8H1.8c-1,0-1.8-0.8-1.8-1.8v-0.4
		C0,71.2,0.8,70.4,1.8,70.4z"/>
	<path class="st0" d="M62.2,50.9l-1.4-0.3c-0.7-0.1-1.3-0.2-2-0.2H58l-0.2-0.8c-2.2-12.2-13.9-20.3-26.1-18.1
		c-9.2,1.7-16.4,8.9-18.1,18.1l-0.2,0.9l-0.9-0.1c-0.7-0.1-1.3-0.1-2,0l-1.3,0.1l0.2-1.3c2.3-14.5,15.9-24.4,30.4-22.1
		C51.3,29,60.3,38,62,49.5L62.2,50.9z M59.6,48.4h0.2c-2.9-13.3-15.9-21.7-29.2-18.9c-9.5,2-16.8,9.4-18.9,18.9h0.1
		c2.9-13.2,15.9-21.6,29.1-18.7C50.3,31.8,57.6,39.1,59.6,48.4z"/>
	<path class="st0" d="M69.9,71.7H47.8l0.7-1.4c1.5-3.1,0.8-6.2-0.1-9.5L48.2,60c-0.7-2.1-0.2-4.3,1.1-6c4-5.2,11.6-6.2,16.8-2.2
		c0.8,0.6,1.5,1.4,2.2,2.2c0.9,1.2,1.4,2.7,1.4,4.2l2,2.7l-2.1-1.6c-0.1,0.3-0.1,0.6-0.2,0.9l-0.2,0.7c-0.8,3.3-1.6,6.4-0.1,9.5
		L69.9,71.7z M54.1,69.7h12.7c-1-3.2-0.2-6.4,0.5-9.4l0.2-0.8c0.2-0.6,0.3-1.2,0.2-1.8l-2-1.6c-1.6-1.2-3.5-1.9-5.5-2
		c-2.6,0.1-5.1,1.3-6.7,3.3c-0.7,0.8-0.9,2-0.6,3v0.1l0.2,0.8c0.8,2.6,1.2,5.4,1,8.1L54.1,69.7z"/>
	<path class="st0" d="M49,70.4h19.6c1,0,1.8,0.8,1.8,1.8v0.4c0,1-0.8,1.8-1.8,1.8H49c-1,0-1.8-0.8-1.8-1.8v-0.4
		C47.3,71.2,48,70.4,49,70.4z"/>
	<path class="st0" d="M32.8,28.2V11l1.3,0.4c1.1,0.3,2.3,0.3,3.4,0l1.3-0.4v17.2l-1.1-0.1c-1.3-0.1-2.5-0.1-3.8,0L32.8,28.2z
		 M35.8,26.1h1V13.6c-0.6,0.1-1.3,0.1-1.9,0v12.5L35.8,26.1z"/>
	<path class="st0" d="M35.7,12.7c-4.1,0-7.4-3.3-7.4-7.4v-1h14.9v1C43.2,9.4,39.8,12.7,35.7,12.7z M30.4,6.2c0.5,3,3.4,4.9,6.3,4.4
		c2.2-0.4,4-2.1,4.4-4.4H30.4z"/>
</g>
<g>
	<path class="st0" d="M286.5,75.8l-6.8-2.1l1.1-41.4l6.8,2.2L286.5,75.8z M281.8,72.2l2.8,0.9l1-37.2l-2.8-0.9L281.8,72.2z"/>
	<path class="st0" d="M266.5,73.9l1-41.3l14.3-0.4l-1,41.3L266.5,73.9z M269.5,34.6l-1,37.3l10.3-0.3l1-37.3L269.5,34.6z"/>
	<path class="st0" d="M231.9,33.6H226l0.2-21.7c0-1,1.2-1.7,3-1.7s2.9,0.7,2.9,1.7L231.9,33.6z M228,31.6h1.9l0.2-19.3
		c-0.6-0.2-1.3-0.2-1.9,0L228,31.6z M228.3,11.9L228.3,11.9z"/>
	<path class="st0" d="M255.9,33.6H250l0.2-21.7c0-1,1.2-1.7,3-1.7s3,0.7,3,1.7L255.9,33.6z M252,31.6h2l0.2-19.3
		c-0.6-0.2-1.3-0.2-1.9,0L252,31.6z M252.3,11.9L252.3,11.9z"/>
	<path class="st0" d="M300,16.5h-20l0-4.6c0-1.1-1.5-1.6-2.8-1.6s-2.8,0.4-2.8,1.6l0,4.7H256l0-4.6c0-1.1-1.5-1.6-2.8-1.6
		s-2.8,0.4-2.8,1.6l-0.1,4.7H232l0.1-4.6c0-1.1-1.5-1.6-2.8-1.6s-2.8,0.4-2.8,1.6l-0.1,4.4L207.2,5.8h73.2L300,16.5z M282,14.5h10.1
		l-12.2-6.7h-64.8l9.3,5.1v-1.1c0-2.1,1.9-3.5,4.8-3.5s4.8,1.4,4.8,3.6v2.6h14.4v-2.7c0-2.1,1.9-3.5,4.8-3.5s4.8,1.4,4.8,3.6v2.6
		h14.4v-2.7c0-2.1,1.9-3.5,4.8-3.5s4.8,1.4,4.8,3.6V14.5z"/>
	<path class="st0" d="M280,33.6h-6l0.2-21.7c0-1,1.2-1.7,3-1.7s3,0.7,3,1.7L280,33.6z M276.1,31.6h1.9l0.2-19.3
		c-0.3-0.1-0.6-0.1-1-0.1c-0.3,0-0.7,0-1,0.1L276.1,31.6z M276.3,11.9L276.3,11.9z"/>
	<path class="st0" d="M281,7h-71l0.2-4.1h71.3L281,7z M212.2,5h67.1V4.8h-67.1L212.2,5z"/>
	<polygon class="st0" points="297.1,16.3 279.3,6.6 279.9,2.3 297.1,12.3 	"/>
	<polygon class="st0" points="225.1,75.7 216.1,72.9 231.9,72.5 240.8,75.3 	"/>
	<path class="st0" d="M218.5,73.9l1.1-41.3l14.3-0.4l-1.1,41.3L218.5,73.9z M221.5,34.6l-1,37.3l10.3-0.3l1-37.3L221.5,34.6z"/>
	<path class="st0" d="M238.5,75.8l-6.8-2.2l1.1-41.4l6.8,2.1L238.5,75.8z M233.7,72.2l2.8,0.9l1-37.2l-2.8-0.9L233.7,72.2z"/>
	<polygon class="st0" points="249.1,75.7 240.1,72.9 255.9,72.5 264.9,75.3 	"/>
	<path class="st0" d="M262.5,75.8l-6.8-2.1l1.1-41.4l6.8,2.1L262.5,75.8z M257.7,72.2l2.8,0.9l1-37.2l-2.8-0.9L257.7,72.2z"/>
	<path class="st0" d="M242.5,73.9l1.1-41.3l14.3-0.4l-1,41.3L242.5,73.9z M245.5,34.6l-1,37.3l10.3-0.3l1-37.3L245.5,34.6z"/>
	<polygon class="st0" points="273.1,75.7 264.1,72.9 279.9,72.5 288.9,75.3 	"/>
</g>
<g>
	<path class="st0" d="M1025.4,66.7V54.6l10.6-6.9v11.9L1025.4,66.7z M1027.4,55.7v7.2l6.6-4.4v-7.2L1027.4,55.7z"/>
	<path class="st0" d="M1014,61.5c-0.7,0-1.4-0.1-2.1-0.3c-5.3-1.3-10.2-7.3-10.9-13.3c-0.4-3.2,0.5-6.1,2.5-7.8
		c1.8-1.5,4.3-2,6.6-1.4c5.3,1.3,10.2,7.3,10.9,13.3c0.4,3.2-0.5,6.1-2.5,7.8C1017.2,61,1015.6,61.6,1014,61.5z M1007.9,42.4
		c-0.8,0-1.6,0.3-2.2,0.9c-0.9,1.2-1.3,2.7-1,4.2c0.5,4.4,4.2,9.1,8,10c1.2,0.4,2.5,0.1,3.4-0.8l0.8,0.7l-0.8-0.7
		c0.9-1.2,1.3-2.7,1-4.2c-0.5-4.4-4.2-9.1-8-10C1008.7,42.4,1008.3,42.4,1007.9,42.4L1007.9,42.4z"/>
	<path class="st0" d="M1014,58.3c-0.5,0-0.9-0.1-1.4-0.2c-4.1-1-8-5.9-8.5-10.6c-0.3-1.7,0.1-3.4,1.1-4.7c1.1-1.1,2.6-1.5,4.1-1l0,0
		c4.1,1,8,5.9,8.5,10.6c0.3,1.7-0.1,3.4-1.1,4.7C1016,57.9,1015,58.4,1014,58.3z M1007.9,43.7c-0.5,0-0.9,0.1-1.2,0.5
		c-0.6,0.9-0.8,2.1-0.6,3.2c0.4,3.9,3.8,8.1,7,8.9c0.7,0.3,1.5,0.2,2.1-0.3c0.6-0.9,0.8-2.1,0.6-3.2c-0.4-3.9-3.8-8.1-7-8.9l0,0
		C1008.5,43.7,1008.2,43.7,1007.9,43.7L1007.9,43.7z"/>
	<path class="st0" d="M1018.4,60l1.2-3c0.6-1.5,0.8-3.2,0.6-4.8c-0.7-5.9-5.2-11.5-10.4-12.8c-0.6-0.1-1.2-0.2-1.8-0.2l-3.2-0.1
		l38.7-25.3c0.2-0.1,0.4-0.2,0.6-0.3l0.2-0.1l0.4-0.2h0.1c0.2-0.1,0.3-0.1,0.5-0.2h0.1h0.2l0.5-0.1h0.1h0.2h0.3h0.2l0.2,1l-0.1-1
		h0.9h0.3l0.4,0.1l0.4,0.1l0.4,0.1h0.1l0.4,0.1l0.4,0.1l0.4,0.1l0.4,0.2l0.2,0.1l-0.3,1l0.4-0.9h0.1l0.5,0.2l0.4,0.2l0.5,0.3
		l0.4,0.3l0,0l0,0l0.5,0.4l0.2,0.2l0.3,0.2l0.6,0.5l0.7,0.7l0.5,0.6l0.2,0.2l0.1,0.1c0.2,0.2,0.4,0.5,0.6,0.7h0.5v0.7
		c0.2,0.3,0.4,0.6,0.6,1l0.1,0.1l0.1,0.2l0.4,0.7c0.1,0.2,0.2,0.4,0.3,0.6l0.1,0.1c0.1,0.2,0.2,0.4,0.3,0.7l0.2,0.5
		c0,0,0,0.1,0.1,0.1c0.1,0.1,0.1,0.3,0.2,0.5l0.4,1.6c0,0.1,0.1,0.3,0.1,0.5s0,0.3,0.1,0.4v0.1c0,0.1,0,0.3,0,0.4s0,0.3,0,0.5
		s0,0.3,0,0.4v0.1c0,0.1,0,0.3,0,0.5s0,0.3,0,0.5s0,0.2,0,0.3v0.2c0,0.1,0,0.3-0.1,0.5s-0.1,0.3-0.1,0.5l-0.1,0.2
		c0,0.1,0,0.2-0.1,0.3s-0.1,0.3-0.2,0.5l-0.1,0.2l-1-0.3l0.9,0.4l-0.1,0.2c-0.1,0.2-0.2,0.4-0.3,0.6l-0.1,0.1l-0.1,0.1l-0.1,0.2
		c-0.1,0.1-0.1,0.2-0.2,0.3l-0.1,0.2l-0.1,0.2c-0.2,0.3-0.4,0.5-0.7,0.7l-0.1,0.1c-0.3,0.2-0.5,0.4-0.8,0.6l-7.7,5v-4l3.3-2.1v-4.9
		l-3.3,2.1v-4.3l-9.2,6.2v3.7l-3.3,2.1v4.9l3.3-2.1v4.3L1018.4,60z M1010.8,37.7c5.7,1.7,10.7,7.9,11.5,14.4c0.1,1,0.1,2.1,0,3.1
		l12.6-8.3v-9.4l3.3-2.1v-3.7l13.2-8.8v4.3l3.3-2.1v8.7l1.3-0.8c0.2-0.1,0.4-0.3,0.5-0.4l0.8,0.7l-0.7-0.7c0.2-0.2,0.3-0.3,0.4-0.5
		l0.2-0.2c0.1-0.1,0.1-0.2,0.2-0.3l0.2-0.4l0.2-0.4l0.1-0.4c0.1-0.2,0.1-0.3,0.1-0.4l0.1-0.3l1,0.2l-1-0.3c0-0.1,0.1-0.3,0.1-0.4
		s0-0.2,0.1-0.4h1l-1-0.1v-0.3c0-0.1,0-0.2,0-0.4s0-0.2,0-0.4v0c0-0.1,0-0.2,0-0.3s0-0.3,0-0.4s0-0.2,0-0.3v-0.1c0-0.1,0-0.2,0-0.4
		c0-0.1,0-0.3-0.1-0.4l1-0.3l-1,0.2l-0.3-1.3c0-0.1-0.1-0.3-0.2-0.5l0.9-0.4l-0.9,0.3l-0.2-0.4c-0.1-0.2-0.1-0.3-0.2-0.5l-0.1-0.1
		l-0.3-0.6l-0.4-0.8l-0.1-0.1c-0.2-0.4-0.4-0.7-0.7-1.1l-0.1-0.1c-0.2-0.3-0.5-0.6-0.7-0.9l-1.3-1.3l-0.6-0.5l-0.3-0.2l-0.2-0.1
		l-0.4-0.3h-0.1l-0.3-0.2l-0.4-0.2l-0.4-0.2l-0.3-0.2l0.3-0.9l-0.4,0.9l-0.2-0.1l-0.3-0.1l-0.2-0.1l0,0h-0.1l-0.3-0.1L1049,15
		l-0.4-0.1l-0.3-0.1h-0.3h-0.3l-0.1-1v1h-0.4l-0.7,0.1l-0.4,0.1l-0.2,0.1l-0.4,0.1h-0.1l-0.1,0.1h-0.1l-0.6-0.9l0.4,0.9
		c-0.1,0.1-0.3,0.2-0.4,0.2L1010.8,37.7z M1059,21.8v0.1V21.8z"/>
	<path class="st0" d="M1039.5,66.7v-24l-3.3,2.1v-6.5l3.3-2.1v-3.7l10.6-7v4.2l3.3-2.1V34l-3.3,2.1v23.5L1039.5,66.7z M1041.5,39.1
		v23.8l6.6-4.4V35l1.5-0.9c-0.4-0.3-0.6-0.8-0.7-1.3l-0.8,0.5v-4.1l-6.6,4.4v3.8l-0.9,0.5c0.4,0.4,0.6,0.8,0.7,1.3L1041.5,39.1z
		 M1039.2,39.3c-0.1,0.1-0.1,0.2-0.1,0.2c0,0.1,0,0.2,0.1,0.2c0.1-0.1,0.1-0.2,0.1-0.2C1039.3,39.4,1039.3,39.3,1039.2,39.3z
		 M1050.9,32c-0.1,0.1-0.1,0.2-0.1,0.2c0.1,0.1,0.2,0.1,0.2,0c0.1-0.1,0.1-0.2,0-0.2C1051,32,1051,32,1050.9,32z"/>
</g>
<path class="st0" d="M437,72.9l0-8.5c-0.1-16.2-0.2-32.9,0.2-48.8v-1.2l1.2,0.3c1.5,0.3,2.9,0.8,4.4,1.3c-0.1-2.9-0.1-6.3,0.1-9.1
	l0.1-0.3c0.2-0.4,0.5-0.7,0.9-0.9l0.4-0.2l0.6,0.3c1.2,0.5,2.6,1.2,3,2.6c0.2,0.9,0.2,1.9,0.2,2.8c0,0.4,0,0.8,0,1.2
	c0,1.5,0,3.1,0,4.7c0,2.2,0,4.5,0.1,6.6c0.8,13.2,4.8,22.3,12,27.1l-1.7-2l-0.7-0.8c-1.6-1.7-2.9-3.6-3.7-5.8
	c-0.4-0.7-0.8-1.5-1.2-2.2c-2-3.7-4.1-7.5-4.1-12.6c0-2.8,1-4.5,2.9-5.1c1.8-0.3,3.6-0.4,5.4-0.2c0.8,0,1.6,0.1,2.3,0.1h7.4
	c0.8,0,1.8,0,2.9-0.1c5.9-0.2,10.2-0.2,11.4,2c0.3,0.6,0.5,1.3,0.5,2c0.5,5.1-1.5,9.1-3.4,12.7c-0.8,1.5-1.5,3-2.1,4.5l-0.1,0.2
	c-2.3,3.3-4.8,6.5-7.6,9.4v0.5c0.5-0.1,1-0.2,1.4-0.2c2.1-0.4,4.4-0.8,6.2,0.8l0.6,0.5l-0.3,0.7c-0.7,1.4-2.2,1.9-3.4,2.3l-0.7,0.2
	c-1.3,0.5-2.6,0.8-3.9,0.9v9.2l-0.4,0.3c-0.4,0.3-0.8,0.6-1.2,1c-0.9,1-2.1,1.8-3.4,2.2l-1.2,0.3l-0.1-1.2c-0.2-2.6-0.1-5.5-0.1-8.2
	c0-1.5,0-2.9,0-4.3c-7.9-3.2-13.2-9.3-16.3-18.5c0,4.1,0,8.5,0,12.7c0,2.2,0,4.4,0,6.6c0,0.8,0,1.7,0.1,2.6c0.1,2.4,0.3,4.8-0.4,6.5
	c-0.6,1.2-1.6,2.1-2.7,2.7l-0.6,0.4c-0.3,0.2-0.5,0.4-0.8,0.6c-0.9,0.8-2,1.4-3.2,1.6L437,72.9z M439,17
	c-0.3,15.5-0.2,31.7-0.1,47.4v6.1c0.4-0.2,0.7-0.5,1.1-0.8c0.3-0.2,0.6-0.4,0.8-0.6l0,0l0.6-0.4c0.8-0.4,1.5-1,1.9-1.7
	c0.5-1.3,0.4-3.6,0.2-5.6c0-0.9-0.1-1.9-0.1-2.7c0-2.2,0-4.4,0-6.6c0-7,0-14.3,0.1-20.5l0.2-9.9l1.7,9.8c2.3,13,8.1,21.1,17.5,24.7
	l0.6,0.2V57c0,1.7,0,3.4,0,5.1c0,2.2,0,4.5,0,6.6c0.5-0.3,0.9-0.7,1.3-1.1c0.3-0.3,0.6-0.6,1-0.9V56.5h1c1.4,0,2.9-0.3,4.2-0.8
	l0.8-0.2c0.5-0.1,0.9-0.3,1.4-0.5c-1.2-0.2-2.4-0.1-3.6,0.2c-0.9,0.2-1.8,0.3-2.7,0.4h-1v-3.3l0.3-0.3c2.8-2.9,5.3-6,7.6-9.3
	c0.6-1.6,1.3-3.2,2.2-4.7c1.8-3.5,3.7-7,3.2-11.5c0-0.4-0.1-0.9-0.2-1.3c-0.7-1.3-6.5-1.1-9.6-1c-1.1,0-2.1,0.1-3,0.1h-7.4
	c-0.7,0-1.6,0-2.4-0.1c-1.6-0.2-3.2-0.1-4.7,0.1c-0.4,0.1-1.5,0.4-1.5,3.2c0,4.7,2,8.2,3.9,11.7c0.4,0.8,0.9,1.6,1.2,2.3l0,0.1
	c0.8,1.9,1.9,3.7,3.4,5.2l0.7,0.8c1,1.1,2.1,2.5,3.1,3.7l0.1,0.2c0.7,0.6,1,1.6,0.7,2.5l-0.4,1l-1-0.4c-10-4.3-15.5-14.6-16.5-30.6
	c-0.1-2.2-0.1-4.5-0.1-6.7c0-1.5,0-3.1,0-4.6c0-0.4,0-0.8,0-1.3c0.1-0.7,0-1.4-0.1-2.2c-0.1-0.4-0.6-0.7-1.1-0.9
	c-0.1,3.1-0.1,6.7,0,9.6l0.1,1.8l-1.6-0.8C441.9,17.9,440.5,17.4,439,17z"/>
<g>
	<path class="st0" d="M674.6,36.9c-2.2,0-4.1-1.8-4.1-4.1s1.8-4.1,4.1-4.1c2.2,0,4.1,1.8,4.1,4.1l0,0
		C678.7,35.1,676.9,36.9,674.6,36.9z M674.6,30.8c-1.1,0-2.1,0.9-2.1,2.1s0.9,2.1,2.1,2.1c1.1,0,2.1-0.9,2.1-2.1l0,0
		C676.7,31.7,675.8,30.8,674.6,30.8C674.6,30.8,674.6,30.8,674.6,30.8L674.6,30.8z"/>
	<path class="st0" d="M634.2,41.3c-2.1,0-4.2-0.7-5.9-2.1c-3.9-3.3-4.5-9.1-1.2-13c0,0,0,0,0,0l0.6-0.8l3.8,3.1l-0.6,0.8
		c-1.5,1.8-1.3,4.5,0.6,6.1l0,0c1.8,1.5,4.5,1.3,6.1-0.6l0.6-0.8l3.8,3.1l-0.6,0.8c-1.6,1.9-3.8,3.1-6.2,3.3
		C634.8,41.3,634.5,41.3,634.2,41.3z M628.1,28.3c-1.9,3.1-1.2,7,1.5,9.3c2.8,2.3,6.8,2.2,9.5-0.2l-0.7-0.6c-2.3,2-5.8,2.1-8.2,0.1
		l0,0c-2.4-2-3-5.4-1.4-8.1L628.1,28.3z"/>
	<path class="st0" d="M647.5,43.3l-26.6-22.1l0.6-0.8c4.5-5.4,11.7-7.5,18.4-5.5l1.7-2c1.7-2,4.5-2.9,7-2.1l2.2-2.7l22.8,18.4
		l-1.5,0.7c-1.1,0.5-2,1.3-2.7,2.4l-0.6,1L653.2,18c-0.1,1.3-0.7,2.5-1.5,3.5l-1.7,2c3.2,6.2,2.4,13.7-2,19.1L647.5,43.3z
		 M623.7,20.9l23.5,19.5c3.5-4.9,3.8-11.4,0.8-16.6l-0.3-0.6l2.5-3.1c1-1.2,1.3-2.7,0.9-4.1l-0.8-3l18,14.6c0.4-0.5,1-1,1.5-1.4
		L651,10.9l-1.9,2.3l-0.7-0.3c-1.9-0.8-4.1-0.3-5.4,1.3l-2.5,3.1l-0.7-0.2C634.2,15,627.8,16.6,623.7,20.9z"/>
	<path class="st0" d="M668.9,65.4h-16.6v-5.5h6.7l11.2-22.6l1,0.6c1,0.7,2.2,1,3.4,1h1.6l-10.3,20.9h3.1L668.9,65.4z M654.3,63.4
		h12.6v-1.5h-4.3l10.4-21c-0.7-0.1-1.4-0.4-2-0.7l-10.8,21.7h-6L654.3,63.4z"/>
	<path class="st0" d="M672.3,70h-32.5v-5.5h32.5V70z M641.7,68h28.5v-1.5h-28.5V68z"/>
	<path class="st0" d="M674.6,39.9c-3.9,0-7.1-3.2-7.1-7.1s3.2-7.1,7.1-7.1s7.1,3.2,7.1,7.1C681.8,36.7,678.6,39.9,674.6,39.9z
		 M674.6,27.7c-2.8,0-5.1,2.3-5.1,5.1s2.3,5.1,5.1,5.1c2.8,0,5.1-2.3,5.1-5.1C679.8,30,677.5,27.7,674.6,27.7L674.6,27.7z
		 M674.6,36.9c-2.2,0-4.1-1.8-4.1-4.1s1.8-4.1,4.1-4.1c2.2,0,4.1,1.8,4.1,4.1l0,0C678.7,35.1,676.9,36.9,674.6,36.9L674.6,36.9z
		 M674.6,30.8c-1.1,0-2.1,0.9-2.1,2.1s0.9,2.1,2.1,2.1c1.1,0,2.1-0.9,2.1-2.1l0,0C676.7,31.7,675.8,30.8,674.6,30.8z"/>
</g>
<path class="st0" d="M854.2,77.1h-25.7l-0.2-0.8c-0.2-1.1-0.2-2.2,0-3.2l0.2-0.6l0.6-0.1c0.9-0.1,1.7-0.2,2.6-0.1c0.5,0,0.9,0,1.3,0
	c0.2-0.2,0.5-0.3,0.8-0.4c0.5-0.1,0.9-0.1,1.4,0l0,0c0-8.5,1.9-15.3,3.8-21.5l-0.1-0.4c-2-6.9-4-14-3.6-23H835
	c-4.4,0-9.5,0-12.5-0.1h-1V3.8h1c3.5-0.2,7.2-0.1,10.8-0.1c1.8,0,3.6,0,5.4,0c-0.1-0.4-0.1-0.7,0-1.1V2.4c0.2-0.4,0.5-0.7,0.9-0.9
	l0.2-0.1h0.2c0.4,0,0.8,0,1.1,0c0.7-0.1,1.5,0,2.2,0.1l0.4,0.1l0.2,0.4c0.2,0.5,0.3,1,0.2,1.5c1.7,0,3.5,0,5.2,0
	c3.6,0,7.3,0,10.8,0.1h1v1c0,2.7,0,5.4,0,8.2c0,4.4,0,8.9-0.1,13.1V27l-1.1,0c-2.2,0-4.5,0-6.8,0c-2,0-4,0-6,0
	c0.3,7.7-1.4,13.8-3,19.7l-0.3,1.2c-0.1,0.3-0.2,0.7-0.3,1c-0.2,0.4-0.3,0.9-0.4,1.3c0.1,0.9,0.4,1.8,0.7,2.7
	c0.2,0.6,0.4,1.2,0.6,1.8c1.7,5.5,2.6,11.3,2.8,17.1h0.2c0.4-0.1,0.8-0.1,1.2,0c0.3,0.1,0.6,0.2,0.9,0.4h0.1c0.4,0,0.8,0,1.2,0
	c0.9-0.1,1.8,0,2.7,0.1l0.6,0.1l0.2,0.6c0.2,1.1,0.2,2.2,0,3.2L854.2,77.1z M830.2,75.1h22.4c0-0.3,0-0.6,0-0.9c-0.5,0-1,0-1.5,0
	s-1.1,0-1.5,0h-0.2c-0.2-0.1-0.4-0.2-0.6-0.3c-0.1-0.1-0.2-0.1-0.2-0.1c-0.2,0-0.5,0-0.7,0c-0.6,0.1-1.2,0-1.8-0.2l-0.5-0.3v-0.6
	c-0.1-5.9-1-11.8-2.7-17.4c-0.1-0.5-0.3-1.1-0.5-1.6c-0.5-1.1-0.8-2.2-0.9-3.4c0.1-0.7,0.2-1.4,0.5-2c0.1-0.3,0.2-0.6,0.3-0.9
	l0.3-1.2c1.6-5.8,3.1-11.3,3-18.2h-0.5c-1.3,0.1-2.5,0.2-3.2-0.6c-0.1-0.1-0.2-0.3-0.2-0.4c-0.4,1.3-2,1.1-3.2,1l-0.8-0.1
	c-0.3,8.3,1.6,15,3.5,21.6l0.3,0.9l-0.1,0.3c-2,6.3-3.9,13.2-3.8,22.1v0.9l-0.9,0.1c-0.4,0-0.9,0-1.3,0c-0.3,0-0.5,0-0.8,0l0,0.1
	c-0.3,0.3-0.7,0.4-1.1,0.4c-0.5,0-1,0-1.5,0s-1,0-1.5,0C830.2,74.6,830.2,74.8,830.2,75.1L830.2,75.1z M839.6,25
	c0.6-0.1,1.2,0.2,1.5,0.6c0.1,0.1,0.2,0.2,0.2,0.4l0.2-0.6l0.7-0.1c3.5-0.3,7.3-0.3,11-0.2c1.9,0,3.9,0,5.8,0
	c0.1-3.9,0.1-8.1,0.1-12.1c0-2.4,0-4.9,0-7.2c-3.2-0.1-6.5-0.1-9.7-0.1c-2.2,0-4.5,0-6.7,0h-1.2l0.2-1.2c0.1-0.3,0.1-0.6,0.2-0.8
	l0.1-0.2h-1.5v0.1c0.3,0.5,0.4,1,0.2,1.5l-0.2,0.7h-0.7c-2.2,0-4.4,0-6.7,0c-3.2,0-6.6,0-9.7,0.1V25c3,0.1,7.5,0.1,11.4,0.1h3.5h0.4
	C839.1,25,839.4,25,839.6,25z"/>
<g>
	<path class="st0" d="M1212.2,72.9c-2.2,0-4-1.7-4.2-3.9l-0.1-1.1h8.4l-0.1,1.1C1216.2,71.1,1214.4,72.9,1212.2,72.9z M1210.4,69.9
		c0.6,1,2,1.3,3,0.6c0.3-0.2,0.5-0.4,0.6-0.6H1210.4z"/>
	<path class="st0" d="M1215.7,58.6h-7c-4.7,0-8.6-3.9-8.6-8.6v-3.9h24.2V50C1224.2,54.7,1220.4,58.5,1215.7,58.6z M1202.1,48.1V50
		c0,3.6,3,6.6,6.6,6.6h7c3.6,0,6.6-3,6.6-6.6v-1.9H1202.1z"/>
	<path class="st0" d="M1221.2,47h-9V14.6h-0.1V47h-9V14.3c0-4.8,3.9-8.6,8.7-8.6h0.7c4.8,0,8.6,3.9,8.7,8.6L1221.2,47z M1214.2,45h5
		V14.3c0-3.7-3-6.6-6.7-6.7h-0.7c-3.7,0-6.6,3-6.7,6.7V45h5V14.3c0-0.9,0.8-1.7,1.7-1.7h0.7c0.9,0,1.7,0.8,1.7,1.7L1214.2,45z"/>
	<path class="st0" d="M1206.4,62.2c-0.7,0-1.3-0.6-1.3-1.3v-0.2c0-0.7,0.6-1.3,1.3-1.4l11.6-0.7c0.4,0,0.7,0.1,1,0.4
		c0.3,0.3,0.4,0.6,0.4,1v0.2c0,0.7-0.6,1.3-1.3,1.4L1206.4,62.2L1206.4,62.2z M1206.5,61.2L1206.5,61.2z M1206.3,60.2L1206.3,60.2z
		 M1218,59.5L1218,59.5z"/>
	<path class="st0" d="M1206.4,64.6c-0.7,0-1.3-0.6-1.3-1.3V63c0-0.7,0.6-1.3,1.3-1.4l11.6-0.7c0.7,0,1.4,0.5,1.4,1.3
		c0,0,0,0.1,0,0.1v0.2c0,0.7-0.6,1.3-1.3,1.4L1206.4,64.6L1206.4,64.6z M1206.5,63.6L1206.5,63.6z M1206.3,62.6L1206.3,62.6z
		 M1218,61.9L1218,61.9z"/>
	<polygon class="st0" points="1205.8,65.5 1205.8,63.2 1218.6,62.5 1218.6,64.7 	"/>
	<polygon class="st0" points="1205.8,63 1205.8,60.8 1218.6,60 1218.6,62.3 	"/>
	<path class="st0" d="M1205.8,60.6v-3.9l1.2,0.3c0.6,0.1,1.1,0.2,1.7,0.2h7c0.6,0,1.1-0.1,1.7-0.2l1.2-0.3v3.2L1205.8,60.6z"/>
	<path class="st0" d="M1215.6,69.2h-6.7c-1.4,0-2.7-1-3-2.4l-0.3-1.2l13-0.8v1.3C1218.6,67.9,1217.2,69.2,1215.6,69.2z M1213.4,67.2
		h2.2c0.2,0,0.4-0.1,0.6-0.2L1213.4,67.2z"/>
	<path class="st0" d="M1206.4,67c-0.7,0-1.3-0.6-1.4-1.3v-0.2c0-0.7,0.6-1.3,1.3-1.4l11.6-0.7c0.4,0,0.7,0.1,1,0.4
		c0.3,0.3,0.4,0.6,0.4,1V65c0,0.7-0.6,1.3-1.3,1.4L1206.4,67L1206.4,67z M1206.5,66L1206.5,66z M1206.3,65L1206.3,65z"/>
</g>
<g>
	<path class="st0" d="M1402.6,5.5h-31l7.1-5.5h16.9L1402.6,5.5z M1377.5,3.5h19.3l-1.9-1.5h-15.5L1377.5,3.5z"/>
	<path class="st0" d="M1400.7,58.4h-27.2l-7.5-35.1h42.3L1400.7,58.4z M1375.1,56.4h24l6.7-31.1h-37.3L1375.1,56.4z M1398.5,56.2
		h-22.8l-6.6-30.7h36L1398.5,56.2z M1377.3,54.2h19.6l5.7-26.7h-31.1L1377.3,54.2z"/>
	<path class="st0" d="M1397.3,54.7h-20.4L1371,27h32.3L1397.3,54.7z M1378.5,52.7h17.2l5.1-23.7h-27.3L1378.5,52.7z"/>
	<path class="st0" d="M1411.5,23.9h-48.8l1.6-1.7c3.4-3.7,6.6-7.7,7.7-16.4l0.1-0.9h30l0.1,0.9c1.1,8.8,4.3,12.8,7.7,16.4
		L1411.5,23.9z M1367.3,21.9h39.7c-2.9-3.3-5.5-7.6-6.6-15h-26.5C1372.8,14.3,1370.1,18.5,1367.3,21.9z"/>
	<path class="st0" d="M1392.9,78.5h-11.5V57.8h11.5V78.5z M1383.3,76.5h7.5V59.8h-7.5V76.5z"/>
</g>
<g>
	<path class="st0" d="M1574.2,21.7h-12.4c-1.7,0-3-1.3-3-3s1.3-3,3-3h12.4c1.7,0,3,1.3,3,3S1575.8,21.7,1574.2,21.7z M1561.7,17.7
		c-0.6,0-1,0.4-1,1s0.4,1,1,1h12.4c0.6,0,1-0.4,1-1s-0.4-1-1-1H1561.7z"/>
	<path class="st0" d="M1574.4,16.4h-13l-0.2-0.1c-0.7-0.4-4.1-2.5-5-4s-1-4.9-1.1-5.6v-1h25.8v1c0,0.7-0.2,4.2-1.1,5.6s-4.3,3.6-5,4
		L1574.4,16.4z M1562,14.4h11.9c1.5-0.9,3.7-2.4,4.1-3.1c0.4-1.2,0.7-2.4,0.7-3.6h-21.5c0.1,1.2,0.3,2.5,0.7,3.6
		C1558.3,12,1560.5,13.5,1562,14.4z"/>
	<path class="st0" d="M1575.2,68.2h-14.7c-0.4-0.1-9.1-2.6-10.5-11.6s10.3-34,10.8-35.1l0.3-0.6h13.7l0.3,0.6
		c0.5,1.1,12.2,26,10.8,35.1s-10.1,11.5-10.5,11.6H1575.2z M1560.9,66.2h14c1-0.3,7.8-2.6,8.9-10c1.2-7.8-8.6-29.5-10.3-33.3h-11.2
		c-1.8,3.8-11.6,25.5-10.3,33.3C1553.2,63.6,1559.9,65.9,1560.9,66.2L1560.9,66.2z"/>
	<path class="st0" d="M1576.1,72.9h-16.3v-5.1h16.3V72.9z M1561.8,70.9h12.3v-1.1h-12.3V70.9z"/>
</g>
<g>
	<path class="st0" d="M1781.9,70H1731c-2.9,0-5.3-2.4-5.3-5.3V13.8c0-2.9,2.4-5.3,5.3-5.3h50.9c2.9,0,5.3,2.4,5.3,5.3v50.9
		C1787.2,67.6,1784.8,70,1781.9,70z M1731,10.5c-1.8,0-3.3,1.5-3.3,3.3v50.9c0,1.8,1.5,3.3,3.3,3.3h50.9c1.8,0,3.3-1.5,3.3-3.3V13.8
		c0-1.8-1.5-3.3-3.3-3.3L1731,10.5z M1756.5,62.1c-12.6,0-22.9-10.2-22.9-22.9s10.2-22.9,22.9-22.9c12.6,0,22.9,10.2,22.9,22.9v0
		C1779.3,51.9,1769.1,62.1,1756.5,62.1z M1756.5,18.4c-11.5,0-20.9,9.3-20.9,20.9s9.3,20.9,20.9,20.9c11.5,0,20.9-9.3,20.9-20.9v0
		C1777.3,27.7,1768,18.4,1756.5,18.4z"/>
	<g>
		<g>
			<path class="st0" d="M1749.8,43.6h-6.1V30.4h6.1V43.6z M1745.7,41.6h2.1v-9.2h-2.1V41.6z"/>
			<path class="st0" d="M1769.2,43.6h-6.1V30.4h6.1V43.6z M1765.2,41.6h2.1v-9.2h-2.1V41.6z"/>
		</g>
		<path class="st0" d="M1760.9,54.1h-8.9l-0.3-0.6c-0.3-0.7-0.5-1.4-0.5-2.2c0-2.9,2.3-5.2,5.2-5.2c2.9,0,5.2,2.3,5.2,5.2
			c0,0.8-0.2,1.5-0.5,2.2L1760.9,54.1z M1753.4,52.1h6.2c0.1-0.3,0.1-0.5,0.1-0.8c0-1.8-1.4-3.2-3.2-3.2c-1.8,0-3.2,1.4-3.2,3.2
			C1753.2,51.6,1753.3,51.9,1753.4,52.1L1753.4,52.1z"/>
	</g>
</g>
<g>
	<path class="st0" d="M1977.7,68.7h-61v-61h61V68.7z M1919.7,65.7h55v-55h-55V65.7z"/>
	<path class="st0" d="M1961.6,58.6l-14.1-7.5l-14.1,7.5l2.7-15.7l-11.4-11.2l15.7-2.3l7.1-14.2l7.1,14.2l15.7,2.3l-11.4,11.2
		L1961.6,58.6z M1931.1,33.8l8.2,8l-1.9,11.3l10.1-5.3l10.1,5.3l-1.9-11.3l8.2-8l-11.3-1.7l-5.1-10.2l-5.1,10.2L1931.1,33.8z"/>
</g>
</svg>
