<svg id="Режим_изоляции" data-name="Режим изоляции" xmlns="http://www.w3.org/2000/svg" width="26.17mm" height="15.75mm" viewBox="0 0 74.19 44.65">
  <defs>
    <style>
      .cls-1 {
        fill: #e18c44;
      }

      .cls-2 {
        fill: #d24a43;
      }

      .cls-3 {
        fill: #414875;
      }

      .cls-4 {
        fill: #fff;
      }
    </style>
  </defs>
  <title>master-card</title>
  <g>
    <circle class="cls-1" cx="51.86" cy="22.33" r="22.33"/>
    <circle class="cls-2" cx="22.33" cy="22.33" r="22.33"/>
    <g>
      <path class="cls-1" d="M41.37,2.62a22.35,22.35,0,0,1,21,0"/>
      <path class="cls-1" d="M41.37,2.62h21a22.35,22.35,0,0,0-21,0Z"/>
      <path class="cls-1" d="M33.78,9.24A22.45,22.45,0,0,1,37,5.7"/>
      <path class="cls-1" d="M66.76,5.7A22.44,22.44,0,0,1,70,9.24"/>
      <path class="cls-1" d="M66.76,5.7H37a22.45,22.45,0,0,0-3.19,3.54H70A22.44,22.44,0,0,0,66.76,5.7Z"/>
      <path class="cls-1" d="M71.82,12.32a22.18,22.18,0,0,1,1.41,3.54"/>
      <path class="cls-1" d="M31.9,12.32a22.18,22.18,0,0,0-1.41,3.54H73.24a22.18,22.18,0,0,0-1.41-3.54Z"/>
      <path class="cls-1" d="M73.93,18.94a22.5,22.5,0,0,1,.26,3.39c0,.05,0,.1,0,.15"/>
      <path class="cls-1" d="M73.93,18.94H29.79a22.5,22.5,0,0,0-.26,3.39c0,.05,0,.1,0,.15H74.19c0-.05,0-.1,0-.15A22.5,22.5,0,0,0,73.93,18.94Z"/>
      <path class="cls-1" d="M74,25.56a22.19,22.19,0,0,1-.81,3.54"/>
      <path class="cls-1" d="M29.77,25.56a22.19,22.19,0,0,0,.81,3.54H73.14A22.19,22.19,0,0,0,74,25.56Z"/>
      <path class="cls-1" d="M34,35.72a22.32,22.32,0,0,1-2.18-3.54"/>
      <path class="cls-1" d="M71.9,32.18a22.33,22.33,0,0,1-2.18,3.54"/>
      <path class="cls-1" d="M31.83,32.18A22.32,22.32,0,0,0,34,35.72H69.72a22.33,22.33,0,0,0,2.18-3.54Z"/>
      <path class="cls-1" d="M42,42.34A22.37,22.37,0,0,1,36.8,38.8"/>
      <path class="cls-1" d="M66.93,38.8a22.37,22.37,0,0,1-5.17,3.54"/>
    </g>
    <g>
      <path class="cls-3" d="M10.21,22.8c0-1.08-.08-2.39-.08-3.7h0c-.28,1.15-.65,2.43-1,3.48L8,26.1H6.4l-1-3.48c-.29-1.05-.6-2.34-.81-3.51h0c-.05,1.21-.09,2.6-.16,3.72l-.16,3.42H2.4l.57-9H5.68l.88,3c.28,1,.56,2.16.76,3.22h0c.25-1,.56-2.23.85-3.23l1-3h2.66l.49,9h-2Z"/>
      <path class="cls-3" d="M17.57,26.24l-.12-.65h0a2.35,2.35,0,0,1-1.87.8,2,2,0,0,1-2.11-2c0-1.7,1.52-2.51,3.83-2.5V21.8c0-.35-.19-.84-1.19-.84a3.67,3.67,0,0,0-1.8.49l-.37-1.31a5.39,5.39,0,0,1,2.54-.57,2.54,2.54,0,0,1,2.87,2.82v2.27a10.11,10.11,0,0,0,.09,1.59Zm-.24-3.08c-1.07,0-1.9.24-1.9,1a.73.73,0,0,0,.8.77,1.11,1.11,0,0,0,1.05-.75,1.45,1.45,0,0,0,0-.35Z"/>
      <path class="cls-3" d="M20.9,24.47a4,4,0,0,0,1.75.49c.61,0,.87-.21.87-.55s-.2-.49-1-.75c-1.35-.45-1.87-1.19-1.86-2,0-1.21,1-2.14,2.66-2.14a4.38,4.38,0,0,1,1.84.37l-.36,1.4A3.2,3.2,0,0,0,23.42,21c-.49,0-.77.2-.77.53s.25.47,1.05.75c1.24.43,1.76,1.05,1.78,2,0,1.21-1,2.11-2.83,2.11a4.62,4.62,0,0,1-2.11-.45Z"/>
      <path class="cls-3" d="M29,17.85v1.87h1.46v1.5H29v2.36c0,.79.19,1.15.8,1.15a3.31,3.31,0,0,0,.6-.05V26.2a4,4,0,0,1-1.32.17,2.11,2.11,0,0,1-1.52-.56A2.7,2.7,0,0,1,27,23.88V21.21h-.87v-1.5H27V18.3Z"/>
      <path class="cls-3" d="M33.1,23.63c.07.84.89,1.24,1.84,1.24a5.75,5.75,0,0,0,1.8-.27L37,26a6.45,6.45,0,0,1-2.36.4,3.13,3.13,0,0,1-3.48-3.32,3.27,3.27,0,0,1,3.3-3.48c2.11,0,2.91,1.64,2.91,3.26a4.82,4.82,0,0,1-.07.8Zm2.39-1.39a1.18,1.18,0,0,0-1.15-1.32,1.33,1.33,0,0,0-1.25,1.32Z"/>
      <path class="cls-3" d="M38.59,21.87c0-1,0-1.59-.05-2.15h1.75l.07,1.2h.05a1.92,1.92,0,0,1,1.76-1.35,2.09,2.09,0,0,1,.43,0v1.91a2.91,2.91,0,0,0-.55-.05,1.3,1.3,0,0,0-1.39,1,2.39,2.39,0,0,0,0,.45v3.31h-2Z"/>
      <path class="cls-3" d="M50.33,26a5.8,5.8,0,0,1-2.31.39c-3.11,0-4.71-1.94-4.71-4.5a4.59,4.59,0,0,1,4.91-4.78,5.3,5.3,0,0,1,2.22.4L50,19.12a4.39,4.39,0,0,0-1.71-.33,2.71,2.71,0,0,0-2.87,3,2.69,2.69,0,0,0,2.88,2.94A5.08,5.08,0,0,0,50,24.4Z"/>
      <path class="cls-3" d="M55.18,26.24l-.12-.65h0a2.35,2.35,0,0,1-1.87.8,2,2,0,0,1-2.11-2c0-1.7,1.52-2.51,3.83-2.5V21.8c0-.35-.19-.84-1.19-.84a3.67,3.67,0,0,0-1.8.49l-.37-1.31A5.39,5.39,0,0,1,54,19.57a2.54,2.54,0,0,1,2.87,2.82v2.27A10.11,10.11,0,0,0,57,26.24Zm-.24-3.08c-1.07,0-1.9.24-1.9,1a.73.73,0,0,0,.8.77,1.11,1.11,0,0,0,1.05-.75,1.45,1.45,0,0,0,0-.35Z"/>
      <path class="cls-3" d="M58.52,21.87c0-1,0-1.59-.05-2.15h1.75l.07,1.2h.05a1.92,1.92,0,0,1,1.76-1.35,2.09,2.09,0,0,1,.43,0v1.91a2.91,2.91,0,0,0-.55-.05,1.3,1.3,0,0,0-1.39,1,2.39,2.39,0,0,0,0,.45v3.31h-2Z"/>
      <path class="cls-3" d="M69.81,16.77V24.3c0,.73,0,1.51.05,1.95h-1.8l-.09-1h0a2.28,2.28,0,0,1-2,1.11c-1.55,0-2.79-1.32-2.79-3.35,0-2.2,1.36-3.47,2.92-3.47a2,2,0,0,1,1.72.73h0V16.77Zm-2,5.71a3.29,3.29,0,0,0,0-.36,1.22,1.22,0,0,0-1.19-1c-.92,0-1.4.83-1.4,1.86s.55,1.8,1.39,1.8a1.19,1.19,0,0,0,1.17-1,1.73,1.73,0,0,0,.05-.47Z"/>
    </g>
    <g>
      <path class="cls-4" d="M11.13,22.11c0-1.08-.08-2.39-.08-3.7h0c-.28,1.15-.65,2.43-1,3.48L8.91,25.4H7.33l-1-3.48c-.29-1.05-.6-2.34-.81-3.51h0c-.05,1.21-.09,2.6-.16,3.72L5.2,25.55H3.32l.57-9H6.6l.88,3c.28,1,.56,2.16.76,3.22h0c.25-1,.56-2.23.85-3.23l1-3h2.66l.49,9h-2Z"/>
      <path class="cls-4" d="M18.5,25.55l-.12-.65h0a2.35,2.35,0,0,1-1.87.8,2,2,0,0,1-2.11-2c0-1.7,1.52-2.51,3.83-2.5v-.09c0-.35-.19-.84-1.19-.84a3.67,3.67,0,0,0-1.8.49l-.37-1.31a5.39,5.39,0,0,1,2.54-.57,2.54,2.54,0,0,1,2.87,2.82V24a10.12,10.12,0,0,0,.09,1.59Zm-.24-3.08c-1.07,0-1.9.24-1.9,1a.73.73,0,0,0,.8.77,1.11,1.11,0,0,0,1.05-.75,1.46,1.46,0,0,0,0-.35Z"/>
      <path class="cls-4" d="M21.82,23.78a4,4,0,0,0,1.75.49c.61,0,.87-.21.87-.55s-.2-.49-1-.75c-1.35-.45-1.87-1.19-1.86-2,0-1.21,1-2.14,2.66-2.14a4.38,4.38,0,0,1,1.84.37l-.36,1.4a3.2,3.2,0,0,0-1.41-.37c-.49,0-.77.2-.77.53s.25.47,1.05.75c1.24.43,1.76,1.05,1.78,2,0,1.21-1,2.11-2.83,2.11a4.62,4.62,0,0,1-2.11-.45Z"/>
      <path class="cls-4" d="M29.9,17.15V19h1.46v1.5H29.9v2.36c0,.79.19,1.15.8,1.15a3.32,3.32,0,0,0,.6-.05v1.54a4,4,0,0,1-1.32.17,2.11,2.11,0,0,1-1.52-.56,2.7,2.7,0,0,1-.56-1.94V20.52H27V19h.87V17.61Z"/>
      <path class="cls-4" d="M34,22.94c.07.84.89,1.24,1.84,1.24a5.75,5.75,0,0,0,1.8-.27l.27,1.38a6.44,6.44,0,0,1-2.36.4,3.13,3.13,0,0,1-3.48-3.32,3.27,3.27,0,0,1,3.3-3.48c2.11,0,2.91,1.64,2.91,3.26a4.82,4.82,0,0,1-.07.8Zm2.39-1.39a1.18,1.18,0,0,0-1.15-1.32A1.33,1.33,0,0,0,34,21.55Z"/>
      <path class="cls-4" d="M39.51,21.17c0-1,0-1.59-.05-2.15h1.75l.07,1.2h.05a1.92,1.92,0,0,1,1.76-1.35,2.09,2.09,0,0,1,.43,0v1.91a2.91,2.91,0,0,0-.55-.05,1.3,1.3,0,0,0-1.39,1,2.39,2.39,0,0,0,0,.45v3.31h-2Z"/>
      <path class="cls-4" d="M51.26,25.3a5.8,5.8,0,0,1-2.31.39c-3.11,0-4.71-1.94-4.71-4.5a4.59,4.59,0,0,1,4.91-4.78,5.3,5.3,0,0,1,2.22.4L51,18.42a4.39,4.39,0,0,0-1.71-.33,2.71,2.71,0,0,0-2.87,3A2.69,2.69,0,0,0,49.26,24a5.08,5.08,0,0,0,1.7-.29Z"/>
      <path class="cls-4" d="M56.1,25.55,56,24.9h0a2.35,2.35,0,0,1-1.87.8,2,2,0,0,1-2.11-2c0-1.7,1.52-2.51,3.83-2.5v-.09c0-.35-.19-.84-1.19-.84a3.67,3.67,0,0,0-1.8.49l-.37-1.31A5.39,5.39,0,0,1,55,18.88a2.54,2.54,0,0,1,2.87,2.82V24a10.12,10.12,0,0,0,.09,1.59Zm-.24-3.08c-1.07,0-1.9.24-1.9,1a.73.73,0,0,0,.8.77,1.11,1.11,0,0,0,1.05-.75,1.46,1.46,0,0,0,0-.35Z"/>
      <path class="cls-4" d="M59.44,21.17c0-1,0-1.59-.05-2.15h1.75l.07,1.2h.05A1.92,1.92,0,0,1,63,18.88a2.09,2.09,0,0,1,.43,0v1.91a2.91,2.91,0,0,0-.55-.05,1.3,1.3,0,0,0-1.39,1,2.39,2.39,0,0,0,0,.45v3.31h-2Z"/>
      <path class="cls-4" d="M70.73,16.07V23.6c0,.73,0,1.51.05,1.95H69l-.09-1h0a2.28,2.28,0,0,1-2,1.11c-1.55,0-2.79-1.32-2.79-3.35,0-2.2,1.36-3.47,2.92-3.47a2,2,0,0,1,1.72.73h0V16.07Zm-2,5.71a3.28,3.28,0,0,0,0-.36,1.22,1.22,0,0,0-1.19-1c-.92,0-1.4.83-1.4,1.86s.55,1.8,1.39,1.8a1.19,1.19,0,0,0,1.17-1,1.73,1.73,0,0,0,.05-.47Z"/>
    </g>
  </g>
</svg>
