<svg id="Режим_изоляции" data-name="Режим изоляции" xmlns="http://www.w3.org/2000/svg" width="32.31mm" height="10.13mm" viewBox="0 0 91.59 28.73">
  <defs>
    <style>
      .cls-1 {
        fill: #4f68a6;
      }

      .cls-2 {
        fill: #e59f44;
      }
    </style>
  </defs>
  <title>visa</title>
  <g>
    <path class="cls-1" d="M51.75,2.08C56.24-.51,61.87-.53,66.67,1.19c-.38,2-.71,4-1,6a13,13,0,0,0-8.27-1.09c-1.14.28-2.51,1.26-2.13,2.59s1.86,1.77,2.95,2.4c2.26,1.13,4.7,2.22,6.21,4.36s1.43,5.41.2,7.8a10.48,10.48,0,0,1-6.88,4.92,22.6,22.6,0,0,1-6.91.51,19.81,19.81,0,0,1-6.31-1.36c.1-2.07.7-4.13.9-6.21,2.94,1.28,6.14,2.26,9.38,1.72A3.76,3.76,0,0,0,57.64,21,2.07,2.07,0,0,0,57,18.58c-1.62-1.38-3.73-2-5.49-3.16s-3.61-3-3.94-5.23A8.21,8.21,0,0,1,51.75,2.08Z"/>
    <path class="cls-1" d="M25.78,1.43c.18-.34.23-1,.78-.9,2.47,0,4.95,0,7.42,0-3.92,9.27-7.76,18.57-11.67,27.84-2.62,0-5.24,0-7.87,0C12.3,20.24,10,12.2,7.89,4.1a23.11,23.11,0,0,1,10,11.18,31.45,31.45,0,0,1,.88,4.11,8.74,8.74,0,0,0,1-2.2C21.77,11.94,23.8,6.69,25.78,1.43Z"/>
    <path class="cls-1" d="M37,.52c2.48-.07,5,0,7.44,0q-2.33,13.94-4.64,27.88c-2.47.1-4.94,0-7.4.06C33.83,19.11,35.48,9.82,37,.52Z"/>
    <path class="cls-1" d="M76,2.88A3.53,3.53,0,0,1,78.93.6c2.22-.18,4.46,0,6.7-.07,2,9.3,4.11,18.56,6,27.88-2.23,0-4.46.05-6.68,0-.65-1.23-.62-2.83-1.07-4.18-3.15,0-6.31,0-9.46,0-.52,1.38-1,2.76-1.51,4.16-2.61.16-5.23,0-7.84.07Q70.5,15.64,76,2.88Zm4,6.26c-1.09,3.15-2.32,6.25-3.51,9.37q3.1,0,6.2,0c-.77-3.43-1.5-6.87-2.21-10.31A4.52,4.52,0,0,0,80,9.14Z"/>
    <path class="cls-2" d="M0,.57c4-.11,8,0,12.06,0a3.17,3.17,0,0,1,3.44,2.36c.81,4.13,1.78,8.24,2.43,12.4A23.11,23.11,0,0,0,7.89,4.1,31.91,31.91,0,0,0,.29,1Z"/>
  </g>
</svg>
