<svg xmlns="http://www.w3.org/2000/svg" xmlns:xlink="http://www.w3.org/1999/xlink" width="66.5" height="78.87" viewBox="0 0 66.5 78.87">
  <defs>
    <style>
      .cls-1 {
        isolation: isolate;
      }

      .cls-2, .cls-45, .cls-46, .cls-47, .cls-50 {
        mix-blend-mode: multiply;
      }

      .cls-3 {
        fill: #fff;
      }

      .cls-4 {
        fill: #f6f6f6;
      }

      .cls-5 {
        fill: #efeeef;
      }

      .cls-6 {
        fill: #e9e7e8;
      }

      .cls-7 {
        fill: #e3e1e2;
      }

      .cls-8 {
        fill: #dddbdc;
      }

      .cls-9 {
        fill: #d8d6d7;
      }

      .cls-10 {
        fill: #d2d0d1;
      }

      .cls-11 {
        fill: #cdcbcc;
      }

      .cls-12 {
        fill: #c8c6c7;
      }

      .cls-13 {
        fill: #c3c1c2;
      }

      .cls-14 {
        fill: #bebcbd;
      }

      .cls-15 {
        fill: #bab7b8;
      }

      .cls-16 {
        fill: #b5b2b3;
      }

      .cls-17 {
        fill: #b0aeaf;
      }

      .cls-18 {
        fill: #aca9aa;
      }

      .cls-19 {
        fill: #a8a5a6;
      }

      .cls-20 {
        fill: #a3a0a2;
      }

      .cls-21 {
        fill: #9f9c9d;
      }

      .cls-22 {
        fill: #9b9899;
      }

      .cls-23 {
        fill: #979495;
      }

      .cls-24 {
        fill: #939092;
      }

      .cls-25 {
        fill: #8f8d8e;
      }

      .cls-26 {
        fill: #8b898a;
      }

      .cls-27 {
        fill: #888687;
      }

      .cls-28 {
        fill: #848284;
      }

      .cls-29 {
        fill: #817f80;
      }

      .cls-30 {
        fill: #7e7c7d;
      }

      .cls-31 {
        fill: #7a797a;
      }

      .cls-32 {
        fill: #777677;
      }

      .cls-33 {
        fill: #747374;
      }

      .cls-34 {
        fill: #717072;
      }

      .cls-35 {
        fill: #6e6d6f;
      }

      .cls-36 {
        fill: #6b6b6c;
      }

      .cls-37 {
        fill: #69686a;
      }

      .cls-38 {
        fill: #666668;
      }

      .cls-39 {
        fill: #636365;
      }

      .cls-40 {
        fill: #616163;
      }

      .cls-41 {
        fill: #5f5f61;
      }

      .cls-42 {
        fill: #5c5d5f;
      }

      .cls-43 {
        fill: #5a5b5d;
      }

      .cls-44 {
        fill: #58595b;
      }

      .cls-45 {
        fill: url(#radial-gradient);
      }

      .cls-46 {
        fill: url(#radial-gradient-2);
      }

      .cls-47 {
        fill: url(#radial-gradient-3);
      }

      .cls-48 {
        fill: url(#linear-gradient);
      }

      .cls-49 {
        fill: url(#linear-gradient-2);
      }

      .cls-50 {
        fill: url(#linear-gradient-3);
      }

      .cls-51, .cls-52 {
        mix-blend-mode: screen;
      }

      .cls-51 {
        fill: url(#linear-gradient-4);
      }

      .cls-52 {
        fill: url(#radial-gradient-4);
      }
    </style>
    <radialGradient id="radial-gradient" cx="3740.99" cy="139.87" r="35.99" gradientTransform="translate(152.11 -130.22) rotate(90) scale(0.05 0.85)" gradientUnits="userSpaceOnUse">
      <stop offset="0" stop-color="#6d6e71"/>
      <stop offset="0.02" stop-color="#76777a"/>
      <stop offset="0.11" stop-color="#9a9b9d"/>
      <stop offset="0.2" stop-color="#bababc"/>
      <stop offset="0.3" stop-color="#d3d3d4"/>
      <stop offset="0.42" stop-color="#e7e7e7"/>
      <stop offset="0.55" stop-color="#f5f5f5"/>
      <stop offset="0.71" stop-color="#fdfdfd"/>
      <stop offset="1" stop-color="#fff"/>
    </radialGradient>
    <radialGradient id="radial-gradient-2" cx="1343.65" cy="35.11" r="35.99" gradientTransform="translate(-90.13 3.56) scale(0.07 0.96)" xlink:href="#radial-gradient"/>
    <radialGradient id="radial-gradient-3" cx="2236.5" cy="35.11" r="35.99" gradientTransform="translate(-90.13 3.56) scale(0.07 0.96)" xlink:href="#radial-gradient"/>
    <linearGradient id="linear-gradient" x1="33.25" y1="74.85" x2="33.25" y2="37.43" gradientUnits="userSpaceOnUse">
      <stop offset="0" stop-color="#bcbdc0"/>
      <stop offset="0.28" stop-color="#c6c7c9"/>
      <stop offset="0.76" stop-color="#e1e2e2"/>
      <stop offset="1" stop-color="#f1f2f1"/>
    </linearGradient>
    <linearGradient id="linear-gradient-2" x1="33.25" y1="37.43" x2="33.25" gradientUnits="userSpaceOnUse">
      <stop offset="0" stop-color="#bcbdc0"/>
      <stop offset="0.3" stop-color="#c4c5c7"/>
      <stop offset="0.76" stop-color="#d9dada"/>
      <stop offset="1" stop-color="#e6e7e7"/>
    </linearGradient>
    <linearGradient id="linear-gradient-3" x1="689.42" y1="-183.52" x2="689.42" y2="-188.71" gradientTransform="translate(722.68 -113.86) rotate(180)" gradientUnits="userSpaceOnUse">
      <stop offset="0" stop-color="#fff"/>
      <stop offset="0.14" stop-color="#f4f4f4"/>
      <stop offset="0.38" stop-color="#d6d6d6"/>
      <stop offset="0.69" stop-color="#a5a5a5"/>
      <stop offset="1" stop-color="#707070"/>
    </linearGradient>
    <linearGradient id="linear-gradient-4" x1="33.25" y1="5.35" x2="33.25" y2="0.16" gradientUnits="userSpaceOnUse">
      <stop offset="0" stop-color="#020608"/>
      <stop offset="0.14" stop-color="#060a0c"/>
      <stop offset="0.3" stop-color="#141719"/>
      <stop offset="0.46" stop-color="#2a2d2f"/>
      <stop offset="0.63" stop-color="#484b4d"/>
      <stop offset="0.8" stop-color="#707275"/>
      <stop offset="0.98" stop-color="#a0a1a4"/>
      <stop offset="1" stop-color="#a7a8ab"/>
    </linearGradient>
    <radialGradient id="radial-gradient-4" cx="38.77" cy="6609.17" r="25.82" gradientTransform="translate(-5.68 -98.56) scale(1 0.01)" gradientUnits="userSpaceOnUse">
      <stop offset="0" stop-color="#fff"/>
      <stop offset="0.03" stop-color="#f2f2f2"/>
      <stop offset="0.19" stop-color="#b3b4b5"/>
      <stop offset="0.34" stop-color="#7d7f80"/>
      <stop offset="0.49" stop-color="#515455"/>
      <stop offset="0.64" stop-color="#2f3234"/>
      <stop offset="0.77" stop-color="#161a1c"/>
      <stop offset="0.9" stop-color="#070b0d"/>
      <stop offset="1" stop-color="#020608"/>
    </radialGradient>
  </defs>
  <title>bg-numbers</title>
  <g class="cls-1">
    <g id="Слой_1" data-name="Слой 1">
      <g>
        <g>
          <g class="cls-2">
            <path class="cls-3" d="M2.47,72.61v1.23c0,2.77,2.85,5,6.33,5H57.7c3.48,0,6.33-2.26,6.33-5V72.61Z"/>
            <path class="cls-4" d="M2.6,72.55v1.23c0,2.76,2.84,5,6.3,5H57.6c3.47,0,6.3-2.26,6.3-5V72.55Z"/>
            <path class="cls-5" d="M2.72,72.49v1.22c0,2.74,2.82,5,6.28,5H57.5c3.45,0,6.28-2.25,6.28-5V72.49Z"/>
            <path class="cls-6" d="M2.85,72.44v1.22c0,2.73,2.81,5,6.25,5H57.4c3.44,0,6.25-2.24,6.25-5V72.44Z"/>
            <path class="cls-7" d="M3,72.38v1.21c0,2.72,2.8,4.95,6.22,4.95H57.3c3.42,0,6.22-2.23,6.22-4.95V72.38Z"/>
            <path class="cls-8" d="M3.1,72.32v1.21c0,2.71,2.79,4.93,6.2,4.93H57.2c3.41,0,6.2-2.22,6.2-4.93V72.32Z"/>
            <path class="cls-9" d="M3.23,72.26v1.2c0,2.7,2.78,4.91,6.17,4.91H57.1c3.39,0,6.17-2.21,6.17-4.91v-1.2Z"/>
            <path class="cls-10" d="M3.35,72.21v1.2c0,2.69,2.77,4.89,6.15,4.89H57c3.38,0,6.15-2.2,6.15-4.89v-1.2Z"/>
            <path class="cls-11" d="M3.48,72.15v1.19c0,2.68,2.75,4.87,6.12,4.87H56.9C60.27,78.21,63,76,63,73.34V72.15Z"/>
            <path class="cls-12" d="M3.61,72.09v1.19c0,2.67,2.74,4.85,6.09,4.85H56.8c3.35,0,6.09-2.18,6.09-4.85V72.09Z"/>
            <path class="cls-13" d="M3.73,72v1.18C3.73,75.87,6.46,78,9.8,78H56.7c3.34,0,6.07-2.17,6.07-4.83V72Z"/>
            <path class="cls-14" d="M3.86,72v1.18c0,2.64,2.72,4.81,6,4.81H56.6c3.32,0,6-2.16,6-4.81V72Z"/>
            <path class="cls-15" d="M4,71.92v1.17c0,2.63,2.71,4.78,6,4.78H56.5c3.31,0,6-2.15,6-4.78V71.92Z"/>
            <path class="cls-16" d="M4.11,71.86V73c0,2.62,2.7,4.76,6,4.76H56.4c3.29,0,6-2.14,6-4.76V71.86Z"/>
            <path class="cls-17" d="M4.24,71.8V73c0,2.61,2.68,4.74,6,4.74H56.3c3.28,0,6-2.13,6-4.74V71.8Z"/>
            <path class="cls-18" d="M4.36,71.75V72.9c0,2.6,2.67,4.72,5.94,4.72H56.2c3.27,0,5.94-2.13,5.94-4.72V71.75Z"/>
            <path class="cls-19" d="M4.49,71.69v1.15c0,2.59,2.66,4.7,5.91,4.7H56.1c3.25,0,5.91-2.12,5.91-4.7V71.69Z"/>
            <path class="cls-20" d="M4.61,71.63v1.15c0,2.57,2.65,4.68,5.89,4.68H56c3.24,0,5.89-2.11,5.89-4.68V71.63Z"/>
            <path class="cls-21" d="M4.74,71.57v1.14c0,2.56,2.64,4.66,5.86,4.66H55.9c3.22,0,5.86-2.1,5.86-4.66V71.57Z"/>
            <path class="cls-22" d="M4.87,71.52v1.14c0,2.55,2.63,4.64,5.83,4.64H55.8c3.21,0,5.83-2.09,5.83-4.64V71.52Z"/>
            <path class="cls-23" d="M5,71.46v1.13c0,2.54,2.61,4.62,5.81,4.62H55.7c3.19,0,5.81-2.08,5.81-4.62V71.46Z"/>
            <path class="cls-24" d="M5.12,71.4v1.13c0,2.53,2.6,4.6,5.78,4.6H55.6c3.18,0,5.78-2.07,5.78-4.6V71.4Z"/>
            <path class="cls-25" d="M5.25,71.34v1.12C5.25,75,7.84,77,11,77H55.5c3.17,0,5.76-2.06,5.76-4.58V71.34Z"/>
            <path class="cls-26" d="M5.37,71.29V72.4C5.37,74.91,8,77,11.1,77H55.4c3.15,0,5.73-2.05,5.73-4.56V71.29Z"/>
            <path class="cls-27" d="M5.5,71.23v1.11c0,2.5,2.57,4.54,5.7,4.54H55.3c3.14,0,5.7-2,5.7-4.54V71.23Z"/>
            <path class="cls-28" d="M5.62,71.17v1.11c0,2.48,2.56,4.52,5.68,4.52H55.2c3.12,0,5.68-2,5.68-4.52V71.17Z"/>
            <path class="cls-29" d="M5.75,71.11v1.1c0,2.47,2.54,4.5,5.65,4.5H55.1c3.11,0,5.65-2,5.65-4.5v-1.1Z"/>
            <path class="cls-30" d="M5.88,71.06v1.1c0,2.46,2.53,4.48,5.63,4.48H55c3.09,0,5.63-2,5.63-4.48v-1.1Z"/>
            <path class="cls-31" d="M6,71v1.09c0,2.45,2.52,4.45,5.6,4.45H54.9c3.08,0,5.6-2,5.6-4.45V71Z"/>
            <path class="cls-32" d="M6.13,70.94V72c0,2.44,2.51,4.43,5.58,4.43H54.8c3.07,0,5.58-2,5.58-4.43V70.94Z"/>
            <path class="cls-33" d="M6.25,70.88V72c0,2.43,2.5,4.41,5.55,4.41H54.7c3.05,0,5.55-2,5.55-4.41V70.88Z"/>
            <path class="cls-34" d="M6.38,70.83V71.9c0,2.42,2.49,4.39,5.52,4.39H54.6c3,0,5.52-2,5.52-4.39V70.83Z"/>
            <path class="cls-35" d="M6.51,70.77v1.07c0,2.4,2.47,4.37,5.5,4.37H54.5c3,0,5.5-2,5.5-4.37V70.77Z"/>
            <path class="cls-36" d="M6.63,70.71v1.07c0,2.39,2.46,4.35,5.47,4.35H54.4c3,0,5.47-2,5.47-4.35V70.71Z"/>
            <path class="cls-37" d="M6.76,70.65v1.06C6.76,74.1,9.21,76,12.2,76H54.3c3,0,5.45-1.95,5.45-4.33V70.65Z"/>
            <path class="cls-38" d="M6.88,70.6v1.06C6.88,74,9.32,76,12.3,76H54.2c3,0,5.42-1.94,5.42-4.31V70.6Z"/>
            <path class="cls-39" d="M7,70.54v1.05c0,2.36,2.43,4.29,5.39,4.29H54.1c3,0,5.39-1.93,5.39-4.29V70.54Z"/>
            <path class="cls-40" d="M7.14,70.48v1c0,2.35,2.42,4.27,5.37,4.27H54c3,0,5.37-1.92,5.37-4.27v-1Z"/>
            <path class="cls-41" d="M7.26,70.42v1c0,2.34,2.4,4.25,5.34,4.25H53.9c2.94,0,5.34-1.91,5.34-4.25v-1Z"/>
            <path class="cls-42" d="M7.39,70.37v1c0,2.33,2.39,4.23,5.32,4.23H53.8c2.92,0,5.32-1.9,5.32-4.23v-1Z"/>
            <path class="cls-43" d="M7.52,70.31v1c0,2.31,2.38,4.21,5.29,4.21H53.7c2.91,0,5.29-1.89,5.29-4.21v-1Z"/>
            <path class="cls-44" d="M7.64,70.25v1c0,2.3,2.37,4.19,5.26,4.19H53.59c2.9,0,5.26-1.88,5.26-4.19v-1Z"/>
          </g>
          <g>
            <ellipse class="cls-45" cx="33.25" cy="74.86" rx="30.59" ry="1.97"/>
            <ellipse class="cls-46" cx="2.48" cy="37.43" rx="2.48" ry="34.72"/>
            <ellipse class="cls-47" cx="64.02" cy="37.43" rx="2.48" ry="34.72"/>
          </g>
        </g>
        <g>
          <path class="cls-48" d="M2.47,37.43V69.82c0,2.77,2.85,5,6.33,5H57.7c3.48,0,6.33-2.26,6.33-5V37.43Z"/>
          <path class="cls-49" d="M64,5c0-2.77-2.85-5-6.33-5H8.8C5.32,0,2.47,2.26,2.47,5V37.43H64Z"/>
          <g>
            <path class="cls-50" d="M2.47,69.66v.16a4,4,0,0,0,0,.46,4.29,4.29,0,0,0,.66,1.64,5.66,5.66,0,0,0,2.26,1.94,6.86,6.86,0,0,0,1.89.62,11.25,11.25,0,0,0,2.28.13l11,0,12.62,0,12.62,0,11,0a11.23,11.23,0,0,0,2.27-.13,6.85,6.85,0,0,0,1.89-.62,5.66,5.66,0,0,0,2.26-1.94A4.28,4.28,0,0,0,64,70.28a4,4,0,0,0,0-.45v0a4,4,0,0,1,0,.46,4.27,4.27,0,0,1-.61,1.66,5.67,5.67,0,0,1-2.24,2,7,7,0,0,1-1.92.67,11.16,11.16,0,0,1-2.32.16l-11,0-12.62,0-12.62,0-11,0a11.13,11.13,0,0,1-2.32-.16,7,7,0,0,1-1.92-.67,5.67,5.67,0,0,1-2.24-2,4.27,4.27,0,0,1-.61-1.66,4,4,0,0,1,0-.46Z"/>
            <path class="cls-51" d="M64,5.35V5.19a3.93,3.93,0,0,0,0-.46,4.28,4.28,0,0,0-.66-1.64,5.66,5.66,0,0,0-2.26-1.94A6.86,6.86,0,0,0,59.16.53,11.25,11.25,0,0,0,56.89.4l-11,0L33.25.47,20.63.45l-11,0A11.22,11.22,0,0,0,7.34.53a6.85,6.85,0,0,0-1.89.62A5.66,5.66,0,0,0,3.19,3.1a4.28,4.28,0,0,0-.66,1.64,3.92,3.92,0,0,0,0,.45v0a4,4,0,0,1,0-.46,4.27,4.27,0,0,1,.61-1.66,5.67,5.67,0,0,1,2.24-2A7,7,0,0,1,7.29.39,11.16,11.16,0,0,1,9.61.23l11,0,12.62,0,12.62,0,11,0a11.13,11.13,0,0,1,2.32.16,7,7,0,0,1,1.92.67,5.67,5.67,0,0,1,2.24,2A4.27,4.27,0,0,1,64,4.73a3.94,3.94,0,0,1,0,.46Z"/>
          </g>
        </g>
        <ellipse class="cls-52" cx="33.25" cy="0.39" rx="25.91" ry="0.39"/>
      </g>
    </g>
  </g>
</svg>
