<svg id="Слой_1" data-name="Слой 1" xmlns="http://www.w3.org/2000/svg" width="260" height="93" viewBox="0 0 1146.34 406.33">
  <defs>
    <style>
      .cls-1 {
        fill: #fff;
      }

      .cls-2 {
        fill: #00a1db;
      }

      .cls-3 {
        isolation: isolate;
      }
    </style>
  </defs>
  <title>logo</title>
  <g id="_лой_1" data-name="—лой_1">
    <g>
      <g>
        <path class="cls-1" d="M515.29,331.2a10.44,10.44,0,0,1,2.5,0,5.85,5.85,0,0,1,1.3.2h3a33.13,33.13,0,0,0,5.6-.6c4-1.3,8-3.1,12.1-4.6,2.1-.8,4.3-1.6,6.4-2.2a19.21,19.21,0,0,1,6.1-.9c.5.1,1.1.1,1.6.2a7.72,7.72,0,0,1,1.5.2,28.64,28.64,0,0,1,2.8.7h.1a28.7,28.7,0,0,1,10.3,4.6c1.2.8,2.3,1.7,3.4,2.6a15.83,15.83,0,0,0-1.3-1.3A35.78,35.78,0,0,0,564,325a30.27,30.27,0,0,0-5.1-2.5,26.37,26.37,0,0,0-3-1,9.36,9.36,0,0,0-1.6-.4,8.75,8.75,0,0,1-1.6-.2,20.39,20.39,0,0,0-7,.8c-2.2.6-4.4,1.4-6.6,2.2-4.3,1.7-8.5,3.6-12.5,5-1,.3-1.9.6-2.9.8a7.84,7.84,0,0,1-1.4.2h-.9l-.4-.1c-.4-.1-.9-.2-1.4-.3a7.72,7.72,0,0,0-1.5-.2,9.25,9.25,0,0,0-2.9.2,31.1,31.1,0,0,0-4.6,1.5c-1.3.5-2.5,1-3.4,1.3-1.9.7-3,1-3,1a.81.81,0,0,1,.7.2c.5-.1,1.3-.2,2.3-.4s2.2-.5,3.6-.9A29.7,29.7,0,0,1,515.29,331.2Z" transform="translate(-5.16)"/>
        <path class="cls-2" d="M623.29,259.9c-.9-6.7.2-21.9.2-27.8,0-7.2-7-29.7-7-29.7,5.8-22.2-5-67.3-8.8-76.2s-15.4-7.4-16.8-7.4-15.8-5.4-18.4-5.4-4.5-12.9-2.2-12c4.2,1.7,9.1-15.8,9.6-28.7.3-9.1-6.6-17.1-24.1-20.1a8.12,8.12,0,0,0-2.1-3.2c-9.3-8.9-22.4-.4-24.5,9.4-1.3,6,1.3,13.4,5.7,17.8,1,6.4,3.9,12.8,8.8,17.1,3,2.7-1.5,15.7-1.5,15.7s-5.4,1.4-8,1.2-14.6-1.8-19.4,0c-.2.1-.5.2-.7.3-16.6,4.6-76.5,28.9-82.6,45.6-6.4,17.6,51.6,42.5,52.6,46a74,74,0,0,0-13.6,18.1c-7,13.4-7.5,28.6-3.6,43,4.8,17.8,14.9,34,27.1,48.5,4.3,7.7,7.6,14.1,8,16.8,1.2,8.3-.2,2.3,10.7,3.3,2.9-1.1,6.4-.7,9.4-.7a29.84,29.84,0,0,0,10.2-2c6.4-2.4,11.8-5.3,18.8-5.7a26.6,26.6,0,0,1,17.6,5.1c2.6,1.8,4.8,3.9,7.2,5.5,3.3-3.3,9.1-20.6,13.8-36.5,8-17,14.1-35.3,14.7-53.8,7.8,14.8,6.3,24.3,6.6,26.1,1.8,10.2,5.1,16,6.7,14.4s-1.8-17.3,2.8-6.2c.8,1.9-.2,5.1-.6,6.9-.6,3.2-2.8,8.3-2.1,9.8s7-4.4,8.1-7.3a47.1,47.1,0,0,0,2.6-13.6C628.49,272.6,624.89,265.5,623.29,259.9Zm-132-63.3c-4.2-7.2-22.6-31.1-32.3-34.1,0,0,28.8-9.2,47-17.6,1.5,20.7,12.1,42.4,12.1,42.4C510.29,187.6,498.09,191.6,491.29,196.6Zm101.9,9.5c-1.4-1.3-20.2-12.8-19.1-13.4,2.6-1.4,18.4-22.7,18.4-22.7s5.8,30.8,5,37.4a16,16,0,0,0,.3,4A38.87,38.87,0,0,0,593.19,206.1Z" transform="translate(-5.16)"/>
      </g>
      <g class="cls-3">
        <path d="M124.1,223.76q-14.88,13.25-41,14.1v13.76H60.89V237.7q-26.83-1.37-41.28-14.45T5.16,185.58Q5.16,160,20,146.79t40.94-14V120.22H83.08v12.73q26.83,1.21,41.37,14.28T139,185.06Q139,210.52,124.1,223.76ZM36.55,212.84q8.17,9,25.2,9.89v-75Q44.55,148.94,36.46,158t-8.08,27.61Q28.38,203.81,36.55,212.84Zm71.12-.17q8.08-8.86,8.08-27.61,0-18.4-8.17-27.35t-25.37-9.8v74.82Q99.59,221.53,107.67,212.67Z" transform="translate(-5.16)"/>
        <path d="M230,164.25q8.26,12.56,8.26,35.26a69.19,69.19,0,0,1-4.21,25,38.05,38.05,0,0,1-12.38,17.11,31.13,31.13,0,0,1-19.35,6.19q-14.45,0-22.88-10v42.48l-22,2.41V154.28h19.26l1.2,11.18a35.68,35.68,0,0,1,12.21-10.32,31.9,31.9,0,0,1,14.45-3.44Q221.71,151.7,230,164.25Zm-14.79,35.43q0-16.68-4.3-24.08a14,14,0,0,0-12.9-7.4,17.72,17.72,0,0,0-10.32,3.35,29.27,29.27,0,0,0-8.26,9v40.94q6.36,9.46,16.68,9.46Q215.17,231,215.17,199.68Z" transform="translate(-5.16)"/>
        <path d="M327.06,229a10.45,10.45,0,0,0,5.25,3.87l-4.64,14.62A28.16,28.16,0,0,1,315,243.72a19.34,19.34,0,0,1-7.48-9.46,29.16,29.16,0,0,1-11.61,10.23,35.42,35.42,0,0,1-15.57,3.35q-13.59,0-21.5-7.74t-7.91-20.3q0-14.79,10.75-22.62t30.7-7.83h11.35V184.2q0-8.77-4-12.3t-13-3.53q-10,0-24.08,4.82l-5.16-15a91.93,91.93,0,0,1,33-6.54q34.91,0,34.92,31.3v38.18Q325.42,226.52,327.06,229Zm-23.31-8.34v-18.4h-9.12q-21.33,0-21.33,15.82,0,6.54,3.27,10.15t9.63,3.61Q297.39,231.85,303.75,220.67Z" transform="translate(-5.16)"/>
        <path d="M393.53,245.61q-5.51,16.85-16.68,26.23t-30.62,10.92l-2.24-16a55.18,55.18,0,0,0,14.36-3.87,23.23,23.23,0,0,0,8.69-6.62,44.38,44.38,0,0,0,6-11H365.5l-28.9-91H360l19.78,76.37,20.64-76.37h22.7Z" transform="translate(-5.16)"/>
      </g>
      <g class="cls-3">
        <path d="M740.08,126.41V245.26h-22.7v-101H687.1l-5.16,45.24q-2.41,21-5.93,32.25T666,238.9q-6.45,5.85-18.32,8.94l-5.33-16.68q6.36-2.41,9.46-6.45t4.73-11.52q1.63-7.48,3.53-23.82l7.4-63Z" transform="translate(-5.16)"/>
        <path d="M836.14,229a10.45,10.45,0,0,0,5.25,3.87l-4.64,14.62a28.16,28.16,0,0,1-12.64-3.78,19.34,19.34,0,0,1-7.48-9.46A29.16,29.16,0,0,1,805,244.49a35.42,35.42,0,0,1-15.57,3.35q-13.59,0-21.5-7.74T760,219.81q0-14.79,10.75-22.62t30.7-7.83h11.35V184.2q0-8.77-4-12.3t-13-3.53q-10,0-24.08,4.82l-5.16-15a91.93,91.93,0,0,1,33-6.54q34.91,0,34.92,31.3v38.18Q834.5,226.52,836.14,229Zm-23.31-8.34v-18.4h-9.12q-21.33,0-21.33,15.82,0,6.54,3.27,10.15t9.63,3.61Q806.47,231.85,812.83,220.67Z" transform="translate(-5.16)"/>
        <path d="M955.93,245.26H935L932,207.94q-.69-8.26-.69-17.89,0-4.13.34-15.82l-17.37,61.4H895.22l-16.68-61.4q.52,9.46.52,18.4,0,5.33-.34,15.31l-2.41,37.32h-21l7.91-91h26.83l14.79,61.58,16-61.58h27Z" transform="translate(-5.16)"/>
        <path d="M1028.86,245.26V171.13H998.59v74.13h-22v-91h74.3v91Z" transform="translate(-5.16)"/>
        <path d="M1146.25,229a10.45,10.45,0,0,0,5.25,3.87l-4.64,14.62a28.16,28.16,0,0,1-12.64-3.78,19.34,19.34,0,0,1-7.48-9.46,29.16,29.16,0,0,1-11.61,10.23,35.42,35.42,0,0,1-15.57,3.35q-13.59,0-21.5-7.74t-7.91-20.3q0-14.79,10.75-22.62t30.7-7.83h11.35V184.2q0-8.77-4-12.3t-13-3.53q-10,0-24.08,4.82l-5.16-15a91.93,91.93,0,0,1,33-6.54q34.91,0,34.92,31.3v38.18Q1144.62,226.52,1146.25,229Zm-23.31-8.34v-18.4h-9.12q-21.33,0-21.33,15.82,0,6.54,3.27,10.15t9.63,3.61Q1116.58,231.85,1122.94,220.67Z" transform="translate(-5.16)"/>
      </g>
      <g class="cls-3">
        <path d="M238.86,297.19l-1,5.9H217v43.7H210.2V297.19Z" transform="translate(-5.16)"/>
        <path d="M265.57,341.36a4.81,4.81,0,0,0,2.38,1.69l-1.51,4.61a10.13,10.13,0,0,1-4.75-1.66,7.57,7.57,0,0,1-2.66-4q-3.82,5.69-11.3,5.69-5.62,0-8.86-3.17a11.06,11.06,0,0,1-3.24-8.28,10.88,10.88,0,0,1,4.36-9.29q4.36-3.24,12.35-3.24h5.83v-2.81q0-4-1.94-5.76t-6-1.73a33.44,33.44,0,0,0-10.22,2l-1.66-4.82a38.2,38.2,0,0,1,13.1-2.59q6.7,0,10,3.28t3.31,9.32v17.35A5.94,5.94,0,0,0,265.57,341.36Zm-7.42-4.57v-8.71h-5q-10.51,0-10.51,7.78a7.11,7.11,0,0,0,1.66,5.11,6.47,6.47,0,0,0,4.9,1.73Q254.92,342.7,258.16,336.79Z" transform="translate(-5.16)"/>
        <path d="M306.18,308.86V346.8h-6.62V314.26H287.82l-1.08,12.67a76.63,76.63,0,0,1-1.62,11.52,12.47,12.47,0,0,1-3,5.87,15,15,0,0,1-6.23,3.35l-1.66-5.26a7.09,7.09,0,0,0,3.46-2.23,10.17,10.17,0,0,0,1.51-4.18q.5-2.81,1.08-9.79l1.51-17.35Z" transform="translate(-5.16)"/>
        <path d="M348.37,330.1H324.18q.43,6.27,3.17,9.22a9.18,9.18,0,0,0,7.06,3,15.38,15.38,0,0,0,5-.79,20.3,20.3,0,0,0,4.82-2.52l2.88,4a21,21,0,0,1-13.25,4.75q-7.92,0-12.35-5.18t-4.43-14.26A27,27,0,0,1,319,317.75a16.44,16.44,0,0,1,5.47-7.16,13.88,13.88,0,0,1,8.39-2.59q7.56,0,11.59,5t4,13.75Q348.51,328.37,348.37,330.1ZM342,324.77q0-5.61-2.23-8.57t-6.7-3q-8.14,0-8.86,12H342Z" transform="translate(-5.16)"/>
        <path d="M387.18,313.18q3.38,5.18,3.38,14.62,0,8.93-3.89,14.4a12.71,12.71,0,0,1-11,5.47,12.23,12.23,0,0,1-9.94-4.32v18l-6.62.79V308.86h5.69l.5,5.11a14.53,14.53,0,0,1,5-4.43,13.16,13.16,0,0,1,6.19-1.55Q383.79,308,387.18,313.18Zm-3.74,14.62q0-14.54-8.57-14.54a8.56,8.56,0,0,0-5.11,1.66,16.26,16.26,0,0,0-4,4.25v18.5a10,10,0,0,0,3.6,3.42,9.69,9.69,0,0,0,4.75,1.19Q383.43,342.26,383.43,327.79Z" transform="translate(-5.16)"/>
        <path d="M430.38,330.1H406.19q.43,6.27,3.17,9.22a9.18,9.18,0,0,0,7.06,3,15.38,15.38,0,0,0,5-.79,20.3,20.3,0,0,0,4.82-2.52l2.88,4a21,21,0,0,1-13.25,4.75q-7.92,0-12.35-5.18t-4.43-14.26A27,27,0,0,1,401,317.75a16.44,16.44,0,0,1,5.47-7.16A13.88,13.88,0,0,1,414.9,308q7.56,0,11.59,5t4,13.75Q430.52,328.37,430.38,330.1ZM424,324.77q0-5.61-2.23-8.57t-6.7-3q-8.14,0-8.86,12H424Z" transform="translate(-5.16)"/>
        <path d="M466.38,308.86V346.8h-6.62V332.26h-8.28l-8,14.54h-7.42l9.07-16.06q-6.7-3.17-6.7-10.3a10.06,10.06,0,0,1,4-8.6q4-3,11.3-3Zm-6.62,18.36V314h-6.12q-4.1,0-6.16,1.55a5.78,5.78,0,0,0-2.05,4.93q0,3.6,1.91,5.18t6.16,1.58Z" transform="translate(-5.16)"/>
      </g>
      <g class="cls-3">
        <path d="M633.08,299.48a22.49,22.49,0,0,1,6.23,3.74l-3.74,4.39a15,15,0,0,0-9.58-3.67,12.12,12.12,0,0,0-10,4.75q-3.78,4.75-3.78,15.26,0,10.22,3.74,15.08a11.92,11.92,0,0,0,9.94,4.86,13.29,13.29,0,0,0,5.54-1.08,29.12,29.12,0,0,0,5-3l3.38,4.32a18.46,18.46,0,0,1-5.9,4,20.41,20.41,0,0,1-8.28,1.58,19,19,0,0,1-18.11-11.77A33.54,33.54,0,0,1,605,324,32.4,32.4,0,0,1,607.7,310a20.18,20.18,0,0,1,7.42-8.75,19.16,19.16,0,0,1,10.44-3A21.49,21.49,0,0,1,633.08,299.48Z" transform="translate(-5.16)"/>
        <path d="M676.75,337.14q0,6-4.36,8.82t-11.63,2.84H647.08V311.36A62.53,62.53,0,0,1,659.54,310q7.06,0,11.16,2.66a8.57,8.57,0,0,1,4.1,7.63,7.25,7.25,0,0,1-1.94,5.26,10.11,10.11,0,0,1-5.76,2.66Q676.75,329.14,676.75,337.14Zm-23-21.6v10.73h7.13a9.29,9.29,0,0,0,5.33-1.3q1.87-1.29,1.87-4.39a4.54,4.54,0,0,0-2.09-4.18q-2.09-1.3-6.34-1.3A39.73,39.73,0,0,0,653.71,315.54Zm13.68,26.64q2.38-1.44,2.38-5.18a5,5,0,0,0-2-4.46q-2-1.37-6.84-1.37h-7.2v12.46h7.06A12.79,12.79,0,0,0,667.39,342.18Z" transform="translate(-5.16)"/>
        <path d="M715.92,332.1H691.72q.43,6.27,3.17,9.22a9.18,9.18,0,0,0,7.06,3,15.38,15.38,0,0,0,5-.79,20.3,20.3,0,0,0,4.82-2.52l2.88,4a21,21,0,0,1-13.25,4.75q-7.92,0-12.35-5.18t-4.43-14.26a27,27,0,0,1,1.91-10.48,16.44,16.44,0,0,1,5.47-7.16,13.88,13.88,0,0,1,8.39-2.59q7.56,0,11.59,5t4,13.75Q716.06,330.37,715.92,332.1Zm-6.41-5.33q0-5.61-2.23-8.57t-6.7-3q-8.14,0-8.86,12h17.78Z" transform="translate(-5.16)"/>
        <path d="M750.48,310.86l-.79,5.4H737.52V348.8h-6.62V316.26H718.36v-5.4Z" transform="translate(-5.16)"/>
        <path d="M780.79,343.36a4.81,4.81,0,0,0,2.38,1.69l-1.51,4.61A10.13,10.13,0,0,1,776.9,348a7.57,7.57,0,0,1-2.66-4q-3.82,5.69-11.3,5.69-5.62,0-8.86-3.17a11.06,11.06,0,0,1-3.24-8.28,10.88,10.88,0,0,1,4.36-9.29q4.36-3.24,12.35-3.24h5.83v-2.81q0-4-1.94-5.76t-6-1.73a33.44,33.44,0,0,0-10.22,2l-1.66-4.82a38.2,38.2,0,0,1,13.1-2.59q6.7,0,10,3.28t3.31,9.32v17.35A5.94,5.94,0,0,0,780.79,343.36Zm-7.42-4.57v-8.71h-5q-10.51,0-10.51,7.78a7.11,7.11,0,0,0,1.66,5.11,6.47,6.47,0,0,0,4.9,1.73Q770.13,344.7,773.37,338.79Z" transform="translate(-5.16)"/>
      </g>
      <path class="cls-2" d="M622.29,52l-.1-.4-.3.1L551.29.5l-.1-.4-.3.1-.2-.2-.2.3-11.1,4-.1-.1-.4.3L525,9.5h-.5v.2l-.7.3h-.5v.2l-4,1.4-.4-.1v.3l-3.7,1.3-.4-.1-.1.3-.3.1.1.4-22.2,84.3-.3.1.1.4-.1.4.3.1.1.3.4-.1.4.1.1-.3,11.1-4,.4.1v-.3l15.3-5.5h.5v-.2l3.6-1.3h.5v-.2l30.5-10.9.5,1.3a17.05,17.05,0,0,1,4.3-2.9l-.1-.2,23.2-8.3.1.1.4-.3,38.2-13.6.2.2.2-.3.4-.1-.1-.3.2-.2Z" transform="translate(-5.16)"/>
    </g>
  </g>
  <g id="Слой_2" data-name="Слой 2">
    <path class="cls-2" d="M550.19,400.1l15.4-13.1h-49.5l15.4,13.2h0l.6,1h0c8,10.3,15.4,2.3,17.4,0Z" transform="translate(-5.16)"/>
    <path class="cls-2" d="M575.19,365.1c0,2.3-2.3,4.2-5.1,4.2h-58.8c-2.9,0-5.1-1.9-5.1-4.2v-1.6c0-2.3,2.3-4.2,5.1-4.2h58.8c2.9,0,5.1,1.9,5.1,4.2Z" transform="translate(-5.16)"/>
    <path class="cls-2" d="M575.19,378.6c0,2.3-2.3,4.2-5.1,4.2h-58.8c-2.9,0-5.1-1.9-5.1-4.2V377c0-2.3,2.3-4.2,5.1-4.2h58.8c2.9,0,5.1,1.9,5.1,4.2Z" transform="translate(-5.16)"/>
    <path class="cls-2" d="M575.19,348.1c0,3.5-2.3,6.8-5.1,6.8h-58.8c-2.9,0-5.1-2.9-5.1-6.8v-2.6c0-3.5,2.3-6.8,5.1-6.8h58.8c2.9,0,5.1,2.9,5.1,6.8Z" transform="translate(-5.16)"/>
  </g>
</svg>
