<svg id="Слой_1" data-name="Слой 1" xmlns="http://www.w3.org/2000/svg" width="153" height="77" viewBox="0 0 832.1 420.21">
  <defs>
    <style>
      .cls-1 {
        fill: #999;
      }

      .cls-2 {
        isolation: isolate;
      }
    </style>
  </defs>
  <title>logo_f</title>
  <g id="_лой_1" data-name="—лой_1">
    <g>
      <g>
        <path class="cls-1" d="M356.8,331.2a10.44,10.44,0,0,1,2.5,0,5.85,5.85,0,0,1,1.3.2h3a33.13,33.13,0,0,0,5.6-.6c4-1.3,8-3.1,12.1-4.6,2.1-.8,4.3-1.6,6.4-2.2a19.21,19.21,0,0,1,6.1-.9c.5.1,1.1.1,1.6.2a7.72,7.72,0,0,1,1.5.2,28.64,28.64,0,0,1,2.8.7h.1a28.7,28.7,0,0,1,10.3,4.6c1.2.8,2.3,1.7,3.4,2.6a15.83,15.83,0,0,0-1.3-1.3,35.78,35.78,0,0,0-6.7-5.1,30.27,30.27,0,0,0-5.1-2.5,26.37,26.37,0,0,0-3-1,9.36,9.36,0,0,0-1.6-.4,8.75,8.75,0,0,1-1.6-.2,20.39,20.39,0,0,0-7,.8c-2.2.6-4.4,1.4-6.6,2.2-4.3,1.7-8.5,3.6-12.5,5-1,.3-1.9.6-2.9.8a7.84,7.84,0,0,1-1.4.2h-.9l-.4-.1c-.4-.1-.9-.2-1.4-.3a7.72,7.72,0,0,0-1.5-.2,9.25,9.25,0,0,0-2.9.2,31.1,31.1,0,0,0-4.6,1.5c-1.3.5-2.5,1-3.4,1.3-1.9.7-3,1-3,1a.81.81,0,0,1,.7.2c.5-.1,1.3-.2,2.3-.4s2.2-.5,3.6-.9A29.71,29.71,0,0,1,356.8,331.2Z"/>
        <path class="cls-1" d="M464.8,259.9c-.9-6.7.2-21.9.2-27.8,0-7.2-7-29.7-7-29.7,5.8-22.2-5-67.3-8.8-76.2s-15.4-7.4-16.8-7.4-15.8-5.4-18.4-5.4-4.5-12.9-2.2-12c4.2,1.7,9.1-15.8,9.6-28.7.3-9.1-6.6-17.1-24.1-20.1a8.12,8.12,0,0,0-2.1-3.2c-9.3-8.9-22.4-.4-24.5,9.4-1.3,6,1.3,13.4,5.7,17.8,1,6.4,3.9,12.8,8.8,17.1,3,2.7-1.5,15.7-1.5,15.7s-5.4,1.4-8,1.2-14.6-1.8-19.4,0c-.2.1-.5.2-.7.3-16.6,4.6-76.5,28.9-82.6,45.6-6.4,17.6,51.6,42.5,52.6,46A74,74,0,0,0,312,220.6c-7,13.4-7.5,28.6-3.6,43,4.8,17.8,14.9,34,27.1,48.5,4.3,7.7,7.6,14.1,8,16.8,1.2,8.3-.2,2.3,10.7,3.3,2.9-1.1,6.4-.7,9.4-.7a29.84,29.84,0,0,0,10.2-2c6.4-2.4,11.8-5.3,18.8-5.7a26.6,26.6,0,0,1,17.6,5.1c2.6,1.8,4.8,3.9,7.2,5.5,3.3-3.3,9.1-20.6,13.8-36.5,8-17,14.1-35.3,14.7-53.8,7.8,14.8,6.3,24.3,6.6,26.1,1.8,10.2,5.1,16,6.7,14.4s-1.8-17.3,2.8-6.2c.8,1.9-.2,5.1-.6,6.9-.6,3.2-2.8,8.3-2.1,9.8s7-4.4,8.1-7.3a47.1,47.1,0,0,0,2.6-13.6C470,272.6,466.4,265.5,464.8,259.9Zm-132-63.3c-4.2-7.2-22.6-31.1-32.3-34.1,0,0,28.8-9.2,47-17.6,1.5,20.7,12.1,42.4,12.1,42.4C351.8,187.6,339.6,191.6,332.8,196.6Zm101.9,9.5c-1.4-1.3-20.2-12.8-19.1-13.4C418.2,191.3,434,170,434,170s5.8,30.8,5,37.4a16,16,0,0,0,.3,4A38.87,38.87,0,0,0,434.7,206.1Z"/>
      </g>
      <g class="cls-2">
        <path class="cls-1" d="M85.85,307.77q-10.25,9-28.38,9.72v9.84H38.63v-9.84q-18.25-.83-28.44-9.72T0,281.58q0-17.78,10.25-26.78t28.38-9.72V236H57.47v9.13q18.25.83,28.44,9.72T96.11,281Q96.11,298.76,85.85,307.77ZM24.53,299q4.74,5.81,14.93,6.52V257.05q-10.43.83-15,6.7t-4.62,17.83Q19.79,293.2,24.53,299Zm47.16-.18Q76.32,293,76.32,281q0-11.61-4.74-17.42t-14.93-6.52v48.47Q67.07,304.69,71.69,298.82Z"/>
        <path class="cls-1" d="M159.15,266.41q5.81,8.77,5.81,24.53a46.91,46.91,0,0,1-3,17.36,27.13,27.13,0,0,1-8.71,12A21.32,21.32,0,0,1,140,324.6q-9.48,0-15.29-6.52v28.8l-18.72,2V259.66h16.47l.95,7a23.19,23.19,0,0,1,8.41-6.81,22.92,22.92,0,0,1,9.72-2.19Q153.34,257.65,159.15,266.41Zm-13.63,24.77q0-11.14-2.49-15.46a8.08,8.08,0,0,0-7.47-4.33,10.44,10.44,0,0,0-6,1.9,17,17,0,0,0-4.92,5.45v26.54q3.79,5.57,9.6,5.57Q145.52,310.85,145.52,291.18Z"/>
        <path class="cls-1" d="M226.52,309.55a6.08,6.08,0,0,0,3.26,2.49l-3.91,12.21a23.09,23.09,0,0,1-9.48-2.55,13.6,13.6,0,0,1-5.69-6.58q-6.16,9.48-19,9.48-9.36,0-14.93-5.45t-5.57-14.22q0-10.31,7.58-15.76t21.92-5.45h6.4V281q0-5.57-2.37-7.64t-8.29-2.07a38.52,38.52,0,0,0-7.47.89,76.82,76.82,0,0,0-9,2.43l-4.27-12.32a72.29,72.29,0,0,1,12.15-3.44,62.08,62.08,0,0,1,11.55-1.18q13.51,0,19.79,5.57t6.28,16.71v24.41A10.37,10.37,0,0,0,226.52,309.55Zm-19.37-4.38V294h-4.62q-6.4,0-9.54,2.25t-3.14,7a8.21,8.21,0,0,0,2,5.87,7,7,0,0,0,5.39,2.07Q203.58,311.21,207.14,305.16Z"/>
        <path class="cls-1" d="M273.38,322.7q-3.79,12.21-12.38,18.78t-23,7.41l-2-13.15q9-1.19,13.33-4t6.93-9.12h-6.4l-19.2-62.92h19.91l11.26,51,12.32-51h19.32Z"/>
      </g>
      <g class="cls-2">
        <path class="cls-1" d="M549.24,240.46v82.12H529.81V255.16H512.74L509.66,283q-1.66,14.1-4.21,22.28t-7.52,12.8q-5,4.62-13.87,6.52L479.44,311a13.74,13.74,0,0,0,6.4-4.62,21.11,21.11,0,0,0,3.2-8q1.07-5,2.37-16.29l5-41.59Z"/>
        <path class="cls-1" d="M615.19,309.55a6.08,6.08,0,0,0,3.26,2.49l-3.91,12.21a23.09,23.09,0,0,1-9.48-2.55,13.6,13.6,0,0,1-5.69-6.58q-6.16,9.48-19,9.48-9.36,0-14.93-5.45t-5.57-14.22q0-10.31,7.58-15.76t21.92-5.45h6.4V281q0-5.57-2.37-7.64t-8.29-2.07a38.52,38.52,0,0,0-7.47.89,76.82,76.82,0,0,0-9,2.43l-4.27-12.32a72.29,72.29,0,0,1,12.15-3.44,62.08,62.08,0,0,1,11.55-1.18q13.51,0,19.79,5.57t6.28,16.71v24.41A10.37,10.37,0,0,0,615.19,309.55Zm-19.37-4.38V294h-4.62q-6.4,0-9.54,2.25t-3.14,7a8.21,8.21,0,0,0,2,5.87,7,7,0,0,0,5.39,2.07Q592.26,311.21,595.81,305.16Z"/>
        <path class="cls-1" d="M698,322.58H680.18l-1.42-22.51q-.24-5.93-.24-8.53,0-5.81.59-15.52l-10.19,40.17H653.4l-9.83-40.05q.59,6.16.59,14.1,0,3.2-.24,9.84l-1.07,22.51H625.2l5.33-62.92h22l8.65,40.53,8.89-40.53h22.4Z"/>
        <path class="cls-1" d="M744.41,322.58V273.52H727.47v49.06H708.74V259.66h54.39v62.92Z"/>
        <path class="cls-1" d="M828.84,309.55A6.08,6.08,0,0,0,832.1,312l-3.91,12.21a23.09,23.09,0,0,1-9.48-2.55,13.6,13.6,0,0,1-5.69-6.58q-6.16,9.48-19,9.48-9.36,0-14.93-5.45t-5.57-14.22q0-10.31,7.58-15.76t21.92-5.45h6.4V281q0-5.57-2.37-7.64t-8.29-2.07a38.52,38.52,0,0,0-7.47.89,76.82,76.82,0,0,0-9,2.43l-4.27-12.32a72.29,72.29,0,0,1,12.15-3.44,62.08,62.08,0,0,1,11.55-1.18q13.51,0,19.79,5.57t6.28,16.71v24.41A10.37,10.37,0,0,0,828.84,309.55Zm-19.37-4.38V294h-4.62q-6.4,0-9.54,2.25t-3.14,7a8.21,8.21,0,0,0,2,5.87,7,7,0,0,0,5.39,2.07Q805.91,311.21,809.47,305.16Z"/>
      </g>
      <g class="cls-2">
        <path class="cls-1" d="M53.55,354.79,52.26,364H33.53v40.33H21.81V354.79Z"/>
        <path class="cls-1" d="M81.69,396.47a3.67,3.67,0,0,0,2,1.5l-2.36,7.36a13.94,13.94,0,0,1-5.72-1.54,8.21,8.21,0,0,1-3.43-4q-3.72,5.72-11.44,5.72a12.32,12.32,0,0,1-9-3.29,11.47,11.47,0,0,1-3.36-8.58,11,11,0,0,1,4.58-9.51q4.57-3.29,13.23-3.29H70v-1.64q0-3.36-1.43-4.61t-5-1.25a23.25,23.25,0,0,0-4.5.54,46.53,46.53,0,0,0-5.43,1.47L51,367.95a43.63,43.63,0,0,1,7.33-2.07,37.5,37.5,0,0,1,7-.71q8.15,0,11.94,3.36t3.79,10.08v14.73A6.24,6.24,0,0,0,81.69,396.47ZM70,393.83v-6.72H67.21a9.92,9.92,0,0,0-5.76,1.36,4.84,4.84,0,0,0-1.89,4.22,5,5,0,0,0,1.18,3.54A4.25,4.25,0,0,0,64,397.47,6.65,6.65,0,0,0,70,393.83Z"/>
        <path class="cls-1" d="M122,366.37v38h-11.3V374.67h-7.22l-.71,8.08a90,90,0,0,1-1.82,12.48,12.75,12.75,0,0,1-3.61,6.47q-2.57,2.36-7.87,3.58L86.65,397A9.2,9.2,0,0,0,90,394.79,8.64,8.64,0,0,0,91.44,391a84.43,84.43,0,0,0,.93-8.83l1.14-15.8Z"/>
        <path class="cls-1" d="M163.73,388.68H140.2q.57,4.79,2.72,6.72a8.55,8.55,0,0,0,5.93,1.93,12.27,12.27,0,0,0,4.43-.82,22.84,22.84,0,0,0,4.65-2.54l4.65,6.29a23.19,23.19,0,0,1-14.8,5.29q-9.22,0-14.16-5.43t-4.93-14.58a25.09,25.09,0,0,1,2.07-10.4,16.36,16.36,0,0,1,15.66-10q8.22,0,12.87,5.15t4.65,14.3A33.28,33.28,0,0,1,163.73,388.68Zm-10.87-7.29q-.14-8.72-6.15-8.72a5.34,5.34,0,0,0-4.54,2.15q-1.61,2.14-2,7.08h12.66Z"/>
        <path class="cls-1" d="M202.41,370.45q3.5,5.29,3.5,14.8a28.33,28.33,0,0,1-1.82,10.47,16.38,16.38,0,0,1-5.26,7.22,12.86,12.86,0,0,1-8,2.61,11.75,11.75,0,0,1-9.22-3.93V419l-11.3,1.21V366.37h9.94l.57,4.22a14,14,0,0,1,5.08-4.11,13.83,13.83,0,0,1,5.86-1.32Q198.9,365.16,202.41,370.45Zm-8.22,14.94q0-6.72-1.5-9.33a4.88,4.88,0,0,0-4.5-2.61,6.3,6.3,0,0,0-3.61,1.14,10.29,10.29,0,0,0-3,3.29v16a6.8,6.8,0,0,0,5.79,3.36Q194.18,397.26,194.18,385.39Z"/>
        <path class="cls-1" d="M245.87,388.68H222.35q.57,4.79,2.72,6.72a8.55,8.55,0,0,0,5.93,1.93,12.27,12.27,0,0,0,4.43-.82,22.84,22.84,0,0,0,4.65-2.54l4.65,6.29a23.19,23.19,0,0,1-14.8,5.29q-9.22,0-14.16-5.43t-4.93-14.58a25.09,25.09,0,0,1,2.07-10.4,16.36,16.36,0,0,1,15.66-10q8.22,0,12.87,5.15t4.65,14.3A33.28,33.28,0,0,1,245.87,388.68ZM235,381.39q-.14-8.72-6.15-8.72a5.34,5.34,0,0,0-4.54,2.15q-1.61,2.14-2,7.08H235Z"/>
        <path class="cls-1" d="M282.7,366.37v38H271.4V391.11h-4.86l-6.86,13.23H247.59l8.72-15.87a11.25,11.25,0,0,1-4.33-4,10.65,10.65,0,0,1-1.54-5.76,10.51,10.51,0,0,1,4.54-9.22q4.54-3.15,13.19-3.15Zm-11.3,18v-10.8h-3.29A6.79,6.79,0,0,0,263.5,375a4.88,4.88,0,0,0-1.54,3.86,5.55,5.55,0,0,0,1.47,4.11,6.07,6.07,0,0,0,4.47,1.47Z"/>
      </g>
      <g class="cls-2">
        <path class="cls-1" d="M515.42,355.71a23.13,23.13,0,0,1,6.78,4l-5.54,6.6a18.2,18.2,0,0,0-4.33-2.56,12.12,12.12,0,0,0-4.54-.85,9,9,0,0,0-7.85,4.19q-2.88,4.19-2.88,12.92t2.88,12.75a9.18,9.18,0,0,0,8,4.15,11.42,11.42,0,0,0,4.9-1,27.53,27.53,0,0,0,4.76-2.95l5.18,6.67a22.34,22.34,0,0,1-6.71,4.54,21,21,0,0,1-8.7,1.77,22.86,22.86,0,0,1-11.86-3,19.93,19.93,0,0,1-7.85-8.84,32.39,32.39,0,0,1-2.8-14.09,31,31,0,0,1,2.88-13.84,20.56,20.56,0,0,1,8-8.84,22.15,22.15,0,0,1,11.54-3A23.21,23.21,0,0,1,515.42,355.71Z"/>
        <path class="cls-1" d="M559.69,393.34a9.47,9.47,0,0,1-4.51,8.59q-4.51,2.84-12.32,2.84h-16V367.43a83.23,83.23,0,0,1,14.91-1.56q7.67,0,12,2.59a8.38,8.38,0,0,1,4.3,7.63,7.07,7.07,0,0,1-2,5.22,10.93,10.93,0,0,1-5.93,2.73Q559.69,385.18,559.69,393.34Zm-21.58-20.16v8.66h4a5.38,5.38,0,0,0,3.62-1.1,4.21,4.21,0,0,0,1.28-3.37q0-4.33-5.4-4.33A33.18,33.18,0,0,0,538.11,373.18Zm10.08,19.17a4.29,4.29,0,0,0-1.35-3.48,6.55,6.55,0,0,0-4.26-1.14h-4.47v9.66h4.4Q548.19,397.39,548.19,392.35Z"/>
        <path class="cls-1" d="M598.53,389.22H575.17q.57,4.76,2.7,6.67a8.49,8.49,0,0,0,5.89,1.92,12.19,12.19,0,0,0,4.4-.82,22.64,22.64,0,0,0,4.61-2.52l4.62,6.25A23,23,0,0,1,582.7,406q-9.16,0-14.06-5.4t-4.9-14.48a24.92,24.92,0,0,1,2.06-10.33,16.25,16.25,0,0,1,15.55-9.91q8.16,0,12.78,5.11t4.62,14.2A33,33,0,0,1,598.53,389.22ZM587.74,382q-.14-8.66-6.11-8.66a5.31,5.31,0,0,0-4.51,2.13q-1.6,2.13-2,7h12.57Z"/>
        <path class="cls-1" d="M632.82,367.07l-1.35,8.31H621.25v29.39H610V375.38H599v-8.31Z"/>
        <path class="cls-1" d="M664.52,397a3.65,3.65,0,0,0,2,1.49l-2.34,7.31a13.83,13.83,0,0,1-5.68-1.53A8.15,8.15,0,0,1,655,400.3Q651.35,406,643.68,406a12.24,12.24,0,0,1-8.95-3.27,11.39,11.39,0,0,1-3.34-8.52,10.91,10.91,0,0,1,4.54-9.44q4.54-3.27,13.14-3.27h3.83v-1.63q0-3.34-1.42-4.58t-5-1.24a23.06,23.06,0,0,0-4.47.53,46.07,46.07,0,0,0-5.4,1.46l-2.56-7.38a43.42,43.42,0,0,1,7.28-2.06,37.3,37.3,0,0,1,6.92-.71q8.09,0,11.86,3.34t3.76,10v14.63A6.2,6.2,0,0,0,664.52,397Zm-11.61-2.63v-6.67h-2.77a9.85,9.85,0,0,0-5.72,1.35,4.81,4.81,0,0,0-1.88,4.19,4.93,4.93,0,0,0,1.17,3.51A4.22,4.22,0,0,0,647,398,6.61,6.61,0,0,0,652.92,394.34Z"/>
      </g>
      <path class="cls-1" d="M463.8,52l-.1-.4-.3.1L392.8.5l-.1-.4-.3.1-.2-.2-.2.3-11.1,4-.1-.1-.4.3-13.9,5H366v.2l-.7.3h-.5v.2l-4,1.4-.4-.1v.3l-3.7,1.3-.4-.1-.1.3-.3.1.1.4L333.8,98.1l-.3.1.1.4-.1.4.3.1.1.3.4-.1.4.1.1-.3,11.1-4,.4.1v-.3l15.3-5.5h.5v-.2l3.6-1.3h.5v-.2l30.5-10.9.5,1.3a17.05,17.05,0,0,1,4.3-2.9l-.1-.2,23.2-8.3.1.1.4-.3,38.2-13.6.2.2.2-.3.4-.1-.1-.3.2-.2Z"/>
    </g>
  </g>
  <g id="Слой_2" data-name="Слой 2">
    <path class="cls-1" d="M391.7,400.5l15.4-13.1H357.6L373,400.6h0l.6,1h0c8,10.3,15.4,2.3,17.4,0Z"/>
    <path class="cls-1" d="M416.7,365.5c0,2.3-2.3,4.2-5.1,4.2H352.8c-2.9,0-5.1-1.9-5.1-4.2v-1.6c0-2.3,2.3-4.2,5.1-4.2h58.8c2.9,0,5.1,1.9,5.1,4.2Z"/>
    <path class="cls-1" d="M416.7,379c0,2.3-2.3,4.2-5.1,4.2H352.8c-2.9,0-5.1-1.9-5.1-4.2v-1.6c0-2.3,2.3-4.2,5.1-4.2h58.8c2.9,0,5.1,1.9,5.1,4.2Z"/>
    <path class="cls-1" d="M416.7,348.5c0,3.5-2.3,6.8-5.1,6.8H352.8c-2.9,0-5.1-2.9-5.1-6.8v-2.6c0-3.5,2.3-6.8,5.1-6.8h58.8c2.9,0,5.1,2.9,5.1,6.8Z"/>
  </g>
</svg>
