<?xml version="1.0" encoding="utf-8"?>
<!-- Generator: Adobe Illustrator 20.0.0, SVG Export Plug-In . SVG Version: 6.00 Build 0)  -->
<svg version="1.1" id="_x2014_лой_x5F_1" xmlns="http://www.w3.org/2000/svg" xmlns:xlink="http://www.w3.org/1999/xlink"
	 x="0px" y="0px" width="230.8px" height="813.3px" viewBox="0 0 230.8 813.3" style="enable-background:new 0 0 230.8 813.3;"
	 xml:space="preserve">
<style type="text/css">
	.st0{fill:none;}
</style>
<g>
	<path id="SVGID_x5F_1_x5F_" class="st0" d="M142.6,300c-0.7,4.9,1.4,8.4,6.3,7.7c2.8-0.7,2.1-11.9-5.6-6.3"/>
	<text>	<textPath  xlink:href="#SVGID_x5F_1_x5F_" startOffset="70.703%">
	</textPath>
</text>
	<g>
		<path d="M107.5,261.5c-2.2,6-4.2,11.7-6,17c-0.9,2.7-1.7,5.2-2.7,7.6c-1,2.4-2,4.8-2.8,7.1c-0.8,2.3-1.4,4.6-1.7,6.8
			c-0.1,0.6-0.1,1.1-0.1,1.7c0,0.5,0,1,0,1.6c0,1.1,0.1,2.1,0.3,3c0.5,3.8,1.4,7,2.1,9.6c0.7,2.6,1.3,4.6,1.7,5.9
			c0.4,1.4,0.6,2.1,0.6,2.1s-0.1-0.7-0.4-2.1c-0.3-1.4-0.7-3.4-1.3-6c-0.5-2.6-1.2-5.8-1.5-9.6c-0.1-0.9-0.1-1.9-0.1-2.9
			c0-0.5,0-1,0.1-1.5c0.1-0.5,0.1-1,0.2-1.5c0.3-2,1-4.2,1.9-6.4c0.9-2.2,2-4.4,3-6.8c1.1-2.4,2.1-5,3.1-7.6
			c2-5.3,4.2-10.9,6.5-16.8c4.6-11.8,9.8-24.8,14.9-38.5c4-10.5,7.6-20.7,10.8-30.4c1.6-4.8,3.1-9.5,4.5-14
			c1.4-4.4,2.9-8.7,4.3-12.7c1.4-4,2.7-7.9,3.7-11.6c0.5-1.9,0.9-3.6,1.2-5.4c0.3-1.8,0.4-3.5,0.4-5.1c0-0.9,0-1.8,0-2.7
			c0.3-0.1,0.7-0.3,1.3-0.8l0,0l0.1-0.1c0.5-0.7,0.6-1.4,0.7-1.9c0-0.5,0-1-0.1-1.4c-0.1-0.8-0.4-1.5-0.6-2.2
			c-0.1-0.3-0.3-0.7-0.4-1c0.7-1.7,1.6-3.2,1.6-4.8l0,0l0,0c-0.2-0.9-0.6-1.6-1-2.2c0,0,0-0.1,0.1-0.1c1.4-2.8,2.1-4.6,2.1-4.6
			s-1.3,1.2-3.2,3.3c-0.4-0.5-0.8-1-1.1-1.4c-0.4-0.5-0.6-0.9-0.8-1.2c-0.1-0.3-0.2-0.4-0.2-0.4s0.1,0.2,0.2,0.5
			c0.1,0.3,0.3,0.7,0.7,1.3c0.3,0.4,0.6,0.9,1,1.5c0,0-0.1,0.1-0.1,0.1c-0.7,0.8-1.6,1.8-2.5,2.8c-0.1-0.1-0.2-0.2-0.3-0.3
			c-0.4-0.5-0.8-0.9-1.2-1.3c-0.4-0.4-0.8-0.8-1.5-1.2l-0.1,0l0,0c-0.8-0.3-1.7-0.3-2.4-0.2c-0.7,0.1-1.3,0.4-1.9,0.6
			c-1,0.5-1.8,1-2.5,1.5c-0.4-0.3-0.8-0.6-1.2-0.8c-1-0.7-2.3-1.4-3.3-1.7c-0.4-0.1-0.8-0.2-1.2-0.3l0.1-0.1
			c0.8-0.7,1.8-1.5,2.5-2.2c0.8-0.7,1.3-1.4,1.6-1.9c0.3-0.5,0.4-0.8,0.4-0.8s-0.3,0.1-0.8,0.3c-0.5,0.2-1.2,0.4-2.2,0.7
			c-0.9,0.3-2,0.5-3.3,1.2l-0.5,0.2l-0.1,0.1l0,0l-0.1,0l-0.1,0l-0.3,0.2c-0.3,0.2-0.6,0.4-0.9,0.7c-0.6,0.5-1.1,1-1.6,1.5
			c-0.5,0.5-0.9,1-1.3,1.4c-0.5-0.5-1.1-0.9-1.5-1.3c0-0.5,0-1.1-0.2-1.8c0-0.3-0.1-0.6-0.3-0.9c-0.1-0.3-0.3-0.6-0.5-0.9
			c-0.2-0.3-0.5-0.6-0.9-0.8c-0.3-0.2-0.7-0.4-1.1-0.5c-1.5-0.5-3-0.5-4.4-0.3c-0.7,0.1-1.4,0.2-2.2,0.4c-0.6,0.1-1.7,0.4-2.4,0.8
			c-0.7,0.3-1.4,0.8-2,1.2c-0.1,0-0.2,0-0.3,0c-0.2,0-0.5,0-0.8-0.1c-0.5,0-1,0-1.6,0.1c-0.3,0.1-0.6,0.1-0.9,0.3
			c-0.3,0.1-0.6,0.3-0.9,0.5l-0.4,0.3l-0.3,0.4c-0.2,0.3-0.4,0.5-0.6,0.8c-0.6,1.1-0.8,2.2-0.9,3.1c-0.2,1-0.3,1.9-0.4,2.8
			c0,0.4-0.1,0.7-0.2,1.1c-0.3,0.6-0.6,1.1-0.8,1.6c-0.2-0.4-0.4-0.9-0.6-1.3c-0.5-1.1-0.8-2-1.1-2.8c-0.6-1.6-1-2.4-1-2.4
			s0,0.5,0.1,1.3c-0.4-1.2-0.7-2.3-1.1-3.3c-1.4-4.5-2.5-8.2-3.2-10.7c-0.2-0.6-0.3-1.1-0.4-1.6c0.6-0.3,1.5-0.6,2.5-1.2
			c1.4-0.8,3.1-2.1,4.8-3.9c0.1,0.3,0.2,0.6,0.3,0.8c0.5,1.2,1.2,2.3,2,3.3c0.8,1,1.7,1.8,2.6,2.4c1.8,1.2,3.5,1.9,4.9,2.6
			c2.8,1.2,4.6,2,4.6,2s-0.3-0.4-0.9-1c-0.6-0.6-1.5-1.5-2.7-2.6c-1.2-1-2.6-2.2-3.9-3.4c-0.6-0.7-1.2-1.3-1.8-2.1
			c-0.5-0.8-1-1.6-1.4-2.6c-0.5-1.1-0.9-2.3-1.3-3.4l-1.3-3.7l-1.9,3.1c-1.9,3.1-3.7,5.6-5.2,7.4c-0.7,0.8-1.2,1.4-1.6,1.9
			c-0.1-0.3-0.2-0.6-0.2-0.9c-0.2-0.7-0.3-1-0.3-1s0,0.4,0.1,1.1c0,0.3,0.1,0.7,0.1,1.1c-0.4,0.4-0.6,0.6-0.6,0.6s0.2-0.1,0.6-0.2
			c0,0.5,0.1,1,0.2,1.5c0.3,2.7,1,6.4,2,11.1c1,4.7,2.3,10.2,4,16.2c1.7,6.1,3.7,12.7,5.8,19.5c1,3.5,2,6.8,3,10.1
			c1,3.3,2,6.4,3.1,9.4c2.1,5.9,4.1,11.2,6,15.6c1.9,4.4,3.6,7.8,4.8,10.2c0.6,1.2,1.1,2.1,1.5,2.7c0.3,0.6,0.5,0.9,0.5,0.9
			s-0.1-0.3-0.4-1c-0.3-0.7-0.6-1.6-1.1-2.9c-0.9-2.5-2.2-6.1-3.6-10.6c-1.4-4.5-3-9.9-4.8-15.9c-0.8-3-1.7-6.2-2.6-9.4
			c-0.4-1.6-0.9-3.3-1.4-5c-0.5-1.7-1-3.4-1.5-5.2c-2.1-6.9-4.3-13.5-6.3-19.4c-0.4-1-0.7-2.1-1-3.1l0.3-0.4c0,0.1,0.1,0.2,0.1,0.3
			c0.3,0.6,0.6,1,0.9,1.5l0.4,0.6l0.4,0.5c0.5,0.7,1,1.5,1.6,2.3c0.6,0.8,1.1,1.5,2,2.2c0.2,0.2,0.4,0.4,0.7,0.5
			c0.1,0.1,0.3,0.2,0.5,0.2l0.1,0.1l0.1,0l0,0l0.1,0l0.2,0c0.1,0,0.7,0.1,1,0.1c0.3,0,0.6,0,0.9-0.1c1.1-0.2,1.8-0.7,2.6-1.1
			c1.4-0.9,2.5-1.9,3.4-2.8c1.7-1.7,2.9-3.3,3.7-4.5c0,0.1,0.1,0.1,0.1,0.2c0.1,0.1,0.2,0.3,0.3,0.4l0.1,0.1l0,0l0.2,0.1l0.1,0.1
			c0,0.1,0.3,0.2,0.5,0.3c0.2,0.1,0.3,0.1,0.5,0.2c0.6,0.2,1.1,0.3,1.7,0.4c1.1,0.1,2.2,0.1,3.5-0.2c0.3,0.7,0.6,1.3,0.9,2
			c0.3,0.7,0.7,1.4,1.1,2c0.2,0.3,0.5,0.7,0.7,1l0.5,0.8c0.8,1.3,1.6,2.6,2.6,4c0.3,0.3,0.6,0.7,0.9,1c0.4,0.4,0.7,0.7,1.3,1
			c0.2,0.1,0.4,0.2,0.6,0.3c0.1,0.1,0.2,0.1,0.3,0.1l0.1,0l0,0l0.2,0l0,0l0,0l0,0l0.3,0c0.2,0,0.3,0,0.5,0c0.7,0,1.5-0.2,2.1-0.6
			c1.5-0.9,2-2.1,2.6-3c0.5-0.9,1-1.8,1.3-2.3c0.9-0.9,1.8-1.8,2.7-2.5l0.3-0.2l0.1-0.1l0,0c0,0,0,0,0.1,0c0.1,0,0,0,0,0
			c0.2-0.1,0.4-0.1,0.6-0.2c0,0.7-0.1,1.5-0.1,2.3c-0.1,1.6-0.2,3.2-0.6,4.8c-0.4,1.6-0.9,3.4-1.5,5.2c-1.1,3.6-2.5,7.3-4.1,11.3
			c-1.6,4-3.3,8.1-4.8,12.6c-1.5,4.5-3.1,9.1-4.8,13.9c-3.4,9.5-7.2,19.7-11.1,30.2C116.7,236.5,111.8,249.5,107.5,261.5z
			 M124.3,129.4C124.3,129.4,124.3,129.5,124.3,129.4C124.3,129.5,124.3,129.5,124.3,129.4C124.2,129.5,124.2,129.4,124.3,129.4z
			 M122.2,131.1c-0.3,0.8-0.6,2-0.7,3.6c0,0.6,0,1.3,0.3,2.1c-1,1-2.6,2.3-4.7,3.7c-1,0.7-2.2,1.4-3.4,1.9c-0.6,0.3-1.3,0.5-1.8,0.5
			c-0.1,0-0.2,0-0.4,0c-0.1,0,0.1,0-0.2-0.1l-0.1,0c0,0,0,0,0,0c0,0,0,0,0,0c-0.1,0-0.2-0.1-0.2-0.2c-0.4-0.4-0.9-1.1-1.3-1.8
			c-0.4-0.7-0.9-1.5-1.4-2.3l-0.4-0.6l-0.4-0.6c-0.2-0.4-0.4-0.7-0.6-1c-0.1-0.3-0.2-0.4-0.2-0.7c0-0.2,0-0.6,0.1-1
			c0.1-0.7,0.3-1.4,0.4-2.1c0.6-0.9,1.3-1.8,2-2.6l0.8,1.7c0.1,0.2,0.3,0.5,0.4,0.7c0.1,0.2,0.3,0.3,0.5,0.5
			c0.2,0.1,0.3,0.2,0.5,0.3l0.4,0.3c0.6,0.3,1.1,0.5,1.6,0.7c0.2,0.1,0.3,0.1,0.5,0.2c-0.1,0.1-0.3,0.1-0.4,0.2
			c-0.2,0.1-0.5,0.2-0.8,0.4c-0.3,0.1-0.6,0.4-1,0.7l-2.9,2.9l3.5-0.2c0.1,0,0.3,0.1,0.5,0.1c0.2,0.1,0.3,0.1,0.5,0.2
			c0,0.1-0.1,0.2-0.1,0.3l-0.7,2.1l1.7-0.4c1.3-0.3,2-1,2.5-1.5c0.5-0.6,0.9-1.1,1.2-1.4c0.6-0.8,1.1-1.1,1.1-1.1s-0.1,0-0.4,0.1
			c-0.3,0.1-0.7,0.2-1.1,0.4c-0.4,0.2-1,0.5-1.5,0.8l-0.4-0.4c0.2-0.1,0.4-0.1,0.5-0.2c0.5-0.2,1.1-0.4,1.9-1
			c0.2-0.1,0.4-0.4,0.6-0.7c0.1-0.1,0.2-0.5,0.3-0.8c0-0.1,0.1-0.3,0.1-0.4l0-0.1l0-0.1l0,0l0-0.3l0,0l0,0l0-0.1
			c0-0.2-0.1-0.4-0.2-0.6c-0.2-0.4-0.4-0.7-0.6-0.9c-0.1-0.1-0.2-0.2-0.4-0.3c0.3,0,0.5,0,0.8,0.1c0.9,0.1,1.6,0.3,2,0.4
			c0.2,0.1,0.4,0.2,0.5,0.2c0.1,0.1,0.2,0.1,0.2,0.1s0-0.1-0.1-0.2c-0.1-0.1-0.2-0.3-0.4-0.4c-0.4-0.4-1-0.9-1.8-1.3
			c-0.9-0.4-2-0.9-3.3-1.1c-1.3-0.3-2.8-0.5-4.5-0.3l-1.7,0.2c0.6-0.7,1.2-1.4,1.8-2.1c0.4-0.4,0.9-0.9,1.3-1.2c0,0,0,0,0.1,0
			c1.4,0.3,2.7,0.7,3.9,1.1c2.3,0.8,4.1,1.8,5.3,2.6c0.2,0.1,0.4,0.3,0.6,0.4C122.4,130.3,122.3,130.6,122.2,131.1z M122.4,129.3
			c-1-1.1-2.6-2.5-4.9-3.9c-0.6-0.4-1.3-0.7-2.1-1.1c0.2-0.1,0.4-0.1,0.6-0.2c0.6-0.2,1.2-0.4,1.8-0.5c1.2-0.3,2.3-0.5,3.1-0.4
			c0.2,0,0.4,0.1,0.5,0.1c0.1,0.1,0.3,0.1,0.4,0.3c0.1,0.1,0.3,0.2,0.4,0.4c0,0,0,0,0,0c-0.3-0.2-0.5-0.3-0.5-0.3s0.5,1.8,1.6,4.3
			c0.1,0.4,0.1,0.7,0.2,1c0,0.2,0.1,0.5,0.1,0.7c-0.1,0.1-0.3,0.1-0.4,0.2l-0.4,0.2C122.8,129.8,122.6,129.6,122.4,129.3z
			 M122.7,130.2C122.7,130.2,122.7,130.2,122.7,130.2L122.7,130.2C122.7,130.3,122.7,130.2,122.7,130.2z M128.3,134.5
			c0,0.2,0,0.3-0.1,0.4l-0.7,0.1l0.2,0.5c-0.6,0.2-1.4,0.4-2.1,0.4c-0.4,0-0.8,0-1.1,0c-0.1,0-0.2,0-0.2,0c0,0,0,0.1-0.1,0l-0.2-0.1
			l0,0l0,0c0,0,0.3,0.2,0.1,0.1l0,0l0,0l0,0c0,0-0.1,0-0.1-0.1c-0.3-0.2-0.7-0.9-0.8-1.5c-0.4-1.3-0.5-2.5-0.6-3.3
			c0-0.2,0-0.4-0.1-0.6l0.2,0.5c0.3,0.8,0.8,1.5,1.3,2c0.5,0.5,0.8,0.7,1,1.1c0.3,0.7,0.2,1.3,0.2,1.3c0,0,0.1-0.1,0.2-0.3
			c0.1-0.2,0.2-0.5,0.2-1.1c0-0.5-0.3-1.1-0.6-1.6c-0.1-0.2-0.2-0.4-0.2-0.7c0,0,0.1,0,0.1,0c0.4,0,0.8,0,1.2,0c0.7,0,1.5,0,2.2,0
			c0,0,0,0.1,0,0.1C128.5,132.6,128.4,133.6,128.3,134.5z M129.3,131.7C129.3,131.7,129.3,131.6,129.3,131.7
			C129.3,131.6,129.3,131.7,129.3,131.7c0.1,0,0.1,0,0.1,0C129.4,131.7,129.4,131.7,129.3,131.7z M151.7,128.2
			c0.3,0.6,0.6,1.2,0.7,1.9c-0.1,0.8-0.5,1.8-1,2.7c-0.2,0.3-0.4,0.7-0.6,1.1c-0.3-0.6-0.6-1.1-0.9-1.6c-0.1-0.1-0.2-0.2-0.2-0.4
			C150.5,130.5,151.2,129.3,151.7,128.2z M141.6,128.7c0.9-0.3,1.9-0.5,2.6-0.1c0.2,0.2,0.5,0.5,0.8,0.8c0.3,0.4,0.6,0.8,0.9,1.2
			c0.2,0.3,0.3,0.6,0.5,0.9c-0.7,0.8-1.5,1.6-2.4,2.4c-0.2-0.3-0.4-0.5-0.6-0.8c-1.2-1.4-2.4-2.6-3.7-3.6
			C140.3,129.3,140.9,129,141.6,128.7z M132.2,131.5c0-0.3-0.1-0.6-0.1-0.9c-0.1-0.3-0.1-0.7-0.5-1.3c-0.1-0.1-0.2-0.2-0.3-0.4
			l-0.2-0.2l-0.1-0.1l0,0c0.3,0.2-0.4-0.3-0.4-0.2l0,0l0,0l-0.3-0.1c-0.1,0-0.1,0-0.2,0c0,0,0,0,0,0c0.3-0.3,0.5-0.6,0.8-0.8
			c0.4,0.1,1.1,0.4,1.8,0.9c1,0.5,1.6,1.1,2.5,1.9c0.1,0.1,0.1,0.1,0.2,0.2c-0.6,0.3-1.1,0.6-1.6,0.8c-0.6,0.3-1.2,0.4-1.7,0.5
			C132.2,131.7,132.2,131.6,132.2,131.5z M132.2,134c0-0.6,0-1.2,0-1.8c0.5,0,1.2,0,1.9-0.2c0.7-0.2,1.4-0.4,2.2-0.8
			c1.1,1,2.1,2.1,3.2,3.3c-0.4-0.2-0.8-0.3-1.2-0.4c-0.9-0.2-1.7-0.3-2.4-0.4c-0.8-0.1-1.5-0.1-2.2,0
			C133.1,133.7,132.6,133.8,132.2,134z M139.2,136.9l-0.3,0c-0.7,0-1.6-0.3-2.6-0.5c-1-0.3-2-0.6-3-0.9c-0.2-0.1-0.4-0.1-0.6-0.2
			c0.1,0,0.2,0,0.3,0c0,0,0,0,0,0l0,0c0,0,0,0,0,0l0-0.5c0.2,0,0.3,0,0.5,0c0.6,0,1.3,0.1,1.9,0.3c0.7,0.1,1.4,0.3,2.1,0.6
			c0.7,0.3,1.4,0.7,1.6,1.1C139.2,136.9,139.2,136.9,139.2,136.9L139.2,136.9C139.2,136.9,139.2,136.9,139.2,136.9
			C139.2,136.9,139.2,136.9,139.2,136.9z M148.2,139.2c-0.3,0.1-0.7,0.1-1.1,0.3c-0.6,0.2-1,0.5-1.3,0.7c-1.3,0.9-2.3,1.9-3.3,2.9
			l-0.1,0.1l-0.1,0.1c-0.8,1-1.2,1.9-1.7,2.7c-0.4,0.8-1,1.5-1.3,1.6c-0.1,0.1-0.1,0-0.2,0.1c0,0,0,0-0.1,0l0,0
			c-0.1,0-0.2-0.1-0.2-0.1c0,0,0.1,0,0.1,0c0,0-0.3-0.2-0.5-0.4c-0.2-0.2-0.4-0.4-0.6-0.7c-0.9-1-1.7-2.3-2.5-3.5
			c-0.2-0.3-0.4-0.6-0.7-1c-0.2-0.3-0.4-0.5-0.6-0.8c-0.4-0.5-0.7-1.1-1-1.7c-0.2-0.4-0.4-0.7-0.6-1.1c0.1,0,0.1,0,0.2,0
			c1,0.2,2.1,0.5,3.1,0.7c1.1,0.2,2.1,0.4,3.3,0.3c0.3,0,0.7-0.1,1.1-0.3c0.2-0.1,0.4-0.2,0.6-0.5c0.2-0.2,0.4-0.6,0.4-0.6l0.1-0.2
			c0-0.1,0.1-0.2,0.1-0.4c0-0.2,0-0.4,0-0.6c0.2,0.3,0.5,0.6,0.7,0.9l1.2,1.8l1.5-1.3c1.3-1.1,2.3-2.3,3.1-3.5
			c0.3,0.7,0.6,1.4,0.8,2.2c0.2,0.6,0.3,1.1,0.4,1.6c0,0.2,0,0.4,0,0.5c0,0,0,0-0.1,0C148.8,139.1,148.5,139.1,148.2,139.2z"/>
		<path d="M200.1,322.7c0-0.7,0-1.5,0.1-2.3c0-0.8,0-1.6,0-2.4c0-1.7,0.1-3.5,0.3-5.3c0.3-3.7,0.9-7.9,1.7-12.3
			c0.2-0.5,0.6-1.2,0.9-1.8c0.3-0.7,0.7-1.5,1-2.5c0-0.1,0.1-0.3,0.1-0.4l0-0.2c0-0.1,0-0.2,0-0.4c0-0.3,0-0.3-0.1-0.5l0-0.2l0,0
			l0,0l0-0.1l-0.1-0.2c-0.1-0.1-0.1-0.2-0.2-0.3c-0.5-0.6-0.9-0.9-1.3-1.2c-0.4-0.3-0.8-0.5-1.3-0.7l-0.4-0.2c0-0.2,0.1-0.5,0.1-0.6
			c0.1-0.3,0.3-0.5,0.8-0.8c0.5-0.3,1.2-0.6,2-1.3c0.4-0.3,0.8-0.8,1.1-1.3c0.1-0.3,0.3-0.5,0.4-0.8c0.1-0.3,0.2-0.5,0.2-0.8l0,0.2
			c0.2-0.9,0.5-2,0-3.4c-0.2-0.7-0.7-1.2-1.2-1.7c-0.2-0.2-0.5-0.4-0.7-0.5c-0.2-0.1-0.5-0.3-0.7-0.4c-1-0.5-1.9-0.8-2.7-1.1
			c-0.8-0.3-1.6-0.6-2.2-1c-0.4-0.4-0.9-0.8-1.3-1.2c-0.5-0.4-0.8-0.8-0.9-1.1c-0.1-0.3-0.2-0.8-0.3-1.5c0-0.7-0.1-1.5-0.1-2.2
			c0-5,1-11.1,0.3-17.6c0-0.5-0.1-1-0.2-1.5l0-0.4l0-0.1l0,0l0-0.1l0-0.2l-0.2-0.8c-0.3-1-0.7-2-1.1-3c-0.9-1.9-2.1-3.5-3.2-5
			c-2.3-2.9-4.4-5.4-4.9-7.9c-0.2-2.2,0-4.5,0.5-6.7c0.4-2.3,1.1-4.5,1.7-6.7c0.7-2.2,1.3-4.4,2-6.6l0.2-0.8l0.1-0.4l0-0.1l0-0.2
			l0-0.2c0.1-0.5,0.2-1.1,0.3-1.6c0.2-1.1,0.4-2.1,0.7-3.1c1.7-8.2,3.5-15.4,5.4-21.2c0.9-2.9,1.9-5.5,2.8-7.7
			c0.9-2.2,1.8-4.1,2.6-5.6c0.4-0.7,0.7-1.4,1.1-2c0.3-0.6,0.6-1,0.8-1.4c0.5-0.8,0.7-1.1,0.7-1.1s-0.3,0.4-0.8,1.1
			c-0.3,0.4-0.6,0.8-0.9,1.3c-0.4,0.5-0.8,1.2-1.2,1.9c-0.9,1.4-1.9,3.3-3,5.4c-1.1,2.2-2.2,4.7-3.3,7.6c-2.3,5.8-4.5,12.9-6.6,21.1
			c-0.3,1-0.5,2.1-0.8,3.1c-0.1,0.5-0.3,1.1-0.4,1.6l0,0.2c0,0,0,0,0,0l0,0l0,0.1l-0.1,0.4l-0.2,0.8c-0.7,2.1-1.4,4.2-2.2,6.4
			c-0.7,2.2-1.4,4.5-2,7c-0.5,2.4-0.9,5.1-0.7,7.9l0,0l0,0.1c0.3,1.9,1.2,3.7,2.2,5.3c1,1.6,2.2,3,3.2,4.4c1.1,1.4,2.1,2.8,2.8,4.3
			c0.4,0.8,0.7,1.5,0.9,2.3l0.1,0.6l0,0.1l0,0.1l0,0l0,0l0,0.3c0.1,0.5,0.1,1,0.2,1.4c0.6,5.8-0.2,11.8-0.2,17.2l0,0.1l0,0.1
			c0.1,0.8,0.1,1.6,0.2,2.3c0.1,0.8,0.1,1.7,0.7,2.8c0.5,1,1.2,1.6,1.8,2.1c0.6,0.5,1.1,0.9,1.6,1.3l0.1,0.1l0,0
			c2,1.3,4.1,1.6,5.4,2.3c0.7,0.3,1,0.6,1.1,0.8c0.1,0.2,0.1,0.7,0,1.3l0,0.2c-0.1,0.5-0.2,0.8-0.6,1.1c-0.4,0.3-1,0.7-1.7,1.2
			c-0.7,0.5-1.5,1.4-1.8,2.3c-0.3,1-0.3,1.7-0.2,2.5l0,0.5l0.4,0.3c0.3,0.3,0.5,0.3,0.6,0.4l0.3,0.2l0.6,0.3
			c0.4,0.2,0.8,0.4,1.1,0.6c0.3,0.2,0.5,0.4,0.6,0.4l0,0c0,0.1,0,0.1,0,0.2c-0.1,0.6-0.4,1.4-0.7,2.1c-0.3,0.7-0.6,1.3-0.9,2.1
			l0,0.1l0,0.1c-0.6,4.6-1,8.9-1,12.8c0,1.9,0,3.7,0.1,5.4c0,0.9,0.1,1.7,0.2,2.5c0,0.8,0.1,1.5,0.1,2.2c0.2,2.9,0.2,5.3,0,7.2
			c-0.2,1.9-0.5,3.2-0.7,4l0,0l0,0c0.1,0.2,0.1,0.3,0.2,0.4c0,0.1,0.2,0.1,0.2,0c0,0,0.1-0.1,0.1-0.1c0.1-0.2,0.2-0.3,0.3-0.4
			c0.2-0.2,0.3-0.2,0.3-0.2c0,0-0.1,0-0.3,0.2c-0.1,0.1-0.2,0.2-0.3,0.4c-0.1,0.1-0.2,0.2-0.2,0.1c-0.1-0.1-0.1-0.2-0.2-0.4
			c0.3-0.8,0.7-2.1,1-4C199.9,328.1,200,325.6,200.1,322.7z"/>
		<path d="M218.6,294.5c-1.9,1-4,1.9-6.3,2.9c-1.1,0.5-2.3,1-3.4,1.4c-1.2,0.5-2.3,1-3.7,1.8l-2.2,1.3l2.1,1.6
			c2.9,2.3,6.4,4.1,9.3,6.5c1,0.8,1.8,1.6,2.6,2.5c0.7,0.9,1.3,1.9,1.8,2.9c0.1,0.3,0.2,0.5,0.3,0.8l0.1,0.4l0.1,0.5
			c0,0.1,0.1,0.3,0.1,0.4l0.1,0.3c0,0.2,0.1,0.5,0.1,0.7c0,0.9-0.1,1.3-0.7,1.8c-0.6,0.5-1.6,0.9-2.6,1.2c-1,0.3-2.1,0.5-3.2,0.8
			c-2.2,0.5-4.4,1-6.4,2.2l-2,1.2l1.9,1.2c1.8,1.1,3.4,2.6,4.7,4.1c1.3,1.5,2.4,3.1,3.3,4.6c1.6,2.8,2.2,5.5,1.9,7.5
			c-1.5-0.7-2.5-1.6-2.9-2.3c-0.3-0.4-0.4-0.7-0.5-1c-0.1-0.2-0.1-0.4-0.1-0.4s0,0.1,0.1,0.4c0.1,0.2,0.2,0.6,0.4,1.1
			c0.4,0.9,1.5,2.1,3.2,3.1l0.4,0.2l0.2-0.4c0.8-2.2,0.5-5.5-1.1-8.9c-0.8-1.7-1.8-3.5-3.1-5.2c-0.9-1.2-1.8-2.3-3-3.4
			c1.1-0.3,2.3-0.5,3.6-0.8c1.1-0.2,2.2-0.4,3.5-0.7c1.2-0.3,2.5-0.7,3.9-1.6c0.7-0.5,1.3-1.2,1.7-2c0.4-0.9,0.5-1.8,0.5-2.6
			c0-0.4-0.1-0.8-0.1-1.2l-0.1-0.6c0-0.2-0.1-0.3-0.1-0.5l-0.1-0.5l-0.2-0.5c-0.1-0.3-0.2-0.7-0.4-1c-0.6-1.4-1.3-2.6-2.3-3.8
			c-0.9-1.1-2-2.2-3.1-3.1c-2.4-1.9-4.9-3.4-7.1-4.8c0.2-0.1,0.4-0.2,0.7-0.3c1.1-0.5,2.3-1.1,3.3-1.6c2.2-1.1,4.4-2.1,6.4-3.3
			c1-0.6,2-1.2,2.9-2c0.9-0.7,1.8-1.5,2.5-2.5c0.2-0.2,0.3-0.5,0.5-0.8c0.1-0.1,0.1-0.4,0.2-0.5l0.1-0.3l0-0.2
			c0.1-0.7,0.1-1.3,0-1.9c-0.3-1.2-1-2.2-1.8-2.9c-1.5-1.4-3.2-2-4.6-2.6c-1.5-0.6-2.8-1-4-1.4c-2.2-0.7-3.8-1.4-4.7-2.1
			c0.9-0.2,1.5,0,1.9,0.1c0.4,0.1,0.6,0.2,0.6,0.2s-0.2-0.1-0.6-0.2c-0.2-0.1-0.5-0.2-0.9-0.3c-0.4-0.1-0.9-0.1-1.4,0.1l-0.2,0
			l0.2,0.2c0.8,0.9,2.5,1.9,4.8,3c1.1,0.5,2.4,1.1,3.7,1.8c1.3,0.7,2.8,1.5,3.8,2.7c1.1,1.1,1.4,2.7,0.4,3.8
			C222.3,292.4,220.5,293.5,218.6,294.5z"/>
		<path d="M82.1,132.1c0.9,0.5,1.8,0.8,2.6,1.3c-0.8-0.1-1.6-0.3-2.4-0.5c-1.1-0.3-2.4-0.5-3.7-0.7c-1.3-0.2-2.8-0.2-4.3,0.1
			l-1.2,0.3l-0.1,1.3c-0.1,2,0.1,4,0.5,5.9c0.4,1.9,0.9,3.8,1.5,5.6c0.6,1.8,1.2,3.7,1.8,5.6c0.3,0.9,0.6,1.9,0.8,2.8l0.2,0.8
			l0.2,0.7l0.5,1.5c1.6,4.8,3.8,9.1,5.7,13.3c1,2.1,2,4.1,2.8,6.1c0.9,2,1.8,4,2.7,5.9c3.7,7.7,7.5,14.3,10.8,19.8
			c3.3,5.5,6.2,9.8,8.2,12.8c2,3,3.1,4.6,3.1,4.6s-0.9-1.7-2.6-4.9c-1.7-3.2-4.1-7.7-7-13.4c-2.9-5.7-6.3-12.5-9.6-20.2
			c-0.8-1.9-1.7-3.9-2.5-6c-0.8-2.1-1.8-4.2-2.7-6.3c-1.9-4.2-3.9-8.5-5.4-12.9l-0.5-1.4l-0.2-0.7l-0.1-0.4l-0.1-0.3
			c-0.3-1-0.6-2-0.9-3c-0.6-1.9-1.3-3.8-1.9-5.6c-1-3.1-1.9-6.1-2.2-8.8c1.7-0.1,3.5,0.2,5.3,0.5c2.3,0.4,4.7,0.8,7.2,0.4l2.3-0.4
			l-1.5-1.8c-1.9-2.3-4.7-3.3-6.7-4.1c-0.5-0.2-0.9-0.4-1.1-0.6c-0.1-0.1-0.1-0.1-0.1-0.1c0,0,0-0.2,0-0.3c0.3-0.7,1-1.6,1.6-2.3
			c2.8-3.1,5.1-5.8,6.8-8.2c1.7-2.4,2.8-4.4,3.4-5.8c0.3-0.7,0.5-1.3,0.7-1.6c0.1-0.4,0.2-0.6,0.2-0.6s-0.1,0.2-0.3,0.5
			c-0.2,0.4-0.5,0.9-0.8,1.5c-0.8,1.3-2,3.2-3.9,5.4c-1.9,2.2-4.4,4.7-7.4,7.5c-0.8,0.8-1.6,1.5-2.2,2.8c-0.1,0.4-0.3,0.7-0.2,1.3
			c0,0.5,0.3,1,0.6,1.4C81,131.5,81.6,131.8,82.1,132.1z"/>
		<path d="M94.5,125.8c-0.8,0.7-1.8,1.7-2.3,2.9c-0.6,1.3-0.6,2.6-0.6,3.5c0,0.5,0,0.9,0,1.2c0,0.3-0.1,0.5-0.1,0.5s0.2,0,0.5-0.1
			c0.3-0.1,0.8-0.3,1.2-0.6c0.9-0.6,1.9-1.7,2.5-3c0.6-1.3,0.6-2.7,0.6-3.7c-0.1-1-0.2-1.7-0.2-1.7S95.4,125.1,94.5,125.8z"/>
		<path d="M183,205.4c2.8-0.1,4.7-0.2,4.7-0.2s-1.6-0.8-4.4-1.7c-2.8-0.9-6.7-1.7-11.1-1.8c-4.4-0.1-8.4,0.7-11.2,1.6
			c-0.7,0.2-1.3,0.4-1.9,0.7c-0.5,0.2-1,0.4-1.4,0.6c-0.4,0.2-0.8,0.4-0.9,0.5c1.2-3.8,2.2-7.6,3.1-11.2c1-4.2,1.8-8.3,2.6-12.1
			c0.8-3.8,1.6-7.5,2.3-10.9c2.8-13.6,4.7-23.6,5.5-27.5l0-0.2l-0.2,0c-1.6,0.1-2.6,0-3.3-0.1c-0.2,0-0.4-0.1-0.6-0.1
			c0.2-0.1,0.4-0.1,0.5-0.2l1-0.5l-0.4-1.4c-0.6-1.8-1.7-3.7-3.1-5.5c-2.4-2.9-5-4.9-6.8-6.5c-0.9-0.7-1.7-1.4-2.2-1.8
			c-0.5-0.4-0.8-0.7-0.8-0.7s0.1,0.4,0.3,1c0.2,0.6,0.6,1.6,1.2,2.7c1.2,2.2,3.1,4.9,5.3,7.6c1,1.2,1.9,2.3,2.6,3.4
			c-1,0.6-2.1,0.9-2.9,1.1c-1.2,0.3-2,0.4-2,0.4s0.7,0.4,2,0.7c0.7,0.2,1.5,0.3,2.5,0.3c0.8,0,1.8-0.2,2.8-0.6
			c0.1,0,0.3,0.1,0.6,0.2c0.6,0.2,1.6,0.3,3.1,0.3c-1.1,3.9-3.9,13.5-7.4,26.8c-0.9,3.4-1.8,7-2.8,10.8c-1,3.8-2,7.8-3.1,11.9
			c-2.2,8.2-5,17-9.6,25.2c-5.5,10.1-10.2,20-15.2,28.5c-2.5,4.3-5.1,8.1-7.6,11.7c-2.5,3.6-5,6.9-7.2,9.9c-2.2,3-4.3,5.7-6.2,8.1
			c-1.8,2.4-3.3,4.5-4.5,6.3c-1.2,1.8-2,3.2-2.5,4.2c-0.5,1-0.7,1.5-0.7,1.5s0.3-0.5,0.9-1.4c0.6-0.9,1.5-2.3,2.8-3.9
			c1.3-1.7,2.9-3.6,4.9-5.8c2-2.2,4.3-4.8,6.7-7.6c2.5-2.9,5.1-6,7.8-9.5c2.7-3.5,5.6-7.3,8.3-11.6c5.4-8.5,10.3-18.3,15.8-28.3
			c2.7-4.9,4.8-9.9,6.4-14.9c0.2,0,0.6,0,1.1,0c0.4,0,0.9,0,1.5,0c0.6,0,1.2,0,1.9,0c2.8,0,6.6,0.3,10.9,0.3
			C176.3,205.6,180.2,205.5,183,205.4z"/>
		<path d="M160.7,197.2c0,0,1.5,0.4,3.9,0.7c2.4,0.3,5.8,0.4,9.3,0.1c3.6-0.3,6.7-0.9,9.1-1.2c1.2-0.2,2.1-0.4,2.8-0.5
			c0.7-0.1,1.1-0.2,1.1-0.2s-0.3-0.2-1-0.4c-0.6-0.3-1.6-0.6-2.8-0.8c-2.4-0.6-5.8-0.9-9.5-0.7c-3.7,0.3-6.9,1.1-9.2,1.8
			C162.2,196.7,160.7,197.2,160.7,197.2z"/>
		<path d="M161.4,302.9C161.4,302.8,161.4,302.8,161.4,302.9C161.3,302.8,161.3,302.8,161.4,302.9L161.4,302.9z"/>
		<path d="M160.9,281.5c0.7-1.2,1.6-2.5,2.5-4c0.5-0.8,0.9-1.6,1.3-2.4c0.1-0.2,0.2-0.5,0.3-0.7l0.1-0.4l0.1-0.3l0.1-0.3l0-0.1
			l0.1-0.3l0.1-0.6c0.3-1.6,0.7-3.2,1-4.7c0.6-3.1,1.2-6.1,1.7-9c1-5.8,1.5-11.1,1.7-15.5c0.2-4.4,0.2-8,0.5-10.4
			c0.1-1.2,0.3-2.2,0.5-2.8c0.2-0.6,0.2-1,0.2-1s-0.1,0.3-0.4,0.9c-0.2,0.6-0.6,1.5-0.9,2.7c-0.7,2.4-1.2,6-1.9,10.3
			c-0.7,4.3-1.7,9.4-3,15.1c-0.7,2.8-1.4,5.8-2.1,8.8c-0.4,1.5-0.8,3.1-1.1,4.7l-0.1,0.6l0,0l0,0.1l-0.1,0.3l-0.1,0.3l-0.1,0.2
			l-0.2,0.4c-0.3,0.7-0.7,1.3-1.1,2c-0.8,1.3-1.7,2.6-2.5,4c-0.4,0.7-0.8,1.4-1.1,2.3c-0.3,0.8-0.5,1.7-0.4,2.8c0,0.7,0.3,1.4,0.6,2
			c0.3,0.6,0.7,1,1,1.3c0.3,0.3,0.5,0.5,0.8,0.8c-0.1,0-0.1,0.1-0.2,0.1c-0.5,0.3-1.1,0.6-1.7,0.9l-5.3,2.4l5.7,0.7
			c1.1,0.1,2.1,0.4,2.4,0.8c0.4,0.3,0.5,1.2,0.4,2.3c-0.1,1.1-0.2,2.2-0.1,3.5c0.1,1.2,0.7,2.5,1.6,3.4c0.8,0.8,1.6,0.9,2.3,1
			c0.7,0.1,1.4,0.1,2,0c1.2-0.1,2.3-0.3,3.4-0.5c2-0.5,3.7-1,5.1-1.5c2.7-1,4.1-1.8,4.1-1.8s-1.5,0.5-4.3,1.1
			c-1.4,0.3-3.1,0.6-5.1,0.8c-1,0.1-2.1,0.2-3.2,0.1c-0.5,0-1.1-0.1-1.6-0.2c-0.5-0.1-0.9-0.3-1.1-0.5l-0.1-0.1
			c-0.5-0.6-0.7-1.2-0.7-2.1c0-0.9,0.2-1.9,0.4-3.1c0.1-0.6,0.1-1.3,0.1-2c0-0.4-0.1-0.8-0.3-1.2c-0.2-0.4-0.4-0.9-0.7-1.2
			c-0.2-0.2-0.3-0.4-0.5-0.5c-0.1-0.1-0.1-0.1-0.2-0.1c0.1-0.1,0.1-0.1,0.2-0.2c0.1-0.1,0.2-0.3,0.4-0.4c0.1-0.2,0.2-0.3,0.4-0.6
			c0.2-0.4,0.3-1.1,0.2-1.7c-0.1-0.5-0.3-0.9-0.5-1.2c-0.2-0.3-0.4-0.5-0.5-0.7c-0.3-0.3-0.6-0.6-0.8-0.9c-0.5-0.5-0.6-0.8-0.5-1
			l0-0.2c0-0.2,0.1-0.7,0.3-1.2C160.2,282.7,160.6,282.1,160.9,281.5z M158.9,288.5C158.9,288.5,158.9,288.5,158.9,288.5
			C158.9,288.5,158.9,288.5,158.9,288.5C158.9,288.5,158.9,288.5,158.9,288.5z"/>
		<path d="M156.1,284.8C156.1,284.8,156.1,284.8,156.1,284.8c0-0.1,0-0.2,0-0.2L156.1,284.8z"/>
		<path d="M82.6,303.1L82.6,303.1L82.6,303.1l0.1-0.2l0.1-0.3c0-0.2,0.1-0.4,0.1-0.5l0-0.4c0.1-0.5,0-0.9,0-1.4
			c-0.1-1.7-0.4-3.3-0.8-4.9c-0.4-1.6-0.8-3.2-1.3-4.8c-0.2-0.8-0.5-1.6-0.8-2.5c-0.3-0.8-0.5-1.5-0.9-2.4c-0.7-2-1.5-4.3-2.4-6.7
			l-0.1-0.1c0.1,0,0.1,0,0.1,0c0,0,0,0,0-0.1c0-0.1,0-0.2,0-0.3c0-0.3,0-0.9-0.1-1.6c-0.1-0.7-0.5-1.4-1-2c0.6-1,0.9-2,1.1-2.9
			c0.3-1.2,0.4-2.3,0.4-3.4c0.1-2.2,0-4.3-0.2-6.3c-0.4-4.1-1.1-7.9-1.6-11.4c0-0.4-0.1-0.9-0.1-1.3c0-0.4,0-0.9-0.1-1.4
			c-0.1-0.9-0.1-1.8-0.2-2.7c-0.2-1.8-0.3-3.4-0.5-5.1c-0.4-3.2-0.7-6.3-0.9-9c-0.4-5.5-0.3-10,0.2-13c0.2-1.5,0.4-2.7,0.7-3.5
			c0.2-0.8,0.3-1.2,0.3-1.2s-0.2,0.4-0.5,1.2c-0.3,0.8-0.7,1.9-1.1,3.4c-0.8,3-1.5,7.6-1.5,13.2c0,2.8,0.1,5.9,0.2,9.1
			c0.1,1.6,0.1,3.3,0.2,5c0,0.9,0,1.7,0.1,2.6c0,0.5,0,0.9,0,1.3c0,0.5,0,1,0.1,1.5c0.3,3.8,0.9,7.6,1.1,11.5
			c0.1,1.9,0.2,3.9,0.1,5.8c-0.1,1.9-0.5,3.9-1.3,5c-0.1,0.2-0.3,0.3-0.4,0.5l-1.8,2l2.2,1.2c0.3,0.2,0.5,0.3,0.6,0.4
			c0.1,0.1,0.1,0.1,0.1,0.3c0,0.1,0,0.5,0,1c0,0.5,0.1,1.3,0.4,2l-0.1-0.1c0.9,2.3,1.8,4.6,2.5,6.5l0.1,0.2l0,0.1
			c0.3,0.6,0.6,1.4,0.9,2.2c0.3,0.8,0.6,1.6,0.8,2.3c0.5,1.6,1,3.1,1.4,4.6c0.4,1.5,0.8,3,1,4.4c0,0.3,0.1,0.7,0.1,0.9l0,0.2
			c0,0,0,0,0,0l0,0l0,0l0,0l0,0l-0.1,0.1l-0.1,0.2l-0.1,0.1l-0.1,0.1c-0.1,0.1-0.1,0.1-0.2,0.2c-0.2,0.2-0.4,0.4-0.6,0.5
			c-0.9,0.7-2.2,1.1-3.4,1.3c-1.2,0.3-2.5,0.4-3.7,0.5c-2.5,0.1-4.8,0.1-6.9,0c-4.2-0.2-7.6-0.5-9.9-0.6c-1.3-0.1-2.3-0.1-2.9-0.1
			c1.5-11.1,2.5-21.8,2.4-31.7c0-2.5-0.1-5-0.3-7.3c-0.2-2.4-0.3-4.6-0.4-6.8c-0.2-4.4-0.4-8.6-1-12.4c-0.6-3.8-1.9-7.1-2.9-9.9
			c-0.3-0.8-0.6-1.6-0.9-2.3c0.5-2.8,0.9-5.5,1-8.3c0.1-0.9,0.1-1.7,0.1-2.5c0-0.8,0-1.7,0-2.5c0-1.6,0-3.2-0.1-4.8
			c-0.3-6.4-1.1-12.5-1.9-18.3c-1.7-11.5-3.6-21.8-5.9-30.4c-1.1-4.3-2.3-8.1-3.5-11.4c-1.2-3.3-2.3-6.1-3.3-8.3
			c-1-2.2-1.8-4-2.5-5.1c-0.6-1.1-0.9-1.7-0.9-1.7s0.3,0.6,0.8,1.8c0.5,1.2,1.2,3,2.1,5.3c0.9,2.3,1.8,5.1,2.7,8.5
			c0.9,3.3,1.9,7.2,2.8,11.5c1.8,8.5,3.2,18.8,4.6,30.3c0.7,5.7,1.3,11.7,1.5,18c0.1,1.6,0.1,3.1,0,4.7c0,0.8,0,1.6-0.1,2.3
			c0,0.8-0.1,1.6-0.1,2.4c0,0.3-0.1,0.6-0.1,0.8c-0.2-0.7-0.4-1.3-0.5-1.7c-0.2-1.1-0.4-1.6-0.4-1.6s0.1,0.6,0.2,1.7
			c0.1,0.7,0.3,1.7,0.5,2.8c-0.3,2.5-0.7,5.1-1.1,7.6c-0.6,3.2-1.3,6.5-2,9.7c-0.3,1.6-0.6,3.2-0.9,4.8c-0.2,1.5-0.6,3.1-0.9,4.7
			c-0.6,3.1-1.2,6.1-1.7,9.1c-0.6,3-1.2,5.9-1.8,8.7c-1.2,5.7-2.1,11.1-2.9,16.3c-0.2,1.2-0.5,2.4-0.7,3.7c-0.1,0.6-0.2,1.3-0.3,1.9
			c0,0.3-0.1,0.6-0.1,1c0,0.3,0,0.7,0,1.1c0,0.4,0.3,0.9,0.4,1.2l0.4,0.7c0.2,0.5,0.4,0.9,0.6,1.5c0.4,1.1,0.8,2,0.7,2.8
			c0,0.2,0,0.4-0.1,0.6l0,0.1l0,0c0,0,0,0-0.1,0c-0.1,0.1-0.4,0.2-0.6,0.3c-0.3,0.1-0.6,0.3-0.9,0.7c-0.1,0.2-0.3,0.4-0.3,0.7
			c0,0.1,0,0.1,0,0.2l0,0.1l0,0.2c0,0.4,0,0.7,0.1,1c0.1,0.4,0.3,0.7,0.4,0.9c0.1,0.2,0.2,0.3,0.2,0.5c0.1,0.2,0,0.3,0.2,0.7
			c0.1,0.4,0.3,0.6,0.5,0.8c0.3,0.4,0.4,0.6,0.5,0.9c0.1,0.5-0.4,1.2-0.9,2c-0.1,0.2-0.2,0.4-0.3,0.7c0,0.1-0.1,0.3-0.1,0.4
			c0,0.1,0,0.1,0,0.2l0,0.2c0,0.5,0,0.9,0.1,1.4c0.2,0.8,0.3,1.6,0.5,2.3c0.1,0.4,0.1,0.7,0.1,1c0,0.4,0,0.7,0,1
			c0,0.7,0,1.3,0.1,1.9c0.1,2.4,0.1,4.3,0,5.6c-0.1,1.3-0.3,2-0.3,2s0.2-0.7,0.4-1.9c0.2-1.3,0.4-3.2,0.5-5.6c0-0.6,0.1-1.3,0.1-1.9
			c0-0.3,0-0.7,0.1-1c0-0.4,0-0.8,0-1.2c-0.1-0.8-0.2-1.5-0.3-2.3c0-0.4-0.1-0.8,0-1.1c0-0.3,0.2-0.6,0.4-0.9
			c0.2-0.3,0.5-0.7,0.8-1.1c0.1-0.2,0.3-0.4,0.4-0.7c0.1-0.1,0.1-0.4,0.1-0.5l0-0.1l0-0.2c0-0.1,0-0.1,0-0.2c0-0.6-0.4-1.3-0.6-1.6
			c-0.1-0.2-0.2-0.4-0.2-0.4c0,0,0-0.4-0.1-0.7c-0.1-0.3-0.2-0.7-0.4-0.9c-0.1-0.2-0.2-0.3-0.2-0.5c0-0.1,0-0.3,0-0.5
			c0-0.3,0.1-0.3,0.1-0.3c0,0,0.1-0.1,0.3-0.2c0.2-0.1,0.5-0.2,0.8-0.4c0.2-0.1,0.3-0.2,0.6-0.4c0.1-0.1,0.1-0.1,0.2-0.2l0.1-0.1
			l0,0l0.1-0.1l0,0l0-0.1c0.1-0.3,0.2-0.7,0.2-1c0.2-1.4-0.3-2.7-0.6-3.7c-0.2-0.5-0.4-1.1-0.6-1.7c-0.1-0.3-0.3-0.6-0.4-0.8
			c-0.1-0.2-0.1-0.3-0.1-0.5c0-0.2,0-0.4,0-0.7c0-0.3,0.1-0.5,0.1-0.8c0.1-0.5,0.2-1.1,0.4-1.7c0.3-1.2,0.6-2.4,0.9-3.8
			c0.9-5,2.1-10.4,3.5-16c0.7-2.8,1.4-5.7,2.1-8.7c0.6-3,1.3-6,1.9-9.1c0.3-1.6,0.7-3.1,1-4.7c0.3-1.6,0.6-3.1,0.9-4.7
			c0.6-3,1.3-6.1,2-9.3c0.1,0.2,0.1,0.4,0.2,0.5c0.8,2.8,1.9,6.1,2.2,9.7c0.3,3.7,0.3,7.8,0.3,12.2c0,2.2,0,4.6,0.1,6.9
			c0.1,2.4,0,4.7,0,7.2c-0.3,9.8-1.5,20.6-3.1,31.9c-0.2,1.4-0.4,2.8-0.6,4.3c-0.2,1.4-0.3,2.8-0.5,4.2c-0.3,2.8-0.6,5.5-0.9,8.2
			c-0.6,5.4-1.1,10.6-1.6,15.5c-0.2,2.5-0.5,4.9-0.7,7.2c-0.1,0.6-0.1,1.2-0.2,1.7l0,0.4l0,0.2l0,0.2l0,0.1l0,0.9
			c0,1.1-0.1,2.2-0.1,3.3c-0.2,4.4-0.5,8.5-0.8,12.2c-0.1,1.9-0.2,3.7-0.5,5.3c-0.2,1.6-0.5,3.2-0.8,4.7c-0.6,2.9-1,5.5-1.3,7.6
			c-0.3,2.1-0.3,3.8-0.2,4.9c0,0.6,0.1,1,0.2,1.3c0.1,0.3,0.1,0.4,0.1,0.4s0-0.1,0-0.4c0-0.3-0.1-0.7-0.1-1.3c0-1.1,0.2-2.7,0.7-4.8
			c0.4-2,1.1-4.5,1.9-7.4c0.4-1.4,0.8-3,1.2-4.7c0.4-1.7,0.6-3.5,0.8-5.4c0.5-3.7,1-7.8,1.5-12.2c0.1-1.1,0.2-2.2,0.3-3.4l0.1-0.9
			l0.1-0.8c0.1-0.6,0.2-1.2,0.2-1.7c0.3-2.3,0.7-4.7,1-7.2c0.7-4.9,1.3-10.1,2-15.5c0.3-2.7,0.7-5.4,1-8.2c0.2-1.4,0.3-2.8,0.5-4.2
			c0.1-1.3,0.4-2.8,0.6-4.2c0-0.2,0.1-0.5,0.1-0.7c0.6,0.1,1.5,0.2,2.8,0.4c2.3,0.4,5.6,1.1,9.9,1.7c2.1,0.3,4.5,0.6,7.1,0.6
			c1.3,0,2.7,0,4.1-0.2c1.4-0.2,3-0.5,4.5-1.4c0.4-0.2,0.7-0.5,1.1-0.8c0.2-0.2,0.4-0.4,0.6-0.6c0.2-0.2,0.2-0.3,0.4-0.5l0.2-0.2
			C82.5,303.3,82.7,303.1,82.6,303.1z"/>
		<path d="M164.9,134.7c-1.3-0.7-2-1.2-2-1.2s0.6,0.6,1.7,1.6c1.1,1,2.8,2.5,5,4.1c4.4,3.2,11.1,6.8,18.7,9.9c1,0.4,1.9,0.7,2.9,1.1
			c1,0.3,2,0.7,2.9,0.9c1.9,0.6,3.6,1,5.2,1.6c1.6,0.5,3.1,1.1,4.2,1.9c1.1,0.8,2,1.7,2.7,2.8c1.3,2.1,1.6,4.3,1.9,5.8
			c0.2,1.5,0.3,2.3,0.3,2.3s0.1-0.8,0.3-2.3c0-1.5,0.3-3.8-0.8-6.6c-0.5-1.4-1.5-2.8-2.8-4c-1.3-1.2-3-2.1-4.6-2.8
			c-1.7-0.8-3.5-1.4-5.3-2c-0.9-0.3-1.8-0.6-2.7-1c-0.9-0.4-1.8-0.7-2.8-1.1c-7.6-3-14.4-5.6-19.1-8
			C168.1,136.5,166.2,135.4,164.9,134.7z"/>
		<path d="M230.7,295.8L230.7,295.8c-0.2-1.4-0.6-2.7-0.9-4c-0.2-0.7-0.4-1.4-0.5-2c-0.1-0.6,0-1.2,0.2-1.8c0.2-0.7,0.6-1.4,0.9-2.3
			c0.3-0.9,0.6-2.1,0.1-3.3c-0.4-1.1-0.9-1.9-1.5-2.7c-0.3-0.4-0.5-0.8-0.8-1.2c-0.1-0.2-0.2-0.4-0.3-0.5c-0.1-0.1-0.1-0.2-0.1-0.2
			c0,0,0,0,0,0c-0.1-0.5-0.2-1-0.2-1.5c0-0.5,0-0.9,0.2-1.5c0.1-0.6,0.2-1.3,0.2-2l0-0.5l0-0.5c0-0.3,0-0.7,0-1
			c-0.1-2.8-0.6-5.5-1.3-8.3c-0.3-1.4-0.7-2.8-1-4.2c-0.2-0.7-0.3-1.4-0.5-2.1c-0.1-0.7-0.3-1.5-0.4-2.2c-0.6-2.9-1.2-5.9-1.8-8.9
			c-1.7-8.2-3.3-16.1-5.1-23.2l0,0.1c-0.4-2.6-1.2-4.9-1.6-7l0,0.2c0-0.6-0.2-1.2-0.5-1.7c-0.3-0.4-0.5-0.7-0.8-1
			c-0.2-0.2-0.4-0.4-0.5-0.6c-0.1-0.1-0.1-0.1-0.1-0.1c-0.2,0.1-0.2,0.1-0.3,0.1c-0.1,0-0.1,0-0.1,0l0.4-0.3c-0.1-0.3-0.1-0.5,0.1-1
			c0.1-0.5,0.5-1.1,0.5-2.1l0-0.1l0-0.1c-0.3-2.1-0.4-4.2-1.3-6.2c-0.4-1-1-1.9-1.8-2.5c-0.3-0.2-0.5-0.4-0.8-0.6
			c0.1,0,0.1-0.1,0.2-0.1c0.5-0.3,0.9-0.5,1.3-0.7l0.6-0.2l-0.1-0.5c-0.8-4.5-1.1-8-1.4-10.3c-0.3-2.4-0.6-3.5-0.6-3.5
			s0.1,1.2,0.2,3.6c0.1,2.3,0,5.6,0.5,10c-0.4,0.1-0.7,0.3-1,0.5c-0.2,0.1-0.5,0.2-0.8,0.4c-0.2,0.1-0.6,0.2-0.6,0.2l-0.3,1.6
			c1.3,0.6,2.4,1.6,2.9,3.2c0.5,1.5,0.6,3.4,0.7,5.5c0,0.1-0.2,0.6-0.5,1.2c-0.2,0.5-0.5,1.4-0.3,2.3c0,0.7,0.3,1.3,0.6,1.6
			c0.3,0.4,0.5,0.6,0.7,0.8c0.2,0.2,0.3,0.4,0.4,0.5c0.1,0.1,0.1,0.2,0,0.2l0,0l0,0.2c0.3,2.4,1,4.7,1.2,7l0,0l0,0.1
			c1.4,7.1,2.9,15,4.6,23.2c0.6,3,1.3,6,1.9,9c0.2,0.7,0.3,1.4,0.5,2.2c0.2,0.7,0.4,1.5,0.5,2.2c0.4,1.4,0.7,2.8,1.1,4.1
			c0.7,2.7,1.3,5.2,1.5,7.7c0,0.3,0,0.6,0.1,0.9l0,0.4l0,0.5c0,0.5,0,1.1-0.1,1.7c-0.1,0.6-0.1,1.4-0.1,2.1c0.1,0.7,0.2,1.4,0.4,2
			l0,0.1l0,0c0.2,0.5,0.4,0.7,0.5,0.9c0.2,0.2,0.3,0.4,0.5,0.6c0.3,0.4,0.6,0.7,0.9,1.1c0.5,0.7,1,1.4,1.3,2c0.5,1-0.3,2.4-0.8,4.1
			c-0.1,0.4-0.2,0.9-0.2,1.4c0,0.2,0,0.4,0,0.7c0,0.1,0.1,0.5,0.1,0.7c0.2,0.8,0.5,1.5,0.7,2.2c0.5,1.3,1,2.6,1.2,3.7
			c0.5,4.5,0.6,8.1,0.7,10.5c0,2.4,0,3.7,0,3.7s0.2-1.3,0.4-3.7C230.6,304,230.8,300.4,230.7,295.8L230.7,295.8z"/>
		<path d="M226.7,336c-0.7,2.6-1.5,5.8-2.2,9.2c-0.4,1.7-0.8,3.5-1.2,5.4c-0.2,0.9-0.4,1.9-0.7,2.8c-0.3,1-0.5,1.9-0.8,2.9
			c-0.8,3.2-1.5,6.3-2.3,9c-0.4,1.4-0.8,2.7-1.3,3.9c-0.2,0.4-0.4,0.8-0.6,1.3c0-0.4,0.1-0.8,0.1-1.2c0.1-2-0.3-3.8-0.7-5.4
			c-0.3-0.8-0.5-1.6-0.9-2.2c-0.2-0.3-0.3-0.7-0.5-1c-0.2-0.3-0.4-0.6-0.6-0.8c-0.3-0.5-0.8-1-1.1-1.3c-0.2-0.2-0.3-0.3-0.5-0.5
			c-0.2-0.1-0.3-0.2-0.5-0.3c-0.5-0.4-0.9-0.6-0.9-0.6s0.1,0.4,0.4,1c0.1,0.2,0.1,0.3,0.2,0.5c0.1,0.2,0.1,0.4,0.2,0.6
			c0.1,0.4,0.3,0.9,0.4,1.5c0.1,0.3,0.1,0.6,0.2,0.9c0,0.3,0.1,0.6,0.1,0.9c0.1,0.6,0.1,1.3,0.2,2.1c0.1,1.3,0.1,2.8,0.1,4.3
			c-0.1-0.2-0.1-0.3-0.1-0.3s-0.1,0.1-0.4,0.4c-0.2,0.3-0.6,0.6-0.9,1c-0.8,0.8-1.7,1.7-2.6,3c-0.6,0.9-1,1.8-1.4,2.7
			c0.1-1.9,0.1-4,0.1-6.3c0-1.3,0-2.7,0.1-4.2c0-0.7,0.1-1.5,0.1-2.2c0.1-0.8,0.2-1.5,0.3-2.3c0.4-3.2,1.2-6.6,1-10.6
			c0-0.5-0.1-1-0.1-1.5l-0.1-0.7l0-0.1l0,0l0-0.1l-0.1-0.2l-0.1-0.4c-0.3-1-0.7-1.9-1.1-2.8c-0.8-1.9-1.8-3.7-3.1-5.6
			c-0.3-0.5-0.7-0.9-1.1-1.4c-0.2-0.2-0.5-0.4-0.7-0.7c-0.2-0.1-0.4-0.2-0.5-0.4c-0.2-0.1-0.4-0.2-0.5-0.3l-0.4-0.2
			c-0.2-0.1-0.1,0-0.1,0l0,0l-0.1,0l-0.1,0l-0.2-0.1c-0.3-0.1-0.7-0.1-1-0.2c-0.7,0-1.5,0.1-2.2,0.4c-1.4,0.6-2.3,1.7-3.1,2.7
			c-0.1,0.2-0.2,0.3-0.4,0.5c0-0.1,0-0.1,0-0.2c-0.2-1.1-0.1-2.5-0.3-4.1l-0.3-2.2l-2,0.9c-3.3,1.5-5.9,3.9-8.5,6.5
			c0.4-1.2,0.8-2.5,1.1-3.8c1-4.4,1.1-8.9,0.6-13.1c-0.2-2.1-0.6-4.2-0.9-6.2c-0.4-1.9-0.6-3.9-0.9-5.8c-0.5-3.9-0.9-7.8-2-11.5
			c-0.6-1.9-1.3-3.7-2.3-5.4c-0.6-1.1-1.4-2-2.2-2.9c0.1-0.1,0.2-0.1,0.2-0.2c0.2-0.1,0.4-0.3,0.5-0.4c0.2-0.1,0.3-0.3,0.5-0.5
			c0.3-0.3,0.7-0.8,0.9-1.5c0.2-0.7,0-1.6-0.3-2.1c-0.3-0.6-0.7-0.9-1-1.2c-0.7-0.5-1.4-0.9-2-1.2c-1.3-0.6-2.6-1.1-3.8-1.5
			c-0.5-0.2-0.9-0.3-1.4-0.5c0.1,0,0.1-0.1,0.2-0.1c0.7-0.4,1.5-0.7,2.2-1c0.8-0.4,1.5-0.7,2.3-1.3c0.2-0.1,0.4-0.3,0.6-0.5l0.2-0.2
			l0.1-0.2l0.1-0.2c0.3-0.4,0.5-0.8,0.7-1.2c0.7-1.6,0.8-3.2,1-4.7c0.1-1.5,0.2-2.9,0.3-4.2c0.7-5.5,0.9-10.2,1.5-14
			c0.5-3.8,1.4-6.7,2.2-8.6c0.4-0.9,0.7-1.6,1-2.1c0.3-0.5,0.4-0.7,0.4-0.7s-0.1,0.2-0.4,0.7c-0.3,0.4-0.7,1.1-1.2,2
			c-0.9,1.8-2,4.7-2.8,8.5c-0.8,3.8-1.3,8.6-2.3,13.9c-0.3,1.4-0.4,2.8-0.6,4.3c-0.2,1.4-0.5,2.9-1,4.1c-0.1,0.3-0.3,0.6-0.5,0.8
			l-0.1,0.1c0,0,0,0-0.1,0.1l-0.2,0.2c-0.1,0.1-0.2,0.1-0.3,0.2c-0.5,0.4-1.2,0.7-2,1c-0.7,0.3-1.5,0.6-2.3,1
			c-0.8,0.4-1.7,0.8-2.5,1.6l-1.1,1l1.2,0.9c0.7,0.5,1.3,0.7,1.9,1c0.6,0.2,1.2,0.5,1.8,0.7c1.2,0.5,2.4,0.9,3.5,1.5
			c0.5,0.3,1.1,0.6,1.4,0.9c0.1,0.1,0.3,0.3,0.3,0.3c-0.1,0.1-0.4,0.4-0.8,0.7c-0.5,0.3-1.1,0.6-1.7,0.9l-2.1,0.9l1.7,1.6
			c1.1,1.1,2.1,2.3,2.9,3.8c0.8,1.4,1.4,3,1.8,4.7c0.9,3.4,1.3,7.1,1.7,11c0.2,2,0.5,4,0.8,6c0.3,2,0.7,3.9,0.8,5.9
			c0.4,3.9,0.3,7.9-0.6,11.8c-1.2,5.3-3.9,10.1-6.3,14.1l2.8,2.4c3.2-2.9,5.7-6.1,8.2-8.9c1.8-2.1,3.7-3.9,5.7-5.3
			c0,0.5,0.1,1.1,0.2,1.6c0.2,1.4,0.7,3,1.9,4.1l1.5,1.4l0.9-1.7c0.5-1,1.1-2,1.6-2.8c0.6-0.8,1.2-1.5,1.8-1.8
			c0.3-0.1,0.6-0.2,1-0.2c0.2,0,0.4,0,0.6,0.1l0.1,0l0.1,0l0,0l0,0l0.3,0.1c0.1,0,0.1,0,0.2,0.1l0.1,0.1c0,0,0.1,0.1,0.1,0.1
			l0.5,0.4c0.3,0.3,0.6,0.7,0.9,1c1.2,1.5,2.2,3.3,3,5c0.4,0.9,0.8,1.7,1.1,2.6l0.1,0.3l0.1,0.2l0,0l0,0.1l0.2,0.7
			c0.1,0.4,0.1,0.8,0.2,1.3c0.3,3.5-0.2,7-0.5,10.2c-0.1,0.8-0.1,1.6-0.2,2.4c0,0.8,0,1.5,0,2.3c0,1.5,0.1,2.9,0.1,4.2
			c0.2,4.8,0.3,8.7,0.2,11.5c-0.1,0.1-0.3,0.4-0.7,0.9c-0.2,0.3-0.5,0.7-0.9,1.2c-0.4,0.4-0.8,1-1.3,1.5c-1.4,1.5-3.5,3.3-6.1,5
			c-0.1-0.2-0.2-0.3-0.2-0.4c-0.1-0.1-0.1-0.2-0.1-0.2s0,0.1,0.1,0.2c0,0.1,0.1,0.2,0.2,0.4c-1.2,0.8-2.6,1.6-4.1,2.3
			c-4.8,2.4-10.9,4.3-17.9,5.9c-7,1.7-14.8,2.9-22.9,5.2c-1,0.3-2,0.6-3,0.9c-0.9,0.3-2,0.6-2.9,1c-1.9,0.6-3.8,1.3-5.6,1.9
			c-3.7,1.2-7.3,2.3-10.7,2.9c-1.7,0.3-3.4,0.5-4.7,0.3c-0.2,0-0.3,0-0.5-0.1c-0.1,0-0.3-0.1-0.3-0.1c0,0-0.1,0-0.1,0l-0.3-0.2l0,0
			l0,0l-0.1-0.1c-0.3-0.4-0.6-1.1-0.9-1.8c-1-2.8-1.5-5.8-2-8.5c-0.1-0.7-0.3-1.4-0.5-2c-0.2-0.7-0.4-1.3-0.6-1.9
			c-0.4-1.2-0.8-2.3-1.2-3.3c-0.8-2-1.6-3.7-2.2-5.1c-0.6-1.3-1.1-2.3-1.5-3c-0.2-0.7-0.9-4.1-2.1-9.1c-1.4-5.7-3.4-13.4-6-21.9
			c-2.6-8.5-5.2-16.1-7.3-21.6c-2-5.5-3.4-8.8-3.4-8.8s0.5,3.6,1.6,9.3c1.1,5.7,2.9,13.6,5.5,22.2c2.6,8.5,5.5,16.1,7.8,21.4
			c1.4,3.3,2.6,5.8,3.3,7.2c0,0,0,0,0,0s0.6,1.6,1.6,4.5c0.5,1.4,1,3.2,1.6,5.3c0.3,1,0.6,2.2,0.9,3.3c0.1,0.6,0.3,1.2,0.4,1.8
			c0.1,0.6,0.2,1.2,0.3,1.9c0.3,2.7,0.6,5.7,1.4,9c0.3,0.8,0.5,1.7,1.2,2.6l0.3,0.4l0.1,0.1l0,0l0,0c0,0,0.3,0.3,0.2,0.1l0.1,0.1
			l0.2,0.2c0.1,0.1,0.3,0.2,0.4,0.3c0.3,0.2,0.6,0.3,0.8,0.4c0.3,0.1,0.5,0.1,0.8,0.2c2,0.4,3.9,0.2,5.8,0c3.7-0.5,7.5-1.5,11.3-2.6
			c1.2-0.4,2.5-0.8,3.8-1.2c0,0.7,0,1.8,0,3.3c0,0.7-0.2,1.3-0.7,1.6c-0.6,0.3-1.4,0.4-2.4,0.5c-0.5,0-0.9,0.1-1.4,0.1
			c-0.5,0-1,0.1-1.6,0.1c-1,0.1-2.2,0.1-3.3,0.1c-2.3,0-4.9-0.1-7.7-0.2c-1.5-0.1-2.9,0-4.3-0.1c-1.5,0-3-0.1-4.5-0.2
			c-6.2-0.3-13.1-0.9-20.3-1.6c-7.1-0.7-13.9-1.8-20.2-2.6c-6.3-0.8-12-1.3-16.8-1.3c-4.8,0-8.7,0.4-11.3,0.9
			c-1.3,0.2-2.3,0.5-3,0.6c-0.7,0.2-1,0.2-1,0.2s0.4,0,1.1-0.1c0.7,0,1.7-0.2,3.1-0.2c2.6-0.1,6.5,0,11.2,0.5
			c4.7,0.5,10.2,1.4,16.4,2.5c6.2,1.1,13,2.5,20.3,3.2c7.3,0.6,14.2,1,20.6,1c1.6,0,3.1,0,4.6-0.1c1.5-0.1,2.9-0.2,4.3-0.2
			c2.8-0.1,5.4-0.3,7.8-0.5c1.2-0.1,2.3-0.3,3.4-0.5c1.1-0.2,2.1-0.4,3-0.6c0.9-0.2,1.9-0.4,2.7-0.9c0.4-0.3,0.7-0.8,0.8-1.2
			c0.1-0.4,0.1-0.8,0.1-1.1c-0.1-1.4-0.3-2.4-0.4-3.1c0-0.1,0-0.2,0-0.2c0.6-0.2,1.2-0.4,1.9-0.6c1-0.3,1.9-0.6,2.9-0.9
			c1-0.3,2-0.6,2.9-0.9c7.8-2.2,15.7-3.7,22.7-5.7c7-2,13.2-4.4,18-7.3c1.3-0.8,2.5-1.6,3.6-2.5c0.1,0.3,0.1,0.7,0.1,1.1
			c0.2,2.2-0.2,5.5-1,9.6c-0.8,4.1-2.1,9.1-3.6,14.9c-0.4,1.4-0.8,3-1.1,4.5c-0.2,0.8-0.4,1.6-0.5,2.4c-0.1,0.4-0.2,0.9-0.2,1.2
			c-0.1,0.4-0.2,0.8-0.3,1.2c-0.7,3.3-1.4,6.8-2.1,10.5c-1.4,7.4-2.8,15.5-4.2,24.3c-0.4,2.2-0.7,4.4-1.1,6.7
			c-0.3,2.3-0.6,4.6-0.9,6.9c-0.6,4.7-1.1,9.5-1.6,14.5c-2.1,19.8-3.8,41.6-6.9,64.3c-3,22.9-4.6,44.7-5.9,64.6
			c-1.2,19.9-2.3,37.7-3.2,52.8c-1,15-1.9,27.1-2.7,35.5c-0.8,8.4-1.2,13-1.2,13s0.2-1.2,0.5-3.3c0.3-2.2,0.8-5.4,1.3-9.6
			c1.1-8.3,2.5-20.5,4-35.4c1.5-15,2.9-32.9,4.5-52.7c1.6-19.8,3.5-41.6,6.4-64.3c3.2-22.8,4.6-44.7,6.3-64.5
			c0.4-4.9,0.9-9.8,1.3-14.5c0.2-2.3,0.5-4.7,0.7-6.9c0.3-2.2,0.6-4.5,0.9-6.6c1.2-8.8,2.3-16.9,3.5-24.3c0.6-3.7,1.2-7.2,1.8-10.6
			c0.1-0.4,0.1-0.8,0.2-1.2c0.1-0.5,0.1-0.8,0.2-1.2c0.1-0.8,0.3-1.6,0.4-2.4c0.3-1.6,0.6-3.1,0.9-4.5c1.3-5.8,2.4-10.9,3-15.1
			c0.7-4.2,0.8-7.5,0.6-9.7c-0.1-0.4-0.1-0.8-0.2-1.1c2.8-2.1,4.8-4.3,6.1-6.1c0.5-0.6,0.8-1.2,1.2-1.7c0.3-0.5,0.6-0.9,0.8-1.3
			c0.3-0.5,0.4-0.8,0.5-0.9c0,0.3,0,0.5-0.1,0.8c-0.1,1.4-0.3,2.5-0.4,3.2c-0.1,0.7-0.2,1.1-0.2,1.1s0.1-0.4,0.3-1.1
			c0.2-0.7,0.4-1.8,0.6-3.2c0.1-0.9,0.3-2,0.3-3.2c0.3-0.1,0.8-0.3,1.3-0.6c1-0.5,2.4-1.4,3.4-2.9c0.2-0.3,0.3-0.5,0.5-0.8
			c-0.2,1.3-0.4,2.5-0.6,3.6c-0.9,1.5-1.4,2.7-1.7,3.6l-0.2,0.5l0.4-0.2c0.1-0.1,0.2-0.1,0.3-0.2c0,0,0,0,0,0s0.3-0.2,0.9-0.6
			c0.3-0.2,0.6-0.5,0.9-0.9c0.4-0.4,0.7-0.8,1.1-1.3c0.4-0.6,0.9-1.3,1.3-2c0.8-0.8,1.7-1.7,2.6-2.7c0.8-1,1.7-2,2.5-3.4
			c0.7-1.3,1.3-2.6,1.8-4c1.1-2.9,1.9-6,2.7-9.2c0.2-1,0.5-1.9,0.7-3c0.2-1,0.4-2,0.6-3c0.3-1.9,0.6-3.8,0.8-5.6
			c0.4-3.6,0.7-6.8,0.9-9.4c0.2-2.7,0.5-4.8,0.7-6.3c0.2-1.5,0.3-2.3,0.3-2.3s-0.4,0.8-0.9,2.2C228.2,331.2,227.5,333.3,226.7,336z"
			/>
		<path d="M35.7,138.9c0.9,0,2-0.1,3.1-0.2c2.3-0.2,5-0.6,8-1.3c3-0.7,6.1-1.6,9.4-2.7c6.5-2.2,12.3-4.6,16.5-6.1
			c1.1-0.4,2-0.7,2.9-1c0.8-0.3,1.6-0.5,2.2-0.7c1.2-0.4,1.9-0.6,1.9-0.6s-0.7,0-2,0c-0.6,0-1.4,0-2.3,0.1c-0.9,0.1-1.9,0.2-3.1,0.3
			c-4.6,0.6-10.7,2.1-17.3,4.3c-3.3,1.1-6.3,2.2-9.1,3.2c-2.8,1-5.3,1.9-7.4,2.5c-1.1,0.4-2,0.6-2.9,0.9c-0.9,0.3-1.6,0.5-2.2,0.6
			c-1.2,0.3-1.9,0.5-1.9,0.5s0.7,0,2,0.1C34,138.9,34.8,138.9,35.7,138.9z"/>
		<path d="M6.6,273.5c0.8-3.1,2.3-7.5,4-13c0.8-2.8,1.7-5.9,2.2-9.3c0.3-1.7,0.4-3.6,0.4-5.4c0-1.9,0-3.7,0-5.6
			c0.1-3.8,0.3-7.7,0.5-11.9c0.1-2.1,0.2-4.2,0.4-6.3c0.1-1.1,0.1-2.2,0.2-3.2c0-0.6,0-1.1,0.1-1.7c0-0.6,0-1.2,0-1.7
			c-0.1-1.8-0.1-3.4,0.3-4.7c0.3-1,1.4-2.2,2.5-3.9c0.3-0.4,0.5-0.9,0.7-1.4c0.1-0.2,0.2-0.6,0.3-0.8l0.1-0.3l0-0.2l0.1-0.2l0-0.1
			c0.2-1.2,0.1-2,0-2.9c-0.1-1.7-0.3-3.3-0.2-4.4c0.8-3.2,1-6.3,1.4-9c0.4-3,0.6-5.8,0.7-8.4c0.3-5.3,0.3-9.9,0.7-13.7
			c0.3-3.8,0.8-6.8,1.3-8.8c0.2-1,0.5-1.8,0.6-2.3c0.2-0.5,0.2-0.8,0.2-0.8s-0.1,0.3-0.3,0.8c-0.2,0.5-0.6,1.2-0.9,2.2
			c-0.7,2-1.6,4.9-2.3,8.7c-0.7,3.8-1.2,8.4-1.8,13.6c-0.3,2.6-0.7,5.3-1.2,8.1c-0.6,2.9-0.9,5.9-1.8,8.7l0,0.1l0,0.1
			c-0.3,1.9-0.1,3.5,0,5.1c0,0.8,0,1.6-0.1,2.1l0,0.1l-0.1,0.3c-0.1,0.1-0.1,0.2-0.2,0.3c-0.1,0.3-0.3,0.6-0.5,0.9
			c-0.4,0.6-0.9,1.2-1.5,2c-0.6,0.7-1.2,1.7-1.6,2.9c-0.1,0.3-0.1,0.4-0.2,0.7c-0.1,0.3-0.1,0.6-0.2,0.8c-0.1,0.5-0.1,1-0.2,1.5
			c0,1,0,1.9,0,2.9l0,1.6l-0.1,1.5c0,1.1-0.1,2.2-0.1,3.2c-0.1,2.1-0.2,4.3-0.2,6.3c-0.1,4.2-0.2,8.2-0.1,12c0,1.9,0.1,3.8,0.2,5.6
			c0,0.9,0.1,1.8,0,2.6c0,0.4,0,0.8,0,1.2c0,0.4-0.1,0.8-0.1,1.2c-0.2,3.3-0.8,6.4-1.4,9.2c-1.2,5.6-2.3,10.2-2.8,13.4
			c-0.2,1.6-0.4,2.8-0.5,3.7c-0.1,0.8-0.1,1.3-0.1,1.3s0.1-0.4,0.3-1.3C5.9,276.2,6.2,275,6.6,273.5z"/>
		<path d="M3.8,396.7L3.8,396.7c0.1-1.2,0.2-3.2,0.3-6.2c0-0.7,0-1.5,0-2.3c0-0.9-0.1-1.7-0.2-2.6c0-0.4-0.1-0.9-0.1-1.3
			c0-0.2,0,0,0-0.2c0,0,0-0.1,0.1-0.2c0.1-0.1,0.1-0.2,0.3-0.4c0.2-0.3,0.7-0.6,1.1-1.3c0.2-0.3,0.4-0.8,0.4-1.3
			c0-0.4-0.1-0.8-0.2-1.2l-0.1-0.2l-0.9-0.5c0,0,0,0,0,0c0.4-0.5,0.8-1.2,1.1-1.8l0.7-1.4l-1.7-0.4c-0.4-0.1-0.8-0.2-1-0.3
			c-0.2-0.1-0.2-0.1-0.4-0.2c0,0,0,0,0,0c0,0,0,0,0,0l0,0l0-0.1c0,0,0-0.1,0-0.1c0.1-0.2,0.3-0.6,0.5-1c0.4-0.8,1.1-1.7,1.5-2.9
			c0.4-1.1,0.7-2.3,0.9-3.5c0.1-1.2,0.1-2.4,0.1-3.6c-0.1-1.1-0.1-2.3-0.2-3.4c-0.1-2.3-0.3-4.7-0.5-7.1
			c-1.1-13.6-2.6-25.9-3.5-34.8c-0.5-4.5-0.8-8.1-1-10.6c-0.2-2.5-0.3-3.9-0.3-3.9s-0.1,1.4-0.3,3.9c-0.1,2.5-0.3,6.1-0.3,10.6
			c-0.1,9,0.5,21.4,1.6,35c0.2,2.4,0.4,4.8,0.6,7.1c0.2,2.3,0.5,4.6,0.4,6.4c-0.1,0.9-0.2,1.8-0.5,2.7c-0.3,0.8-0.7,1.6-1.2,2.6
			c-0.2,0.5-0.5,1-0.6,1.7c0,0.2-0.1,0.4-0.1,0.6l0,0.3l0,0.4c0,0.2,0.1,0.5,0.2,0.7c0.1,0.2,0.2,0.5,0.4,0.7c0.3,0.4,0.6,0.6,1,0.8
			c0.2,0.1,0.5,0.2,0.7,0.3c-0.3,0.4-0.5,0.8-0.8,1.2l0.9,2c0,0,0.3,0.1,0.7,0.2c0.1,0,0.3,0.1,0.4,0.1c0,0,0,0.1,0,0.1
			c-0.1,0.2-0.5,0.6-0.8,1.1c-0.2,0.3-0.4,0.6-0.5,0.9c0,0.2-0.1,0.3-0.1,0.5c0,0.1,0,0.4,0,0.5c0,0.6,0.1,1,0.2,1.5
			c0.2,0.9,0.4,1.7,0.5,2.5c0.1,0.8,0.2,1.6,0.3,2.3c0.3,2.8,0.5,4.9,0.6,6.1c0,0.1,0,0.2,0,0.2c0,0,0,0,0-0.1
			c-0.1-0.1-0.1-0.2-0.1-0.3c-0.1-0.2-0.1-0.3-0.1-0.3s0,0.1,0,0.3c0,0.1,0,0.2,0.1,0.4c0,0,0,0.1,0,0.1c0,0,0,0.1,0.1,0.1
			c0.1,0,0.1,0,0.1-0.1C3.8,396.9,3.8,396.8,3.8,396.7L3.8,396.7z"/>
		<path d="M17.9,292.4c-2.7,1.9-5.8,3.8-8.7,6.3c-0.5,0.4-1.1,0.9-1.5,1.3l-1.2,1l0.9,1.4c1,1.6,2.4,2.8,3.6,3.8
			c1.2,1,2.6,1.9,3.4,2.7c0.3,0.3,0.4,0.5,0.5,0.5c0,0,0,0,0,0c0,0.1-0.1,0.1-0.2,0.2l-0.3,0.2c-0.9,0.7-2.1,1.3-3.2,1.8l-3.7,1.7
			l3.8,1.3c0.9,0.3,1.5,0.4,2.2,0.5c0.6,0.1,1.3,0.2,1.9,0.3c0.6,0.1,1.2,0.2,1.7,0.4c0.5,0.1,1,0.3,1.3,0.5c0,0,0,0,0,0
			c0,0,0,0,0,0l0,0h0l0.2,0.3c0.1,0.2,0.1,0.2,0.1,0.2c0,0,0.1,0.1,0.1,0.2c0.1,0.2,0,0.5-0.2,0.9c-0.4,0.8-1.3,1.7-1.8,2.9
			c-0.3,0.6-0.4,1.3-0.4,1.9l0,0.5l0,0.1l0,0.1l0,0l0,0l0,0l0,0.2c0,0.2,0.2,0.6,0.3,0.9c0.5,1,1.2,1.8,1.9,2.5
			c1.3,1.3,2.5,2.3,3.1,3.4c0.8,2.3,1.1,4.2,1.2,5.5c0.1,1.3,0,2,0,2s0.2-0.7,0.3-2c0.1-1.3,0.1-3.3-0.5-5.9l0,0l0-0.1
			c-0.6-1.4-1.8-2.6-2.9-4c-0.5-0.7-1-1.4-1.3-2.2c0-0.1,0-0.2-0.1-0.2l0-0.1l0-0.2l0-0.2l0,0l0-0.1l0-0.3c0-0.4,0.1-0.7,0.3-1.1
			c0.4-0.7,1.2-1.4,2-2.6c0.4-0.6,0.7-1.5,0.6-2.5c0-0.2-0.1-0.5-0.2-0.7c-0.1-0.2-0.2-0.5-0.2-0.6l-0.2-0.4l0,0l-0.1-0.2l0,0
			l-0.1-0.1l-0.1-0.2c-0.1-0.1-0.2-0.2-0.3-0.3c-0.8-0.6-1.4-0.8-2.1-1.1c-0.5-0.2-1.1-0.3-1.6-0.5c0.1,0,0.1-0.1,0.2-0.1l0.5-0.5
			c0.2-0.2,0.4-0.4,0.5-0.6c0.4-0.4,0.7-1.1,0.8-1.9c0.1-0.8-0.2-1.6-0.5-2.1c-0.3-0.5-0.6-0.9-0.9-1.3c-1.3-1.3-2.5-2.1-3.6-3.1
			c-0.7-0.5-1.3-1.1-1.8-1.7c0,0,0,0,0.1-0.1c2.6-2.2,5.6-4.1,8.5-6.2c2.8-2.1,5.5-4.5,7.4-7.4c0.5-0.8,0.9-1.4,1.3-2.1l0.1-0.1l0,0
			l0.1-0.1l0,0l0-0.1l0.1-0.3l0.2-0.5c0.2-0.4,0.3-0.7,0.5-1.1c0.6-1.4,1.1-2.9,1.5-4.2c0.8-2.8,1.3-5.4,1.7-7.8
			c0.7-4.8,1.1-8.6,1.4-11.3c0.3-2.7,0.5-4.1,0.5-4.1s-0.4,1.4-1.1,4c-0.7,2.6-1.5,6.4-2.7,11c-0.6,2.3-1.3,4.8-2.3,7.3
			c-0.5,1.3-1,2.6-1.7,3.9c-0.1,0.3-0.3,0.6-0.5,1l-0.3,0.5l-0.1,0.2l0,0l0,0l-0.1,0.1c-0.4,0.6-0.8,1.3-1.3,1.8
			C23.1,288.5,20.7,290.5,17.9,292.4z"/>
		<path d="M17.4,228.1c-0.8,1.9-1.5,3.9-2.1,6.1c-0.3,1.1-0.6,2.1-0.8,3.4c-0.1,0.6-0.2,1.3-0.1,2.2c0,0.2,0,0.4,0.1,0.7
			c0.1,0.2,0.1,0.5,0.2,0.7c0.2,0.5,0.6,1,1,1.4c1.2,0.9,2.3,1,3.1,1.1c-0.2,0.5-0.5,1.1-0.8,1.6c-0.7,1.2-1.6,2.4-2.4,3.6
			c-0.8,1.2-1.6,2.4-2.2,3.7c-0.6,1.3-1,2.6-1.1,3.9l-0.1,2.1l1.7-1c1.8-1.1,3-2.4,3.9-3.6c0.9-1.2,1.7-2.2,2.3-3
			c0.6-0.8,1.1-1.4,1.5-1.8c0.4-0.4,0.6-0.6,0.6-0.6s-0.2,0.2-0.7,0.4c-0.4,0.3-1.1,0.8-1.9,1.5c-0.8,0.7-1.7,1.6-2.8,2.5
			c-0.3,0.3-0.7,0.6-1.1,0.9c0.6-1,1.5-2.1,2.4-3.2c0.9-1.1,1.9-2.3,2.9-3.7c0.9-1.4,1.9-3.2,1.9-5.5l0.1-2l-2.1,0.1
			c-0.3,0-0.6,0-0.9,0.1c-0.3,0-0.6,0-0.9,0l-0.4,0c-0.1,0-0.2-0.1-0.3-0.1c-0.2,0-0.3-0.1-0.3-0.1c0,0,0,0,0,0c0,0,0-0.1,0-0.1
			c0,0,0-0.1,0-0.2c0-0.3,0-0.7,0.1-1.2c0.1-0.9,0.4-2.1,0.6-3.1c0.5-2,1-4,1.6-5.9c1.2-3.8,2.3-7.2,3.2-10.1c0.9-2.9,1.4-5.3,1.7-7
			c0.2-0.8,0.2-1.5,0.3-1.9c0.1-0.4,0.1-0.7,0.1-0.7s-0.1,0.2-0.2,0.6c-0.2,0.4-0.4,1-0.7,1.8c-0.6,1.6-1.6,3.8-2.9,6.5
			C20.6,221.1,19,224.3,17.4,228.1z"/>
		<path d="M39.5,439.2c-0.3-0.4-0.6-0.7-0.8-1.2c-0.6-0.9-1.2-2-2-3.2c-0.7-1.2-1.5-2.6-2.4-4c-0.9-1.4-1.9-2.7-2.9-3.9
			c-1-1.1-2-2.1-3-2.8c-0.5-0.4-0.9-0.7-1.3-0.9c-0.4-0.3-0.7-0.4-1-0.6c-0.6-0.3-0.9-0.4-0.9-0.4s0.2,0.3,0.5,0.9
			c0.2,0.3,0.4,0.6,0.6,1c0.2,0.4,0.5,0.8,0.7,1.3c1.1,1.9,2.3,4.6,4.1,7.5c0.9,1.4,2,2.7,3,3.9c1.1,1.1,2.2,2,3.2,2.6
			c0.5,0.3,1,0.6,1.4,0.8c0.4,0.2,0.8,0.4,1.1,0.4c0.6,0.2,1,0.3,1,0.3s-0.2-0.3-0.6-0.8C40,439.9,39.7,439.6,39.5,439.2z"/>
		<path d="M29.6,435.5c-0.2-0.1-0.4-0.3-0.6-0.4c-0.4-0.3-1-0.6-1.4-1.1c-0.2-0.2-0.5-0.5-0.8-0.7c-0.2-0.3-0.5-0.6-0.7-0.9
			c-0.5-0.5-0.9-1.3-1.5-2c-0.9-1.5-1.9-3.2-2.9-5.1c-1-1.9-2.1-3.7-3.2-5.3c-0.6-0.8-1.1-1.6-1.7-2.2c-0.3-0.3-0.6-0.7-0.8-1
			c-0.3-0.3-0.6-0.6-0.9-0.8c-0.5-0.5-1.1-0.9-1.6-1.3c-0.2-0.2-0.5-0.3-0.7-0.5c-0.2-0.1-0.4-0.2-0.6-0.3c-0.1,0-0.1-0.1-0.2-0.1
			c-0.8-4.3-1.6-8.3-2.6-11.3c-0.2-0.7-0.4-1.2-0.6-1.8c0.3,0,0.5,0,0.5,0s-0.2,0-0.5-0.1c-0.3-0.8-0.6-1.5-0.9-2.1
			c-0.2-0.3-0.3-0.6-0.4-0.8c2.8-1.4,6.4-3,10.8-4.3c0.8-0.2,1.5-0.4,2.4-0.6c0.8-0.2,1.6-0.4,2.5-0.5c1.5-0.3,3.3-0.2,5.1,0
			c1.9,0.2,3.8,0.4,5.9,0.6c1,0.1,2.1,0.2,3.2,0.2c0.5,0,1,0,1.6-0.1c0,0.2,0.1,0.3,0.1,0.5c0.3,0.8,0.6,2.1,0.9,3.5
			c0.7,3,1.3,7,1.5,11.5c0.2,4.5,0.4,8.8,0.9,11.9c0.2,1.6,0.4,2.8,0.6,3.7c0.2,0.9,0.3,1.3,0.3,1.3s0.1-0.5,0.3-1.3
			c0.2-0.9,0.4-2.1,0.7-3.6c0.5-3.1,1.3-7.3,1-12.1c-0.1-2.4-0.6-4.8-1.2-6.8c-0.6-2.1-1.5-3.8-2.3-5.2c-0.8-1.4-1.6-2.4-2.2-3.1
			c-0.1-0.1-0.2-0.2-0.2-0.3c0.6-0.1,1.1-0.2,1.8-0.4l2.7-1l-2.2-2.1c-1-1-1.9-2.5-2.6-4.3c-0.5-1.4-0.9-3-1.2-4.5
			c-0.3-1.5-0.5-3.1-0.6-4.7c-0.3-3.1-0.5-6.2-0.7-9.1c-0.1-0.8-0.1-1.5-0.2-2.2c0-0.4-0.1-0.7-0.1-1.1l0-0.1l0,0c0,0,0,0,0,0.1l0,0
			l0-0.1l0-0.3l0-0.5c-0.1-1.4-0.1-2.7-0.2-4c-0.2-2.6-0.3-5-0.4-7.3c-0.6-8.9-1.1-14.4-1.1-14.4s-0.4,5.5-0.8,14.4
			c-0.1,2.2-0.2,4.7-0.3,7.3c0,1.3-0.1,2.7-0.1,4l0,0.5l0,0.3l0,0.1l0,0l0,0.1l0,0.1c0,0.4,0,0.7,0,1.1c0,0.7,0,1.4,0,2.1
			c0,2.9,0,6,0.2,9.3c0.1,1.6,0.3,3.3,0.6,5c0.3,1.7,0.7,3.4,1.3,5.2c0.4,1,0.8,2,1.4,3c-0.8,0-1.7,0-2.6-0.1c-2-0.1-4-0.3-5.9-0.4
			c-2,0-3.9-0.1-5.9,0.4c-0.8,0.2-1.7,0.5-2.6,0.7c-0.8,0.3-1.6,0.6-2.4,0.9c-6.2,2.5-10.6,5.6-13.3,7.5L3.8,399l0.4,0.3
			c1.3,0.8,2.4,1.1,3.3,1.3c0,0.7,0.1,1.4,0.1,2.3c0.1,3.4,0.1,8.2,1.1,13.6c0.5,2.7,1.4,5.2,2.5,7.4c1.2,2.2,2.6,4,4.1,5.1
			c1.5,1.2,2.8,1.8,3.8,2.1c0.5,0.2,0.9,0.2,1.1,0.3c0.3,0.1,0.4,0.1,0.4,0.1s-0.1-0.1-0.3-0.2c-0.2-0.2-0.5-0.4-0.9-0.7
			c-0.7-0.6-1.7-1.6-2.7-2.9c-1-1.3-1.8-3.1-2.5-5.1c-0.7-2-1.2-4.4-1.7-6.9c-0.1-0.3-0.1-0.6-0.2-0.9c0,0,0,0,0,0
			c0.1,0.2,0.3,0.4,0.4,0.7c0.3,0.5,0.6,1,0.9,1.6c0.2,0.3,0.3,0.6,0.5,1c0.2,0.3,0.3,0.7,0.5,1.1c0.4,0.7,0.7,1.5,1.1,2.4
			c0.8,1.7,1.6,3.6,2.6,5.6c1.1,2,2.3,3.8,3.7,5.3c0.4,0.4,0.7,0.7,1.1,1c0.3,0.3,0.7,0.6,1.1,0.9c0.4,0.3,0.7,0.5,1.1,0.7
			c0.4,0.2,0.8,0.4,1.1,0.5c0.7,0.4,1.4,0.5,2,0.6c0.3,0.1,0.6,0.1,0.8,0.2c0.3,0,0.5,0,0.7,0c0.8,0,1.3,0,1.3,0s-0.4-0.2-1.1-0.6
			C30,435.7,29.8,435.6,29.6,435.5z M5.1,399c0.7-0.3,1.4-0.7,2.2-1.1c0,0.2,0,0.5,0.1,0.8c0,0.4,0.1,0.9,0.1,1.5
			C6.8,400,6,399.7,5.1,399z"/>
		<path d="M106.8,315.6c0.3,0.5,0.5,1.1,0.8,1.7c0.3,0.6,0.7,1.2,1.1,1.8c1.5,2.5,3.6,5.3,6.2,8.2c2.6,2.9,5.8,5.7,9.3,8.4
			c3.6,2.7,7.2,4.9,10.7,6.6c3.5,1.7,6.7,3,9.5,3.7c0.7,0.2,1.4,0.4,2,0.6c0.6,0.2,1.3,0.3,1.8,0.4c1.1,0.2,2.1,0.4,2.9,0.5
			c1.6,0.1,2.5,0.2,2.5,0.2s-0.8-0.3-2.4-0.8c-0.8-0.2-1.7-0.6-2.7-1c-0.5-0.2-1.1-0.4-1.7-0.7c-0.6-0.3-1.2-0.6-1.8-0.9
			c-2.6-1.2-5.5-2.9-8.7-4.8c-3.2-2-6.5-4.3-10-6.8c-3.4-2.6-6.6-5.2-9.3-7.7c-2.7-2.5-5.1-4.9-7-7c-0.5-0.5-0.9-1-1.3-1.5
			c-0.4-0.5-0.7-1-1.1-1.4c-0.7-0.9-1.3-1.6-1.7-2.3c-0.9-1.3-1.4-2.1-1.4-2.1s0.3,0.8,0.8,2.4C105.9,313.6,106.3,314.5,106.8,315.6
			z"/>
		<path d="M87.2,253.6c1.2,0.2,2.4,0,3.4-0.4c0.3-0.1,0.7-0.3,1-0.4l0.1-0.1l0.2-0.1c0.6-0.5,1.1-1.2,1.3-1.9
			c0.2-0.7,0.3-1.3,0.2-1.9c-0.1-1.1-0.5-2-1-2.8c-1-1.5-2.5-2.5-4-2.6c-0.7,0-1.3,0.2-1.8,0.4c-0.4,0.3-0.7,0.5-1,0.8
			c-0.2,0.3-0.3,0.5-0.4,0.6c-0.1,0.1-0.1,0.2-0.1,0.2s0.1,0,0.2-0.1c0.1-0.1,0.4-0.2,0.6-0.3c0.5-0.2,1.4-0.3,2.1,0.1
			c0.7,0.4,1.3,1.2,1.6,2.2c0.2,0.5,0.2,1.1,0.2,1.5c0,0.2-0.1,0.4-0.1,0.5c0,0,0,0,0,0c-0.1,0.1-0.3,0.1-0.4,0.2
			c-0.6,0.2-1.2,0.4-1.6,0.3c-0.5,0-0.9-0.1-1.3-0.4c-0.8-0.5-1.4-1.6-1.7-2.6c-0.3-1-0.3-1.9-0.3-2.6c0-0.7,0.1-1.1,0.1-1.1
			s-0.2,0.3-0.6,0.9c-0.3,0.6-0.8,1.5-1,2.9c0,0.3-0.1,0.7-0.1,1.1c0,0.4,0,0.8,0.1,1.2c0.2,0.8,0.6,1.7,1.3,2.6
			C84.9,252.7,86,253.4,87.2,253.6z"/>
		<path d="M99.6,304.1c0.8,0.6,2,0.8,2.9,0.6c0.9-0.2,1.7-0.7,2.3-1.3c0.6-0.6,1.1-1.3,1.3-2.2c0.3-0.8,0.3-1.9-0.2-2.7
			c-0.4-0.9-1.1-1.4-1.7-1.6c-0.6-0.2-1.1-0.3-1.6-0.3c-0.9,0-1.6,0.2-2,0.4c-0.4,0.2-0.7,0.3-0.7,0.3s0.2,0.1,0.7,0.3
			c0.4,0.2,1,0.5,1.6,0.9c0.3,0.2,0.5,0.4,0.7,0.7c0.1,0.2,0.2,0.4,0.1,0.5c-0.1,0.1-0.1,0.2-0.3,0.4c-0.1,0.2-0.3,0.5-0.6,0.7
			c-0.2,0.2-0.5,0.4-0.6,0.5c-0.2,0.1-0.1,0.1-0.2,0.2c-0.1,0.1-0.3,0-0.5-0.3c-0.1-0.1-0.2-0.2-0.3-0.4c-0.1-0.1-0.2-0.3-0.3-0.5
			c-0.2-0.3-0.3-0.6-0.4-0.9c-0.1-0.3-0.2-0.5-0.3-0.8c-0.2-0.4-0.3-0.7-0.3-0.7s-0.1,0.2-0.3,0.7c-0.1,0.2-0.2,0.5-0.3,0.8
			c-0.1,0.3-0.2,0.7-0.2,1.2c0,0.2,0,0.5,0,0.7c0,0.3,0,0.5,0.1,0.8C98.5,302.7,98.8,303.5,99.6,304.1z"/>
		<path d="M157.2,242.7c0,0-0.4,0.2-1.1,0.4c-0.7,0.4-1.8,1-2.5,2.4c-0.3,0.7-0.7,1.6-0.6,2.6c0,1,0.3,2.1,0.8,3
			c0.3,0.5,0.6,0.9,1,1.4c0.4,0.4,0.8,0.8,1.3,1.1c1,0.7,2.1,1.1,3.2,1.4c0.4,0.1,0.8,0.1,1.1,0.2l1.4,0.2l0.5-1.4
			c0.3-0.9,0.6-1.9,0.7-2.8c0.1-1,0-2-0.2-2.8c-0.5-1.8-1.3-2.9-2-3.9l-0.3-0.5l-0.3-0.1c-0.9-0.2-1.8-0.1-2.5,0.3
			c-0.6,0.4-0.9,0.8-1.2,1.1c-0.5,0.6-0.8,0.9-0.8,0.9s0.5-0.1,1.2-0.4c0.4-0.2,0.8-0.4,1.3-0.4c0.3,0,0.6,0,0.9,0.1
			c0.3,1,0.6,2.1,0.6,3.2c0,0.7-0.1,1.5-0.3,2.2c-0.5-0.1-1-0.3-1.4-0.6c-0.3-0.1-0.6-0.4-0.9-0.5c-0.2-0.2-0.5-0.4-0.7-0.7
			c-0.9-0.9-1.2-2-1.1-3.1C155.8,243.9,157.3,242.7,157.2,242.7z"/>
		<path d="M118.4,423.3c0.3-2.4,0.4-3.7,0.4-3.7s-0.2,1.3-0.6,3.7c-0.4,2.4-1,6-1.6,10.6c-1.3,9.2-2.9,22.7-4.3,39.3
			c-1.4,16.6-2.6,36.5-3.7,58.5c-1.1,22-2.3,46.2-4.2,71.5c-1.5,17.8-3.2,35-3.5,51.5c-0.1,4.1,0,8.2,0.1,12.1
			c0.1,4,0.3,7.9,0.5,11.7c0.4,7.6,0.9,15,1.3,22c0.9,14,1.5,26.6,1.4,37.6c0,2.7-0.1,5.4-0.1,7.9c-0.1,2.6,0.2,5,0.3,7.3
			c0.1,2.3,0,4.4-0.4,6.4c0,0.2-0.1,0.4-0.1,0.6c-0.8-0.1-2.9-0.2-5.9-0.2c-1.9,0-4.2,0-6.6,0c-2.5,0-5.2,0-7.9-0.2
			c-1.1-0.1-2.2-0.2-3.2-0.4c0-0.2,0-0.3,0-0.3s-0.1,0.1-0.3,0.2c-1.4-0.3-2.7-0.7-4-1.1c-2.3-0.8-4.4-1.6-6.3-2.2
			c-1.3-0.4-2.4-0.7-3.3-0.9c0,0,0.1-0.1,0.1-0.1c0.2-0.2,0.5-0.3,0.6-0.5c0.1-0.1,0.2-0.1,0.2-0.1s-0.1,0-0.2,0.1
			c-0.2,0.1-0.4,0.2-0.7,0.4c-0.1,0.1-0.2,0.1-0.3,0.2c-0.3-0.1-0.6-0.1-0.9-0.2c-1.1-0.2-1.7-0.2-1.7-0.2s0.5,0.3,1.5,0.8
			c0.1,0.1,0.2,0.1,0.3,0.2c-0.4,0.3-0.8,0.8-1.2,1.3c-0.8,1.1-1.6,2.5-2.3,4.3c-0.7,1.7-1.3,3.8-2,6c-0.7,2.2-1.7,4.5-2.7,7
			c-0.5,1.3-1,2.7-1.4,4.1c-0.2,0.8-0.4,1.6-0.5,2.4c-0.1,0.9-0.1,1.8,0.1,2.8c0.1,0.6,0.4,1.2,0.6,1.7c0.3,1.7,0.4,4,1.1,7
			c0.4,1.5,1,3.2,2,4.9c0.2,0.4,0.5,0.8,0.8,1.2l0.2,0.3l0.2,0.3l0.4,0.6c0.3,0.4,0.7,0.8,1.1,1.2c0.4,0.4,0.8,0.8,1.3,1.1
			c0.9,0.7,2,1.3,3.2,1.6c1.2,0.4,2.3,0.6,3.5,0.7c1.2,0.1,2.3,0.2,3.5,0.2c0.6,0,1.1,0,1.7,0l0.8,0l0.4,0l0.3,0l0.1,0l0.2,0
			c2.2,0,4.9-0.4,7.2-1.2c2.3-0.8,4.3-2,6-3.5c1.7-1.5,2.8-3.2,3.8-4.8c0.9-1.7,1.6-3.3,2-4.8c0.9-3,1.3-5.5,1.5-7.2
			c0.1-0.6,0.1-1,0.2-1.4c0.1-0.7,0.2-1.3,0.3-1.9c0.2-2.4,0.2-4.5,0.3-6.3c0.1-1.8,0.2-3.4,0.5-4.7c0.1-0.6,0.2-1.2,0.4-1.7
			c0.1-0.5,0.2-0.9,0.4-1.2c0.1-0.2,0.1-0.3,0.2-0.4c0.2,0,0.4-0.1,0.5-0.1c0.2-0.1,0.5-0.1,0.7-0.2c0.2-0.1,0.5-0.2,0.7-0.4l0,0
			c1.7-1,2.9-2.9,3.4-4.9c0.6-2.1,0.7-4.3,0.7-6.6c0-2.3-0.2-4.7,0-7.2c0.2-2.5,0.3-5.2,0.4-7.9c0.4-11,0.2-23.7-0.4-37.8
			c-0.3-7-0.6-14.3-0.9-22c-0.1-3.8-0.2-7.7-0.3-11.6c0-3.9,0-7.9,0.1-12c0.4-16.2,2.3-33.4,3.8-51.2c2-25.4,2.8-49.7,3.6-71.7
			c0.8-22,1.5-41.9,2.4-58.5c0.9-16.6,2-30.1,3-39.4C117.7,429.4,118.1,425.8,118.4,423.3z M91.7,793.5c-1,1.3-2.2,2.7-3.7,3.8
			c-1.5,1.1-3.2,1.9-5.1,2.5c-1,0.2-2,0.5-2.9,0.6c-0.5,0-0.9,0.2-1.5,0.2c-0.6,0-1.2,0-1.7,0.1l-0.2,0l-0.1,0l0,0l-0.4,0l-0.9,0
			c-0.6,0-1.2,0-1.7,0c-1.1,0-2.2,0-3.2-0.1c-2-0.1-3.8-0.5-5.2-1.4c-0.4-0.2-0.7-0.5-1.1-0.7c-0.3-0.3-0.6-0.5-0.9-0.8l-0.5-0.5
			l-0.2-0.2l-0.2-0.2c-0.3-0.3-0.6-0.7-0.8-1c-1-1.3-1.8-2.7-2.3-4.1c-0.6-1.5-1.1-3-1.5-4.3c0.2,0.3,0.4,0.5,0.6,0.8
			c0.5,0.6,1,1.2,1.4,1.8l0.3,0.5l0.2,0.3l0.1,0.2c0.2,0.3,0.4,0.7,0.6,1c0.4,0.7,0.8,1.4,1.2,2.2c0.4,0.8,0.9,1.7,1.9,2.6
			c1,0.9,2.2,1.3,3.2,1.5c0.5,0.1,1,0.2,1.5,0.2l1.3,0.1c3.3,0.2,6.8,1.2,10.6,0.8c2-0.2,3.8-0.9,5.3-1.8c1.5-0.9,2.9-2,4-3.1
			c1.2-1.1,2.2-2.3,3.2-3.4c0.4-0.4,0.7-0.9,1.1-1.3C93.5,790.9,92.7,792.2,91.7,793.5z M99.3,765.7c-0.2,0.3-0.4,0.7-0.6,1.1
			c-0.2,0.5-0.4,1-0.6,1.6c-0.4,1.2-0.8,2.8-1.1,4.7c-0.3,1.8-0.6,3.9-1,6.2c-0.2,1.1-0.5,2.2-0.9,3.4c-0.4,1.1-0.9,2.2-1.6,3.2
			c-0.3,0.5-0.8,1-1.2,1.5c-0.5,0.5-1,1-1.4,1.6c-1,1-2,2-3.1,3c-1.1,0.9-2.3,1.8-3.6,2.5c-1.3,0.7-2.6,1.1-4,1.2
			c-2.9,0.2-6.2-0.7-10-0.9l-1.3-0.1c-0.4,0-0.7-0.1-1.1-0.2c-0.7-0.1-1.2-0.3-1.5-0.6c-0.7-0.5-1.5-2.3-2.4-3.8
			c-0.2-0.4-0.5-0.7-0.7-1.1c-0.1-0.1-0.1-0.1-0.2-0.3l-0.2-0.2l-0.4-0.5c-0.6-0.7-1.1-1.4-1.7-2c-1.1-1.2-1.9-2.2-2.2-3.3
			c-0.2-0.5-0.2-1.1-0.2-1.7c0-0.6,0.1-1.3,0.3-1.9c0.3-1.4,0.7-2.7,1.1-4c0.8-2.6,1.6-5,2.1-7.4c0.5-2.3,0.8-4.4,1.3-6.1
			c0.5-1.7,1-3.2,1.6-4.3c0.3-0.6,0.7-1.1,1-1.5c0.9,0.5,1.9,1.2,3.2,2c1.6,1,3.5,2.2,5.8,3.4c0.9,0.4,1.9,0.8,2.9,1.2
			c-0.2,0.4-0.4,0.8-0.5,1.3c-2.5-0.2-4.7,0.3-6.2,0.9c-0.9,0.4-1.6,0.7-2.1,1c-0.5,0.3-0.7,0.4-0.7,0.4s0.3,0.1,0.8,0.2
			c0.5,0.1,1.3,0.2,2.2,0.3c1.5,0.2,3.3,0.6,5.3,0.9c0,0.2,0,0.4,0,0.6c-2.3,0.1-4.4,1-5.7,2c-0.3,0.3-0.6,0.6-0.9,0.8
			c-0.2,0.3-0.4,0.5-0.5,0.7c-0.2,0.4-0.3,0.7-0.3,0.7s0.3-0.1,0.7-0.2c0.2-0.1,0.5-0.1,0.8-0.2c0.3-0.1,0.6-0.1,1-0.1
			c1.4-0.1,3.2-0.1,5.2,0c0.1,0.6,0.2,1.1,0.3,1.6c0.3,1.5,0.6,2.6,0.6,2.6s0.7-0.8,1.3-2.4c0.2-0.5,0.4-1.1,0.6-1.8
			c1.2,0,2.4,0,3.3,0c0.4,0,0.7,0,1.1,0c0.3,0,0.6,0,0.8,0.1c0.5,0,0.7,0.1,0.7,0.1s-0.1-0.2-0.5-0.6c-0.2-0.2-0.4-0.4-0.6-0.6
			c-0.3-0.2-0.6-0.5-0.9-0.7c-0.8-0.6-2-1.2-3.3-1.6c0-0.1,0-0.2,0-0.3c1.5,0.3,2.9,0.5,4.1,0.7c1.8,0.3,3,0.3,3,0.3
			s-0.8-0.9-2.3-2.1c-1.1-0.9-2.8-1.9-4.8-2.6c0-0.2,0-0.3,0-0.5c0.8,0.1,2.4,0.4,4.9,0.8c1.8,0.3,4.1,0.6,6.8,0.8
			c1.4,0.1,2.9,0.2,4.5,0.2c0.8,0,1.6,0,2.5-0.1c0.2,0,0.4-0.1,0.7-0.1C99.4,765.5,99.4,765.6,99.3,765.7z M101.1,764L101.1,764
			l-0.6,0.3c-0.2,0.1-0.4,0.1-0.6,0.2c-0.4,0.1-0.8,0.2-1.2,0.3c-0.8,0.1-1.6,0.2-2.4,0.2c-1.6,0-3.1,0-4.4-0.1
			c-2.7-0.1-5-0.4-6.8-0.5c-2.5-0.3-4.1-0.5-4.9-0.6c0-0.2,0-0.4,0-0.6c0.2,0,0.4,0.1,0.6,0.1c0.7,0.1,1.6,0.2,2.3,0.3
			c3.1,0.2,5.9,0,8.5-0.4c2.5-0.4,4.8-0.9,6.6-1.3c2.9-0.7,4.8-1.3,5.6-1.6C103.2,761.9,102.3,763.3,101.1,764z"/>
		<path d="M71.1,420.6c0.1-1.1,0.1-1.7,0.1-1.7s-0.1,0.6-0.3,1.7c-0.2,1.1-0.5,2.7-0.7,4.8c-0.6,4.2-1,10.3-1,17.9
			c0,7.6,0.4,16.6,1.1,26.5c0.7,10,1.7,20.8,1.8,32.3c0.2,11.4-0.1,22.4-0.2,32.4c-0.1,10,0.1,19,0.5,26.6
			c0.4,7.6,1.2,13.7,1.8,17.8c0.3,2.1,0.6,3.7,0.8,4.8c0.2,1.1,0.3,1.7,0.3,1.7s0-0.6-0.1-1.7c-0.1-1.1-0.3-2.7-0.4-4.8
			c-0.3-4.2-0.5-10.3-0.5-17.8c0-7.5,0.3-16.5,0.8-26.4c0.4-10,0.9-20.9,0.8-32.5c-0.1-5.8-0.4-11.5-0.9-16.9
			c-0.5-5.4-1-10.6-1.5-15.6c-1.1-9.9-2-18.8-2.4-26.3c-0.5-7.5-0.5-13.6-0.3-17.8C70.9,423.3,71,421.7,71.1,420.6z"/>
		<path d="M77.8,704.6c0.2-1.5,0.5-3.1,0.7-4.7c0.1-0.8,0.2-1.6,0.2-2.4c0.1-0.8,0.1-1.6,0.2-2.5c1.1-16.8,0.4-32.1-0.8-43.1
			c-0.6-5.5-1.3-9.9-1.8-12.9c-0.5-3-0.9-4.7-0.9-4.7s0.1,1.7,0.3,4.8c0.2,3.1,0.4,7.5,0.5,13c0.3,11-0.1,26.1-1.1,42.7
			c0,0.8-0.1,1.6-0.1,2.3c-0.1,0.8-0.1,1.6-0.2,2.4c-0.2,1.5-0.4,3.1-0.6,4.6c-0.4,3-0.8,6-1.2,8.9c-0.7,5.8-1.1,11.2-0.2,16l0-0.2
			c0,1.3,0.6,2.5,1.2,3.4c0.6,0.9,1.2,1.6,1.8,2.3c1.2,1.4,2,2.7,2.3,4.1c0.3,1.5,0.4,3,0.3,4.4c0,1.4-0.1,2.6-0.2,3.8
			c-0.2,2.3-0.4,4.1-0.5,5.3c-0.1,1.2-0.2,1.9-0.2,1.9s0.1-0.6,0.4-1.8c0.3-1.2,0.7-2.9,1.1-5.2c0.2-1.1,0.4-2.4,0.6-3.8
			c0.1-0.7,0.1-1.5,0.2-2.2c0-0.4,0-0.8,0-1.2c0-0.5,0-0.8-0.1-1.3c-0.2-1.8-1.2-3.6-2.3-5.1c-1.1-1.5-2.2-3-2.1-4.5l0,0l0-0.2
			c-0.5-4.3,0.2-9.5,1.1-15.1C76.8,710.6,77.3,707.6,77.8,704.6z"/>
		<path d="M56.4,594.2c1.1,14.1,1.9,26.9,2.6,37.6c0.7,10.7,1.3,19.4,1.7,25.4c0.5,6,0.7,9.3,0.7,9.3s-0.2-13.3-0.6-34.7
			c-0.2-10.7-0.5-23.5-1.3-37.7c-0.2-3.6-0.4-7.2-0.6-10.9c-0.3-3.7-0.6-7.5-1-11.4c-0.6-7.7-1.3-15.6-2-23.8
			c-2.7-32.6-5.4-62.2-8.1-83.5c-1.3-10.7-2.5-19.3-3.3-25.2c-0.2-1.4-0.4-2.6-0.6-3.7c1,1.5,1.7,2.8,2.2,3.8
			c0.3,0.6,0.5,1.1,0.6,1.4c0.1,0.3,0.2,0.5,0.2,0.5s0-0.2,0-0.5c0-0.3-0.1-0.9-0.2-1.5c-0.2-1.3-0.7-3.2-1.7-5.4
			c-0.5-1.1-1.1-2.3-1.9-3.6c0-0.1,0-0.2,0-0.2s0,0.1,0,0.1c-0.7-1.2-1.5-2.4-2.4-3.7c-1.8-2.6-3.8-5.2-5.5-8.1
			c-1.6-2.8-2.5-5.6-2.5-8.3c0-1.9,0.3-3.7,0.8-5.3c0.2,0.3,0.3,0.6,0.5,0.9c0.5,0.9,0.9,1.6,1.2,2.2c0.7,1.2,1.2,1.8,1.2,1.8
			s-0.3-0.7-0.7-2c-0.2-0.7-0.4-1.5-0.6-2.4c-0.2-1-0.5-2.1-1-3.3l-0.7-1.7l-1.1,1.7c-1.3,2-2.6,4.7-3,8c-0.2,1.7-0.1,3.5,0.4,5.2
			c0.4,1.8,1.2,3.5,2.1,5.1c1.9,3.3,4.3,5.9,6.3,8.2c2,2.3,3.8,4.3,5.1,6.2c0.1,0.1,0.1,0.2,0.2,0.3c0.1,1.2,0.2,2.7,0.4,4.4
			c0.5,6,1.2,14.6,2,25.3c1.7,21.4,3.5,51,6.2,83.6c0.7,8.2,1.4,16.1,2.1,23.8c0.4,3.8,0.8,7.6,1.1,11.3
			C55.8,587.1,56.1,590.7,56.4,594.2z"/>
		<path d="M127.2,442c-3.1,1.5-5.6,3.4-7.2,5c-1.7,1.6-2.5,2.7-2.5,2.7s1.4-0.4,3.5-1.1c2.1-0.7,5-1.7,8-3.2c3-1.5,5.5-3.2,7.4-4.5
			c1.8-1.4,2.9-2.3,2.9-2.3s-1.4,0.1-3.7,0.6C133.2,439.6,130.2,440.4,127.2,442z"/>
		<path d="M117.8,451.6c1.2,1.8,2.7,4.5,4.2,8.3c1.5,3.8,2.8,8.5,3.6,14.2c0.8,5.7,1,12.2,0.8,19.4c-0.2,7.2-1,15.1-1.8,23.6
			c-0.4,4.2-0.8,8.7-1.1,13.2c-0.3,4.5-0.6,9.2-0.9,14c-1.1,19.1-2.2,40.2-2.2,62.4c0,22.1,0.1,43.2-0.3,62.3
			c-0.1,4.8-0.2,9.4-0.4,14c-0.1,2.3-0.2,4.5-0.2,6.7c-0.1,2.2-0.1,4.4-0.1,6.5c0,8.6,0.5,16.5,0.8,23.8c0.7,14.5,0.8,26.2-0.1,34.2
			c-0.1,1-0.2,2-0.3,2.8c-0.1,0.9-0.3,1.7-0.4,2.5c-0.2,1.5-0.4,2.8-0.7,3.9c-0.4,2.1-0.7,3.2-0.7,3.2s0.3-1.1,0.8-3.2
			c0.3-1,0.6-2.3,0.9-3.9c0.1-0.8,0.3-1.6,0.5-2.5c0.1-0.9,0.3-1.8,0.4-2.8c1.3-8,1.7-19.8,1.4-34.3c-0.1-7.2-0.3-15.2-0.1-23.6
			c0-2.1,0.2-4.3,0.3-6.5c0.1-2.2,0.3-4.4,0.4-6.7c0.3-4.5,0.5-9.2,0.7-14c0.8-19.2,0.9-40.3,0.9-62.4c0.1-22.1,0.9-43.1,1.6-62.2
			c0.2-4.8,0.4-9.5,0.6-14c0.2-4.5,0.5-8.9,0.8-13.1c0.6-8.5,1.1-16.5,1.1-23.7c0-7.3-0.5-13.9-1.5-19.6c-1-5.7-2.6-10.5-4.2-14.2
			c-1.7-3.7-3.4-6.4-4.6-8.1c-0.6-0.9-1.1-1.5-1.5-1.9c-0.3-0.4-0.5-0.6-0.5-0.6s0.2,0.2,0.5,0.7
			C116.8,450.1,117.3,450.7,117.8,451.6z"/>
		<path d="M166.5,526.7c-1.3,31-2.4,59.1-3,79.5c-0.6,20.4-0.7,33-0.7,33s1.1-12.6,2.6-32.9c1.5-20.3,3.6-48.4,4.9-79.4
			c0.3-7.8,0.6-15.3,0.7-22.7c0.1-7.4-0.4-14.5-1.2-21.3c-1.5-13.5-3.7-25.4-5.1-35.5c-1.5-10.1-2.2-18.2-2.5-23.9
			c-0.2-2.8-0.2-5.1-0.2-6.6c0-1.5,0-2.3,0-2.3s0,0.8-0.1,2.3c-0.1,1.5-0.2,3.7-0.2,6.6c-0.1,5.7,0.2,14,1.2,24.1
			c0.9,10.2,2.6,22.2,3.8,35.5c0.5,6.7,0.9,13.7,0.7,20.9C167.2,511.4,166.8,519,166.5,526.7z"/>
		<path d="M133.6,732.2c0.3-0.3,0.7-0.6,1.2-0.8c1.4-0.8,3.1-1.5,4.8-2.5c0.2-0.1,0.4-0.2,0.7-0.4c0.2-0.2,0.4-0.3,0.7-0.6
			c0.1-0.1,0.3-0.3,0.4-0.4c0.1-0.1,0.2-0.2,0.2-0.3l0.1-0.1l0,0l0,0l0.2-0.2l0,0l0-0.1l0.2-0.4c0.5-0.9,0.8-1.9,1-2.8
			c0.4-1.8,0.5-3.5,0.7-5c0.1-1.5,0.3-2.9,0.7-4l0.1-0.2l0,0c1-6.5,1.3-11.8,1.8-15.5c0.2-1.8,0.5-3.3,0.7-4.3
			c0.2-1,0.3-1.5,0.3-1.5s-0.2,0.5-0.6,1.4c-0.3,0.9-0.8,2.3-1.4,4.1c-1.1,3.6-2.2,8.8-3.6,15c-1.3,3-1.2,6.3-2,9.1
			c-0.2,0.7-0.5,1.4-0.8,2l-0.1,0.2l-0.1,0.1c-0.1,0.1-0.2,0.2-0.2,0.2c0,0-0.1,0-0.1,0c0,0-0.2,0.1-0.3,0.2
			c-0.1,0.1-0.3,0.2-0.5,0.3c-1.4,0.8-3.1,1.4-4.9,2.4c-0.6,0.3-1.3,0.8-1.9,1.3c-0.6,0.6-1.2,1.3-1.5,2.4l0,0.1l0,0.1
			c-0.1,1-0.1,2.1,0.4,3.2c0.6,1.1,1.5,1.8,2.1,2.2c0.7,0.4,1.2,0.7,1.5,0.9c0.3,0.2,0.2,0.1,0.2,0.3l0.1,0.4c0.6,2,1.1,4,1.4,5.9
			c0.1,0.5,0.1,0.9,0.2,1.4c0.1,0.4,0.1,0.8,0.1,1.3c0,0.9,0,1.8,0,2.7c-0.1,3.6-0.2,6.7-0.3,9.3c-0.1,5.3,0.2,8.3,0.2,8.3
			s0.3-3.1,1.1-8.2c0.4-2.6,1-5.7,1.4-9.3c0.1-0.9,0.2-1.9,0.3-2.8c0-0.4,0.1-1,0-1.6c0-0.5-0.1-1.1-0.1-1.6c-0.2-2-0.6-4.1-1-6.2
			c0-0.2,0-0.3,0-0.5c-0.1-0.3-0.2-0.6-0.3-0.9c-0.1-0.3-0.3-0.5-0.5-0.7c-0.2-0.2-0.4-0.4-0.5-0.6c-0.7-0.6-1.4-0.9-1.8-1.3
			c-0.5-0.3-0.7-0.6-0.8-0.8c-0.1-0.2-0.1-0.4-0.1-0.9C133.2,732.6,133.3,732.4,133.6,732.2z"/>
		<path d="M163.5,715.4c0,0-0.6,2.7-1.3,7c-0.8,4.3-1.7,10.3-2.5,16.9c-0.7,6.6-1,12.7-1.1,17.1c-0.1,4.4,0,7.2,0,7.2
			s0.8-2.6,1.9-6.9c1-4.3,2.3-10.3,3-16.9c0.7-6.7,0.8-12.8,0.6-17.2C163.9,718.2,163.5,715.4,163.5,715.4z"/>
		<path d="M155.9,775.1c-0.7-1.7-1.1-3.1-1.2-4.3c0-0.3-0.1-0.6-0.1-0.9c0-0.3,0-0.5,0-0.8c0-0.4,0-0.8,0-1.1c1.3-0.4,2.4-0.8,3.2-1
			c1.1-0.3,1.7-0.5,1.7-0.5s-0.6,0-1.8,0c-1.1,0-2.8,0-4.8,0.2c-2,0.2-4.4,0.5-7.1,1c-2.6,0.5-5.4,1.2-8.3,1.9
			c-2.9,0.7-5.6,1.2-8.1,1.5c-2.5,0.3-4.8,0.3-6.8,0.3c-1.9-0.1-3.6-0.2-4.7-0.4c-1.1-0.1-1.8-0.2-1.8-0.2s0.6,0.3,1.6,0.8
			c0.2,0.1,0.5,0.2,0.8,0.4c0,0.2,0,0.3-0.1,0.6c-0.1,0.7-0.1,1.7-0.2,2.9c-0.1,2.6,0.2,6.2-0.1,10.7c-0.2,2.2-0.7,4.7-0.5,7.6
			c0.1,0.7,0.2,1.5,0.4,2.3c0.3,0.8,0.5,1.4,0.8,2.1c0.1,0.3,0.3,0.7,0.5,1c0.2,0.4,0.4,0.7,0.6,1.1c0.5,0.7,0.9,1.4,1.4,2
			c2.1,2.6,5.3,4.5,8.6,5.5c1.7,0.5,3.4,0.8,5.2,1c1.8,0.2,3.5,0.2,5.3,0.2l0.3,0l0.2,0l0.1,0l0.2,0l0.6-0.1l0.6-0.1l0.8-0.2
			c0.5-0.1,1-0.2,1.5-0.4c0.4-0.2,0.9-0.3,1.3-0.5c1.7-0.7,3.2-1.7,4.6-2.8c1.8-1.4,3.4-3.1,4.8-4.8c-0.8,1.5-1.9,3.1-3.1,4.5
			c-1.2,1.4-2.7,2.6-4.4,3.5c-0.2,0.1-0.4,0.2-0.6,0.3l-0.7,0.3c-0.5,0.2-0.9,0.4-1.4,0.5c-0.5,0.1-0.9,0.2-1.4,0.3
			c-0.6,0.1-1.1,0.1-1.7,0.2l-0.4,0l-0.1,0l0,0l-0.1,0l-0.2,0l-0.9,0.1c-0.6,0-1.1,0.1-1.7,0.1c-1.1,0.1-2.2,0.1-3.2,0.2
			c-2.1,0.1-4-0.1-5.8-0.5c-0.4-0.1-0.9-0.2-1.3-0.4c-0.4-0.1-0.8-0.3-1.2-0.5l-0.6-0.3l-0.2-0.1l0,0l0,0c0,0,0,0,0.1,0l0,0l-0.1,0
			l-0.3-0.2c-0.4-0.2-0.7-0.5-1.1-0.7c-1.4-1-2.6-2-3.6-3.1c-2-2.1-3.2-4.3-3.5-5.9c-0.1-0.4-0.2-0.8-0.2-1.1
			c-0.1-0.3-0.1-0.6-0.1-0.8c0-0.5,0-0.7,0-0.7s0,0.2-0.1,0.7c-0.1,0.2-0.1,0.5-0.1,0.8c0,0.3,0,0.7,0,1.2c0,1.8,0.8,4.3,2.7,7
			c0.9,1.3,2.1,2.6,3.5,3.9c0.4,0.3,0.7,0.6,1.1,0.9l0.3,0.2l0.1,0.1l0,0l0.1,0.1l0,0l0.1,0.1l0.6,0.4c0.9,0.5,1.9,1.1,3,1.4
			c2.1,0.7,4.4,1,6.7,1.1c1.1,0,2.3,0,3.4-0.1c0.6,0,1.1-0.1,1.7-0.1l0.8,0l0.2,0l0.3,0l0.4,0c0.6-0.1,1.2-0.1,1.7-0.2
			c0.7-0.1,1.3-0.3,2-0.5c0.7-0.1,1.2-0.4,1.8-0.7l0.9-0.4c0.3-0.1,0.5-0.3,0.8-0.5c2.2-1.2,3.9-2.9,5.2-4.6
			c2.7-3.5,3.8-7.2,4.4-10.3c0.3-1.7,0.4-3.2,0.4-4.5l0-0.1l0-0.1l0-0.1l0,0l0-0.1l0.1-0.5c0-0.3,0.1-0.7,0.1-1c0-0.4,0-0.8,0-1.2
			c0-3-0.9-5.5-1.7-7.6C157.4,778.7,156.5,776.8,155.9,775.1z M133.7,774C133.7,774,133.7,774,133.7,774
			C133.7,774,133.7,774,133.7,774C133.7,774,133.7,774,133.7,774z M157.3,788.3c0,0.3,0,0.6-0.1,0.8c0,0.3-0.1,0.7-0.2,1l-0.1,0.5
			l0,0.1l0,0c0-0.1,0,0,0,0l0,0l0,0.1l-0.1,0.2c-0.1,0.3-0.2,0.6-0.3,0.9c-0.5,1.2-1.1,2.4-1.9,3.5c-1.6,2.3-3.6,4.5-6.1,6.3
			c-1.2,0.9-2.5,1.7-3.9,2.2c-0.3,0.2-0.7,0.2-1,0.4c-0.4,0.1-0.7,0.2-1,0.3l-0.5,0.1l-0.6,0.1l-0.6,0.1l0,0l-0.2,0l-0.3,0
			c-1.7,0-3.3,0-4.9-0.1c-1.6-0.1-3.1-0.4-4.6-0.8c-2.9-0.7-5.4-2.1-7.2-4.1c-0.5-0.5-0.8-1-1.3-1.5c-0.2-0.3-0.3-0.5-0.5-0.8
			c-0.2-0.3-0.3-0.5-0.5-0.9c-0.3-0.6-0.6-1.3-0.8-1.8c-0.2-0.5-0.4-1.1-0.5-1.7c-0.4-2.4-0.1-4.9-0.2-7.2
			c-0.2-4.6-0.9-8.3-1.2-10.8c-0.2-1.3-0.2-2.2-0.3-2.9c0-0.2,0-0.4,0-0.5c0.9,0.4,2.2,0.9,3.7,1.3c2,0.5,4.5,1.1,7.2,1.1
			c1.1,0,2.3,0,3.5-0.1c-1.9,0.2-3.6,0.7-4.8,1.1c-1.7,0.6-2.8,1.2-2.8,1.2s1.1,0.4,2.9,0.7c1.3,0.3,2.9,0.5,4.7,0.6
			c-3.5,0.8-6.3,2.2-8.3,3.3c-1,0.6-1.8,1-2.4,1.4c-0.6,0.3-0.9,0.5-0.9,0.5s0.4,0,1,0.1c0.7,0,1.6,0,2.8-0.1
			c2.3-0.2,5.4-0.8,8.6-1.5c0.1,0,0.1,0,0.2,0c0.2,0.5,0.3,0.9,0.5,1.3c0.5,1.1,1,1.9,1,1.9s0.5-0.7,0.9-2c0.2-0.5,0.3-1.1,0.5-1.8
			c1.9-0.4,3.6-0.6,5-0.5c1,0.1,1.9,0.3,2.4,0.6c0.3,0.1,0.5,0.3,0.7,0.3c0.2,0.1,0.2,0.1,0.2,0.1s0-0.1-0.1-0.2
			c-0.1-0.2-0.2-0.4-0.4-0.7c-0.4-0.6-1.1-1.3-2.2-2c-0.7-0.4-1.6-0.7-2.6-0.9c0.7-0.1,1.3-0.1,1.8-0.1c0.9-0.1,1.6-0.1,2.1-0.2
			c0.5-0.1,0.8-0.1,0.8-0.1s-0.2-0.2-0.7-0.5c-0.4-0.3-1.1-0.7-1.9-1.1c-1.5-0.7-3.6-1.4-5.9-1.5c0-0.1-0.1-0.2-0.1-0.3
			c0.7-0.1,1.5-0.3,2.2-0.5c3.1-0.7,5.8-1.6,8.3-2.5c2.5-0.9,4.7-1.6,6.6-2.3c0.4-0.1,0.8-0.3,1.2-0.4c-0.1,0.3-0.1,0.6-0.2,1
			c0,0.2-0.1,0.5-0.1,0.8c0,0.3,0,0.6,0,0.9c0,1.3,0.2,2.9,0.7,4.7c0.4,1.8,1.1,3.7,1.7,5.9C157,783.5,157.5,785.9,157.3,788.3z"/>
		<path d="M120.7,141.3c-0.3,1.4-0.5,3.5-0.5,5.9c-0.1,1.2-0.1,2.6-0.2,4c-0.1,1.5-0.3,3-0.4,4.6c-0.2,3.3-0.4,6.9-0.4,10.7
			c-0.1,3.7-0.2,7.3-0.2,10.6c0,3.3,0.1,6.3,0.4,8.8c0.2,2.5,0.6,4.5,0.9,5.9c0.3,1.4,0.5,2.1,0.5,2.1s0-0.8,0.1-2.2
			c0.1-1.4,0.2-3.4,0.4-5.8c0.2-2.5,0.6-5.4,0.9-8.6c0.4-3.3,0.7-6.8,0.8-10.7c0-3.7,0-7.4-0.2-10.6c-0.1-1.6-0.2-3.2-0.2-4.7
			c-0.1-1.5-0.3-2.9-0.5-4.1c-0.4-2.5-0.7-4.4-0.8-5.8c-0.1-1.4,0-2.2,0-2.2S120.9,139.9,120.7,141.3z"/>
		<path d="M122.5,144.7c-0.2,0.2-0.5,0.5-0.4,1.2c0.1,0.4,0.3,0.8,0.6,1.1c0.3,0.3,0.6,0.4,0.8,0.5c0.1,0,0.2,0,0.3,0.1l1,0.1
			l0.3-0.3c0.2-0.2,0.5-0.5,0.8-1.3c0.2-0.4,0.1-1.1-0.1-1.3c-0.2-0.3-0.4-0.3-0.5-0.3c-0.3,0-0.5,0.1-0.7,0.1c-0.2,0-0.3,0-0.3,0
			c0,0.1-0.1,0.2-0.1,0.2c0,0-0.1,0-0.1-0.1c0,0,0,0,0,0c0,0.1-0.1,0.1-0.1,0.2c0,0,0,0-0.1,0c-0.1-0.1-0.3-0.3-0.4-0.5
			c0,0,0,0-0.1-0.1c0,0-0.1,0.1-0.3,0.1C123,144.4,122.8,144.5,122.5,144.7z"/>
		<path d="M123.8,144.4c0.1,0.1,0.3,0.1,0.4,0.2c0.1-0.1,0.2-0.2,0.2-0.2s0,0,0,0c0-0.1,0.1-0.2,0.1-0.3c0-0.1,0.1-0.2,0.1-0.3
			c0,0,0,0,0,0l-1.3,0.2c0,0,0,0,0.1,0c0,0,0,0,0.2,0.2c0,0,0,0,0,0S123.6,144.3,123.8,144.4z"/>
		<polygon points="124.2,163.4 124.2,163.4 124.1,163.4 		"/>
		<path d="M124.9,164.4C124.9,164.4,125,164.4,124.9,164.4c0.1,0.1,0.1,0.2,0.1,0.2c-0.2,0.1-0.6,0.3-1,0.4l0.2-0.9c0,0,0,0,0,0
			s-0.3,0.4-0.5,0.9c-0.1,0.2-0.3,0.5-0.2,0.9c0,0.2,0.2,0.5,0.7,0.8c0.3,0.2,0.6,0.2,1,0.2c0.3,0,0.7-0.1,0.8-0.2
			c0.7-0.4,0.7-0.7,0.8-1l0.3-1.4l0,0c-0.2-0.2-0.4-0.5-1-0.9c-0.3-0.2-0.8-0.1-0.9,0c-0.2,0.1-0.2,0.2-0.3,0.3c0,0.1,0,0.2,0,0.3
			c-0.1,0-0.3,0-0.4,0.1C124.7,164,124.8,164.2,124.9,164.4C124.9,164.3,124.9,164.3,124.9,164.4z"/>
		<path d="M124.2,163.4L124.2,163.4L124.2,163.4c0.1,0.1,0.1,0.1,0.1,0.1l0-0.1C124.3,163.5,124.2,163.5,124.2,163.4z"/>
		<path d="M124.6,163.9c-0.1-0.1-0.2-0.2-0.3-0.3l-0.1,0.4C124.2,164,124.4,163.9,124.6,163.9z"/>
		<polygon points="123,188.5 123,188.5 123,188.5 		"/>
		<path d="M122.8,188.4C122.8,188.4,122.8,188.4,122.8,188.4c0,0,0,0.1,0,0.1l0.2,0l-0.1,0L122.8,188.4z"/>
		<path d="M123.4,191.3l0.8,0.6l1.4-1.1c0.1-0.1,0.3-0.3,0.4-0.5c0.1-0.3,0.3-0.5,0.3-1c0-0.4,0-0.9-0.3-1.3
			c-0.2-0.4-0.6-0.7-0.9-0.8c-0.3-0.1-0.5-0.1-0.7-0.1c-0.8,0.2-1,0.7-1,0.7c0,0,0,0.1,0.1,0.3c-0.2,0.1-0.4,0.1-0.6,0.3
			c0,0,0,0,0,0l0.7-0.1c0,0.1,0,0.2,0,0.3c0,0-0.1,0-0.1,0c-0.1,0-0.1,0-0.2-0.1c-0.1,0-0.2-0.1-0.2-0.1l-0.2-0.1
			c-0.2,0.1-0.5,0.3-0.6,0.9c-0.1,0.3,0,0.8,0.3,1.2C122.9,190.9,123.1,191.1,123.4,191.3z M124.8,188.4c-0.1,0.2-0.1,0.3-0.2,0.4
			c0,0,0,0,0,0c-0.1-0.1-0.2-0.2-0.3-0.3L124.8,188.4z"/>
		<path d="M139.6,27c0.5,0.2,1.1,0.5,1.6,0.7c0.5,0.2,1,0.3,1.4,0.5c0.9,0.3,1.9,0.6,2.7,0.8c1.8,0.4,3.4,0,4.2-0.6
			c0.8-0.6,1-1.1,1-1.1c0,0-0.5,0.3-1.3,0.5c-0.8,0.2-2,0.1-3.4-0.7c-0.7-0.3-1.4-0.8-2.2-1.3c-0.4-0.3-0.8-0.5-1.3-0.8
			c-0.4-0.3-0.8-0.5-1.2-0.8c-1.7-1.2-3.4-2.7-5.4-4.2c-2.1-1.7-4.5-2.8-6.7-3.4c-2.2-0.6-4.2-0.9-5.9-1c-1.7-0.1-3-0.1-4,0
			c-0.9,0-1.5,0.1-1.5,0.1s0.5,0.2,1.4,0.5c0.9,0.3,2.1,0.7,3.7,1.3c3.1,1.1,7.1,2.7,10.7,5.5C135.5,24.6,137.5,26,139.6,27z"/>
		<path d="M108.5,24.3c-2,1-3.7,2.3-5.2,3.7c-1.5,1.3-2.5,2.7-3.4,4c-0.8,1.2-1.3,2.3-1.6,3c-0.3,0.8-0.5,1.2-0.5,1.2s0.3-0.3,1-0.8
			c0.6-0.5,1.5-1.3,2.6-2.1c1.1-0.8,2.4-1.8,3.9-2.7c1.5-0.9,3.2-1.9,5-2.8c3.6-1.9,7.1-3.6,9.6-4.9c2.5-1.3,4-2.3,4-2.3
			s-1.8,0.1-4.6,0.5C116.4,21.4,112.5,22.3,108.5,24.3z"/>
		<path d="M159.3,23.5c1.1,0.3,2.4,0.9,4,1.3c1.5,0.5,3.1,0.8,4.2,1.1c0.6,0.1,1.1,0.3,1.4,0.4c0.4,0.1,0.6,0.2,0.6,0.2
			s0-0.2-0.1-0.6c-0.1-0.4-0.3-0.9-0.7-1.5c-0.8-1.2-2.2-2.6-4.2-3.2c-1-0.3-2-0.4-3-0.3c-1,0.1-1.8,0.4-2.4,0.7
			c-1.4,0.7-1.7,1.6-1.7,1.6C157.2,23.3,158.2,23.2,159.3,23.5z"/>
		<path d="M143.7,5.8c1.5,0.7,3.1,1.6,4.5,3c0.4,0.4,0.7,0.7,1,1.1l0.3,0.3l0.1,0.2l0,0l0,0c0,0,0.1,0.1-0.1-0.1l0,0l0,0l0.1,0.1
			c0.2,0.2,0.3,0.5,0.5,0.7c0.3,0.5,0.7,1,1.2,1.6c0.5,0.6,1.1,1.2,2,1.7l2.5,1.3l0-0.2c0.1,0.3,0.2,0.6,0.3,0.9
			c0.3,1.2,0.6,2.3,0.7,3c0.1,0.7,0.2,1.1,0.2,1.1s0.1-0.4,0.2-1.1c0.1-0.7,0.3-1.8,0.3-3.1c0-1.4-0.1-3-0.5-4.9
			c-0.2-0.9-0.6-1.9-1.1-2.9c-0.4-0.7-0.9-1.4-1.5-2.1c-0.2-0.3-0.5-0.5-0.8-0.7l0,0c0,0,0,0-0.1,0l-1.7,2.2l-0.2-0.2
			c-0.5-0.4-1-0.9-1.5-1.2c-2-1.4-4.2-2.1-5.9-2.4c-1.7-0.3-3.1-0.2-4.1-0.2c-0.9,0.1-1.5,0.1-1.5,0.1s0.5,0.1,1.4,0.4
			C141,4.7,142.3,5.1,143.7,5.8z"/>
		<path d="M106,11.5c0,0,0.4-0.2,1.1-0.6c0.3-0.2,0.8-0.4,1.3-0.7c0.5-0.3,1-0.6,1.7-0.9c2.5-1.3,5.9-2.8,9.6-4.3
			c1.9-0.7,3.7-1.3,5.4-1.8c0.8-0.2,1.6-0.5,2.4-0.6c0.4-0.1,0.8-0.1,1.1-0.2c0.4,0,0.7-0.1,1-0.1c0.7-0.1,1.3-0.1,1.8-0.1
			c0.3,0,0.5,0,0.8,0c0.2,0,0.5,0,0.7,0c0.8,0,1.2,0.1,1.2,0.1s-0.4-0.2-1.1-0.6c-0.2-0.1-0.4-0.2-0.6-0.3c-0.2-0.1-0.5-0.2-0.8-0.3
			c-0.6-0.2-1.2-0.5-1.9-0.6c-1.5-0.4-3.2-0.5-5.2-0.4c-2,0.2-4.1,0.6-6.2,1.5c-4.2,1.7-7.4,4.2-9.4,6.3c-0.5,0.5-0.9,1-1.3,1.5
			c-0.4,0.4-0.7,0.8-0.9,1.2C106.2,11.1,106,11.5,106,11.5z"/>
		<path d="M124.4,8.4c-6.9,0.9-12.5,3.7-16.2,6c-1.9,1.2-3.3,2.2-4.3,3c-1,0.8-1.5,1.2-1.5,1.2s0.6-0.3,1.8-0.7
			c1.1-0.5,2.8-1.1,4.8-1.8c4-1.4,9.7-3.1,15.9-4c3.1-0.4,6.1-0.5,8.8-0.2c2.7,0.3,5,0.9,7,1.7c1.9,0.8,3.4,1.7,4.4,2.3
			c0.5,0.3,0.9,0.6,1.1,0.8c0.3,0.2,0.4,0.3,0.4,0.3s-0.1-0.1-0.3-0.4c-0.2-0.3-0.4-0.7-0.8-1.1c-0.8-1-2-2.3-3.9-3.6
			c-1.9-1.3-4.4-2.5-7.3-3.2C131.2,8.1,127.9,8,124.4,8.4z"/>
		<path d="M90.4,43.3c0.2,0.6,0.4,1,0.4,1.3c-0.7,1.2-1.2,2.7-1.3,4.3c-0.2,1.8,0.1,3.8,0.6,5.8c1.1,3.9,3.1,6.9,4.8,8.9
			c0.7,0.8,1.3,1.4,1.8,1.9c0,0.5,0,1,0.1,1.6c0.1,1.6,0.2,3.2,0.4,4.9c0-0.1-0.1-0.3-0.1-0.4c-0.2-0.7-0.3-1.3-0.4-1.9
			c-0.2-1.2-0.4-2.5-0.7-3.6c-0.3-1.1-0.7-1.9-1.1-2.4c-0.2-0.3-0.3-0.4-0.4-0.6c-0.1-0.1-0.2-0.2-0.2-0.2s0,0.1,0,0.2
			c0,0.2,0,0.4,0,0.7c0,0.6-0.1,1.4-0.2,2.4c-0.2,1-0.5,2.1-0.6,3.7c-0.1,0.7,0,1.6,0,2.3c0.1,0.8,0.2,1.6,0.5,2.5
			c0.9,3.2,2.5,5.9,4,7.5c0.5,0.5,0.9,0.9,1.3,1.3c0.4,1.5,0.8,2.9,1.3,4.4c0.3,1,0.7,1.9,1.1,2.9c0.4,1,0.8,1.9,1.3,2.9
			c0.5,0.9,0.9,1.9,1.4,2.9c0.6,0.9,1.1,1.9,1.7,2.8c0.6,1,1.3,1.8,2,2.7c0.3,0.4,0.7,0.9,1,1.3l1.2,1.3c0.8,0.8,1.5,1.7,2.5,2.5
			l1.3,1.2l0.7,0.6l0.3,0.3l0,0l0.2,0.1l0.1,0.1l0.2,0.1c0.5,0.3,0.9,0.6,1.6,0.9l1,0.4c0.3,0.1,0.6,0.2,1,0.3l0.9,0.2l0.9,0.1
			c0.3,0,0.6,0.1,0.9,0.1l0.9,0c2.5,0,4.8-0.4,6.9-1.1c4.3-1.3,8.1-3.4,11.4-5.8c0.8-0.6,1.5-1.2,2.2-1.8l2.2,5.1
			c0,0.3-0.1,0.6-0.1,0.9c-0.2,0.9-0.3,1.7-0.4,2.2c-0.1,0.5-0.2,0.8-0.2,0.8s0.2-0.2,0.7-0.5c0.3-0.2,0.7-0.6,1.1-1.1
			c0,0,0,0,0,0.1c0.3,0.5,0.5,0.9,0.8,1.4l0.1,0.2c0,0,0,0,0,0c-0.1,0.2-0.3,0.6-0.5,0.9c-0.3,0.4-0.6,0.9-0.8,1.1
			c-1,1.2-2.6,2.2-3.9,3c-1.3,0.8-2.4,1.5-3,2.1c-0.7,0.6-1,0.9-1,0.9s0.5-0.2,1.3-0.4c0.8-0.2,2.1-0.5,3.5-0.9
			c0.8-0.2,1.6-0.4,2.5-0.8c0.9-0.4,1.9-0.8,2.8-1.6c0.5-0.5,0.8-0.8,1.2-1.2c0.1-0.1,0.1-0.1,0.2-0.2c0.5,1.1,0.9,2.2,1.3,3.2
			c0.5,1.3,1.1,2.3,1.5,3c0.2,0.3,0.4,0.6,0.5,0.8c0.1,0.2,0.2,0.3,0.2,0.3s0-0.1,0-0.3c0-0.2-0.1-0.5-0.1-0.9
			c-0.1-0.8-0.2-1.9-0.3-3.2c-0.1-1.4-0.2-3-0.7-4.9c-0.2-0.9-0.5-2-1-3c-0.5-1-1.1-2.1-2.2-3c0.5-1.2,1-2.6,1.3-4.1
			c0.5-2.9,0.5-5.4,0.5-7.2c0-0.3,0-0.5,0-0.7c1.5-2.3,2.6-4.5,3.5-6.7c0.4-1,0.7-2.1,1-3.1c0,0,0,0.1,0,0.1s0.9-0.4,2.1-1.2
			c0.6-0.4,1.3-0.9,2.1-1.6c0.4-0.4,0.7-0.8,1.1-1.2c0.2-0.2,0.3-0.5,0.5-0.8c0.2-0.3,0.3-0.6,0.4-0.8c0.6-1.4,0.5-2.7,0.3-3.7
			c-0.1-0.4-0.2-0.8-0.3-1.1c0.8-1.2,1.5-2.6,1.9-4.1c1.1-3.8,0.8-7.4,0.2-9.8c-0.6-2.4-1.3-3.8-1.3-3.8s0,0,0,0
			c-0.1-0.6-0.2-1.1-0.3-1.6l-0.1-0.4l0,0l0-0.1l0,0l0-0.1l-0.1-0.2c-0.1-0.3-0.2-0.5-0.3-0.8c-0.4-1-0.9-1.9-1.5-2.7
			c-1.1-1.6-2.3-2.8-3.3-3.8c-2-1.9-3.3-3.1-3.3-3.1s0.1,0.4,0.4,1.2c0.3,0.7,0.7,1.8,1.3,3c1.2,2.5,3,5.6,3.4,9.3
			c0.6,3.8,0.8,7.5,1.1,10.2c0,0.5,0.1,1,0.1,1.4c0,0.1,0,0.1,0,0.2c-0.1,0.5-0.3,0.9-0.4,1.4c0-0.1,0-0.2,0-0.3
			c0-2.9-0.9-5.4-1.7-7.1c-0.4-0.8-0.8-1.5-1.1-1.9c-0.3-0.4-0.5-0.7-0.5-0.7s0,0.3-0.1,0.8c0,0.5-0.1,1.3-0.2,2.2
			c-0.1,1.8-0.2,4.2-0.2,6.7c0,2.5,0.1,4.8,0.1,6.6c0,0.7,0,1.3-0.1,1.7c-0.1,0.4-0.2,0.8-0.3,1.2c-0.6,2.2-1.4,4.8-2.7,7.4
			c-1.2,2.6-2.9,5.3-5.1,7.8c-1.1,1.3-2.3,2.5-3.6,3.7c-0.7,0.6-1.4,1.2-2.2,1.8c-0.7,0.6-1.5,1.1-2.2,1.6c-3.1,2.1-6.7,3.9-10.5,5
			c-3.8,1-8.1,1.4-11.2-0.7l-0.2-0.1l0,0l0,0l-0.3-0.3l-0.6-0.5l-1.2-1c-0.8-0.7-1.5-1.5-2.2-2.2L112,101c-0.3-0.4-0.6-0.8-1-1.2
			c-0.6-0.8-1.3-1.6-1.9-2.5c-0.6-0.9-1.1-1.7-1.7-2.6c-0.5-0.9-1-1.8-1.4-2.6c-0.5-0.9-0.9-1.8-1.3-2.7c-0.4-0.9-0.8-1.7-1.1-2.7
			c-2.8-7.1-4.2-14-4.9-19.8c-0.8-5.8-1.1-10.6-1.2-13.9c-0.1-1.7-0.1-2.9-0.1-3.8c0-0.9,0-1.3,0-1.3s0,0.5-0.1,1.3
			c-0.1,0.9-0.2,2.1-0.3,3.8c-0.2,2.5-0.4,5.8-0.3,9.8c0,0,0-0.1,0-0.1c-0.8-2.4-1.8-5.6-2.8-9c-1-3.4-1.5-6.5-1-8.7
			c0.2-1.1,0.6-2,1-2.5c0.2-0.3,0.4-0.5,0.5-0.7c0.1-0.2,0.2-0.2,0.2-0.2s-0.1,0-0.3,0.1c-0.2,0.1-0.4,0.1-0.8,0.3
			c-0.7,0.4-1.6,1-2.4,2.2c0,0,0,0.1-0.1,0.1c0-0.3,0-0.7,0-1.2c0-1.1,0.1-2.6,0.2-4.5c0.2-3.8,0.6-9,2.4-14
			c0.2-0.4,0.4-0.9,0.6-1.3c0.5,0.2,1.3,0.4,2.2,0.6c1.9,0.5,4.7,0.9,7.7,0.6c3-0.3,5.7-1.4,7.5-2.4c0.9-0.5,1.6-1,2-1.4
			c0.4-0.4,0.7-0.6,0.7-0.6s-0.3,0-0.9,0c-0.6,0-1.4,0.1-2.3,0.1c-1.9,0.1-4.5,0.2-7.3,0.5c-2.8,0.3-5.4,0.8-7.3,1.3
			c-0.7,0.2-1.4,0.4-1.8,0.5c0.1-0.2,0.2-0.4,0.3-0.6c0.1-0.3,0.3-0.5,0.4-0.8c0.2-0.5,0.7-1.1,1.1-1.6c0.3-0.5,0.7-1,1.1-1.5
			c1.5-1.9,3-3.6,4.3-4.8c1.3-1.3,2.6-2.2,3.5-2.6c0.5-0.2,0.8-0.4,1.1-0.5c0.3-0.1,0.4-0.1,0.4-0.1s-0.2,0-0.4,0
			c-0.3,0-0.7,0-1.3,0.1c-1.1,0.2-2.7,0.7-4.4,1.7c-1.7,1-3.7,2.4-5.6,4.2c-0.5,0.5-0.9,0.9-1.4,1.5c-0.4,0.5-0.9,1-1.3,1.7
			c-0.2,0.3-0.4,0.7-0.7,1c-0.2,0.3-0.4,0.7-0.6,1c-0.4,0.7-0.7,1.4-1,2.1c-1.1,3-1.5,6-1.5,8.6c0,2.6,0.3,5,0.7,6.9
			C89.7,40.8,90.1,42.3,90.4,43.3z M156.4,80.1c0.1-0.4,0.1-0.8,0.2-1.2c0.1-0.1,0.3-0.2,0.4-0.4c0.1-0.1,0.1-0.1,0.2-0.2l-0.2,1.5
			l0.1-0.2c-0.5,1-0.9,2-1.2,2.9c-0.1,0.1-0.1,0.3-0.1,0.4C156.1,82,156.3,81,156.4,80.1z M148,111.9
			C148.1,111.9,148,111.9,148,111.9C148,111.9,148,111.9,148,111.9z M145.7,100.9c0.5-0.5,1-1,1.5-1.5c-0.2,0.8-0.4,1.7-0.6,2.6
			c-0.2,0.9-0.3,1.8-0.4,2.6l-2.5-1.8C144.4,102.1,145.1,101.5,145.7,100.9z"/>
		<path d="M162.6,34.2c-0.4-0.1-0.8-0.4-1.4-0.7c-1.1-0.6-2.6-1.4-4.2-2c-1.6-0.6-3.2-1-4.3-1.4c-0.6-0.2-1-0.4-1.3-0.6
			c-0.3-0.3-0.5-0.4-0.5-0.4s0,0.2-0.1,0.6c0,0.4,0.2,1.1,0.5,1.8c0.7,1.4,2.3,2.8,4.3,3.6c2,0.7,4,0.7,5.4,0.3
			c0.7-0.2,1.3-0.4,1.6-0.6c0.4-0.2,0.5-0.4,0.5-0.4S163,34.3,162.6,34.2z"/>
		<path d="M161.5,41.8c-0.6-0.9-1.3-1.7-2.2-2.4c-1.7-1.4-3.3-2.1-4.6-2.8c-0.6-0.3-1.1-0.6-1.5-0.8c-0.4-0.2-0.6-0.3-0.6-0.3
			s0,0.2,0.1,0.7c0,0.4,0.2,1,0.5,1.8c0.6,1.4,2,3.2,3.6,4.5c1.6,1.3,3.1,2.1,4.1,2.9c0.5,0.4,1,0.8,1.3,1.1
			c0.3,0.3,0.5,0.4,0.5,0.4s0-0.2,0-0.7c0-0.4,0-1.1-0.2-1.9C162.4,43.5,162.1,42.6,161.5,41.8z"/>
		<path d="M168.4,26.8L168.4,26.8c0,0.2,0,0.5-0.1,0.7c0,0,0,0,0,0c-0.2,0.2-0.7,0.2-1.2,0.2c-1-0.1-1.9-0.3-2.7-0.4
			c-0.8-0.1-1.4-0.1-1.8,0c-0.4,0.1-0.6,0.3-0.6,0.3s0.2-0.1,0.6-0.1c0.4,0,0.9,0.2,1.6,0.5c0.7,0.3,1.5,0.7,2.6,1.1
			c0.3,0.1,0.6,0.2,0.9,0.2c-0.3,0.4-0.7,0.6-1.5,0.8l-1.6,0.5l0.7,1.7c0.5,1.3,1.2,2.3,1.7,3.3c0.4,0.8,0.5,1.4,0.4,2l-1.4,0.7
			c-0.1,0.6,0,0.7,0,1c0,0.2,0.1,0.4,0.1,0.6c0.1,0.4,0.2,0.9,0.2,1.3l-2.3-1.4l0.5,3.6c0.4,2.8,1,5.2,1.6,7.3
			c0.5,2.1,0.9,4,1.1,5.6c0.2,1.6,0.1,2.9,0.1,3.8c-0.1,0.9-0.1,1.4-0.1,1.4s0.2-0.4,0.5-1.3c0.3-0.9,0.7-2.1,0.9-3.8
			c0.2-1.7,0.2-3.7,0-6c-0.1-1.5-0.3-3-0.4-4.7c0.2,0,0.3-0.1,0.5-0.2c0.5-0.2,0.9-0.7,1.1-1.1c0.4-0.7,0.4-1.2,0.4-1.6
			c0-0.8-0.1-1.4-0.1-2c-0.1-0.5-0.2-1-0.3-1.5l1-0.3c0.3-0.9,0.3-1.9,0.2-2.8c-0.2-0.9-0.5-1.7-0.9-2.3c-0.4-0.7-0.8-1.3-1.2-1.9
			c0.1-0.1,0.2-0.1,0.2-0.2c0.6-0.5,1-1.2,1.2-1.9c0.4-1.4,0.2-2.5,0.1-3.4L168.4,26.8C168.4,26.8,168.4,26.8,168.4,26.8z
			 M168.3,36.8C168.3,36.8,168.3,36.8,168.3,36.8C168.3,36.8,168.3,36.8,168.3,36.8z"/>
		<path d="M150.9,46.7c0,0-0.2-0.2-0.5-0.6c-0.3-0.3-0.8-0.8-1.6-1.3c-1.4-1-3.9-1.8-6.5-1.7c-1.3,0-2.7,0.4-3.7,0.9
			c-1,0.4-1.9,0.9-2.6,1.3c-0.7,0.4-1.3,0.7-1.7,0.9c-0.4,0.2-0.7,0.3-0.7,0.3s0.3,0,0.7,0.1c0.5,0,1.2,0,2-0.1
			c0.8-0.1,1.8-0.3,2.8-0.5c1-0.2,2-0.3,3.2-0.4c2.3-0.1,4.3,0,5.9,0.3c0.8,0.2,1.4,0.3,1.8,0.5C150.7,46.6,150.9,46.7,150.9,46.7z"
			/>
		<path d="M108.7,46.1c1.1-0.2,2.2-0.3,3.2-0.3c1,0,1.8,0.2,2.6,0.4c0.7,0.3,1.3,0.5,1.7,0.8c0.4,0.3,0.6,0.4,0.6,0.4
			s-0.1-0.2-0.3-0.7c-0.1-0.2-0.2-0.5-0.5-0.7c-0.2-0.3-0.5-0.6-0.9-0.9c-0.7-0.6-1.7-1.1-2.9-1.4c-1.2-0.3-2.6-0.3-3.9,0
			c-2.7,0.6-4.8,1.9-6.2,2.9c-1.4,1.1-2,1.9-2,1.9s1.1-0.3,2.6-0.8C104.3,47.1,106.5,46.5,108.7,46.1z"/>
		<path d="M123.2,60.6c0.2,1.5,0.5,2.5,0.5,2.5s0.4-0.9,0.8-2.4c0.4-1.5,0.8-3.7,0.2-6.2c-0.3-1.2-0.9-2.3-1.5-3.2
			c-0.6-0.9-1.4-1.5-2-2c-0.7-0.5-1.2-0.8-1.6-0.9c-0.4-0.2-0.6-0.3-0.6-0.3s0.1,0.2,0.4,0.6c0.3,0.4,0.6,0.9,1,1.5
			c0.8,1.3,1.5,3,2,5C122.7,57.1,122.9,59.1,123.2,60.6z"/>
		<path d="M148.5,54.1c0.4,0.2,0.7,0.3,0.7,0.3s-0.1-0.2-0.5-0.6c-0.3-0.4-0.8-0.9-1.6-1.4c-1.5-1-3.9-2-6.7-2.1
			c-2.8,0-5.4,1-6.7,2.5c-0.2,0.2-0.3,0.3-0.4,0.5c-0.1,0.2-0.2,0.4-0.3,0.6c-0.1,0.2-0.2,0.3-0.2,0.5c-0.1,0.1-0.1,0.3-0.1,0.4
			c-0.1,0.5-0.1,0.7-0.1,0.7c0,0.1,0.6-1.1,2-1.7c0.6-0.3,1.3-0.5,2.1-0.7c0,0.1-0.1,0.2-0.1,0.3c-0.1,0.7,0.1,1.4,0.6,2.1
			c0.3,0.4,0.6,0.7,1.1,1c0.2,0.1,0.5,0.2,0.8,0.3c0.1,0,0.3,0,0.5,0l0.1,0l0.1,0l0,0l0,0l0.1,0l0.1,0c0.1,0,0.6-0.1,0.9-0.3
			c0.2-0.1,0.5-0.3,0.6-0.5c0.4-0.3,0.6-0.7,0.8-1.1c0.3-0.7,0.5-1.4,0.3-2.1c1.5,0.1,2.9,0.3,4,0.6
			C147.4,53.7,148.1,53.9,148.5,54.1z M141.3,52.9c-0.1,0.2-0.4,0.6-0.8,0.9c-0.1,0-0.1,0.1-0.2,0.1c0-0.2-0.1-0.4-0.2-0.6
			c0,0,0-0.1-0.1-0.1c0,0,0.1-0.1,0.1-0.1c0.1-0.1,0.2-0.2,0.3-0.3C140.8,52.8,141.1,52.8,141.3,52.9
			C141.4,52.9,141.4,52.9,141.3,52.9z"/>
		<path d="M115.8,55.1c0.3,0.2,0.5,0.4,0.5,0.4s-0.1-0.2-0.2-0.6c-0.1-0.4-0.4-0.9-0.9-1.5c-0.5-0.6-1.2-1.2-2.2-1.6
			c-1-0.4-2.2-0.6-3.4-0.5c-2.4,0.3-4.3,1.6-5.2,2.8c-0.5,0.6-0.8,1.1-1,1.5c-0.2,0.4-0.3,0.6-0.3,0.6s0.2-0.1,0.6-0.3
			c0.3-0.2,0.9-0.4,1.5-0.7c0.6-0.3,1.3-0.5,2.1-0.7c0,0.1,0,0.1-0.1,0.2c-0.1,0.6,0,1.4,0.4,2.2c0.2,0.4,0.5,0.7,1,1
			c0.4,0.3,1.1,0.5,1.8,0.5l0.1,0l0.1,0c0.1,0,0.3-0.1,0.4-0.1c1.1-0.4,1.8-1,2.3-2.1c0.1-0.3,0.2-0.5,0.2-0.8c0-0.2,0-0.2,0-0.3
			c0-0.1,0-0.3-0.1-0.4c-0.1-0.2-0.2-0.4-0.3-0.6c0.6,0.1,1.1,0.3,1.5,0.5C115,54.5,115.5,54.8,115.8,55.1z M111.5,54.6
			C111.4,54.6,111.4,54.6,111.5,54.6c-0.1,0.1-0.1,0.2-0.1,0.2c0,0-0.1,0.1-0.1,0.1c-0.1-0.1-0.1-0.1-0.2-0.2
			c-0.1-0.1-0.2-0.2-0.3-0.3c0.3-0.3,0.5-0.6,0.5-0.6s-0.1-0.1-0.2-0.2c0.1,0,0.2,0,0.3,0c0.1,0.2,0.2,0.4,0.3,0.6
			C111.5,54.3,111.5,54.5,111.5,54.6z"/>
		<path d="M128.5,75.8c0.3,0.1,0.7-0.1,1-0.2c0.3-0.2,0.7-0.3,0.7-0.3s0.1-0.3,0-0.8c-0.1-0.4-0.4-1-0.8-1.1c-0.4-0.2-0.8,0-1.1,0.2
			c-0.2,0.1-0.3,0.2-0.4,0.3c-0.1,0.1-0.2,0.1-0.2,0.1s0,0.1,0,0.2c0,0.1,0,0.3,0.1,0.5C127.9,75.2,128.2,75.7,128.5,75.8z"/>
		<path d="M118.3,73.1c-0.6,0.2-0.9,0.7-1,1.2c-0.2,0.5-0.2,0.8-0.2,0.8s0.4,0.2,0.8,0.3c0.4,0.1,0.9,0.2,1.4,0.1
			c0.4-0.2,0.7-0.6,0.9-0.9c0.2-0.4,0.4-0.7,0.4-0.7s-0.2-0.3-0.7-0.5C119.5,73.1,118.9,72.9,118.3,73.1z"/>
		<path d="M130.7,88.9c0.4,0.1,0.7,0.2,0.7,0.2s-0.2-0.2-0.5-0.5c-0.3-0.3-0.7-0.8-1.3-1.3c-0.6-0.5-1.3-1.2-2.5-1.6
			c-0.6-0.2-1.6-0.2-2.2,0.1c-0.6,0.2-0.9,0.3-1.3,0.3l-0.1,0l-0.1,0.3c0,0.1,0.1-0.4,0-0.3c-0.1,0-0.2-0.1-0.4-0.2
			c-0.2-0.1-0.4-0.2-0.7-0.3c-0.1,0-0.1,0-0.3-0.1c-0.1,0-0.3,0-0.3,0l-0.1,0l-0.1,0l-0.1,0c-0.1,0-0.1,0-0.2,0
			c-1,0.2-1.5,0.6-2,0.8l-0.1,0c-1,0.7-1.8,1.2-2.5,1.5c-0.6,0.3-1,0.5-1,0.5s0.4,0.1,1.2,0.2c0.7,0,1.9-0.1,3.1-0.5l-0.1,0
			c0.6-0.1,1.3-0.3,1.7-0.2c0,0,0,0,0.1,0l0,0l0,0l0,0c0,0,0,0,0,0c0,0,0,0-0.1,0l0,0l0,0l0,0l0.1,0c0.1,0,0,0,0,0c0,0,0,0,0,0
			l0.3,0.2c0.1,0.1,0.3,0.2,0.6,0.3c0.3,0.1,0.7,0.2,1.2,0.2l-0.2,0c0.1,0,0.2,0,0.3,0c0.8,0,1.6-0.4,2-0.6c0.4-0.2,0.6-0.2,0.9-0.2
			c0.7,0.1,1.6,0.3,2.3,0.6C129.7,88.6,130.3,88.8,130.7,88.9z"/>
		<path d="M123.6,90.1c-0.4,0-0.8,0.1-1.2,0.1c-0.4,0-0.9,0-1.3,0.1c-0.4,0-0.8,0.1-1,0.2c-0.2,0.1-0.4,0.1-0.4,0.1s0.4,0.4,1,0.9
			c0.3,0.3,0.7,0.5,1.2,0.8c0.5,0.2,1.2,0.4,1.9,0.4c1.3-0.1,2.2-0.7,2.8-1.1c0.6-0.4,1.1-0.7,1.1-0.7s-0.5-0.3-1.3-0.5
			C125.7,90,124.6,90,123.6,90.1z"/>
	</g>
</g>
</svg>
