<?xml version="1.0" encoding="utf-8"?>
<!-- Generator: Adobe Illustrator 19.2.1, SVG Export Plug-In . SVG Version: 6.00 Build 0)  -->
<svg version="1.1" id="Layer_1" xmlns="http://www.w3.org/2000/svg" xmlns:xlink="http://www.w3.org/1999/xlink" x="0px" y="0px"
	 viewBox="0 0 100 100" style="enable-background:new 0 0 100 100;" xml:space="preserve">
<style type="text/css">
	.st0{fill:#00ACEA;}
</style>
<g>
	<path class="st0" d="M61,56.7v-2.4c0-0.5-0.4-1-1-1H40c-0.5,0-1,0.4-1,1v2.4c0,0.5-0.3,0.9-0.7,1.2c-4.5,2.7-7.3,6.9-7.3,11.6
		c0,5.1,3.3,9.5,8.3,12.2c0.5,0.2,0.8,0.7,0.8,1.2v1.2c0,0.5,0.4,1,1,1H59c0.5,0,1-0.4,1-1V83c0-0.5,0.3-1,0.8-1.2
		c5-2.7,8.3-7.1,8.3-12.2c0-4.7-2.9-8.9-7.3-11.6C61.2,57.6,61,57.2,61,56.7zM78,49.3l-9.5-33.1c-0.2-0.6-0.8-1.1-1.4-1.1H50H32.9c-0.7,0-1.3,0.4-1.4,1.1L22,49.3c-0.3,1,0.4,1.9,1.4,1.9
        H50h26.6C77.6,51.2,78.3,50.3,78,49.3z M69.7,46.5l-8.3-26.4h3.3l8.5,26.4H69.7z"/>
</g>
</svg>
