<?xml version="1.0" standalone="no"?>
<!DOCTYPE svg PUBLIC "-//W3C//DTD SVG 1.1//EN" "http://www.w3.org/Graphics/SVG/1.1/DTD/svg11.dtd" >
<svg xmlns="http://www.w3.org/2000/svg" xmlns:xlink="http://www.w3.org/1999/xlink" version="1.1">
<metadata></metadata>
<defs>
<font id="fira_sanslight_italic" horiz-adv-x="1146" >
<font-face units-per-em="2048" ascent="1638" descent="-410" />
<missing-glyph horiz-adv-x="565" />
<glyph unicode="&#xfb01;" horiz-adv-x="1157" />
<glyph unicode="&#xfb02;" horiz-adv-x="1193" />
<glyph horiz-adv-x="0" />
<glyph unicode="&#xd;" horiz-adv-x="565" />
<glyph unicode=" "  horiz-adv-x="565" />
<glyph unicode="&#x09;" horiz-adv-x="565" />
<glyph unicode="&#xa0;" horiz-adv-x="565" />
<glyph unicode="!" horiz-adv-x="487" d="M88 68q0 45 29.5 75.5t75.5 30.5q41 0 65.5 -25.5t24.5 -64.5q0 -45 -31 -76t-76 -31q-39 0 -63.5 26t-24.5 65zM176 446l125 957h127l-145 -957h-107z" />
<glyph unicode="&#x22;" horiz-adv-x="737" d="M211 887l53 516h129l-92 -516h-90zM535 887l53 516h129l-92 -516h-90z" />
<glyph unicode="#" horiz-adv-x="1026" d="M6 369l14 96h160l125 461h-143l12 96h158l92 340h111l-93 -340h365l92 340h109l-93 -340h148l-12 -96h-162l-125 -461h147l-14 -96h-160l-100 -369h-111l101 369h-365l-100 -369h-109l101 369h-148zM289 465h364l127 461h-364z" />
<glyph unicode="$" horiz-adv-x="1069" d="M25 150l75 71q137 -141 346 -141q180 0 277.5 92t97.5 234q0 96 -63.5 157.5t-212.5 112.5q-180 59 -262 140t-82 206q0 158 107.5 254t291.5 106l39 295h104l-43 -299q94 -10 170 -47t146 -102l-74 -74q-133 127 -313 127q-139 0 -223 -65.5t-84 -188.5q0 -92 61 -149.5 t213 -104.5q170 -53 259 -138t89 -222q0 -104 -46 -198.5t-144.5 -159t-247.5 -76.5l-41 -289h-105l41 286q-115 8 -210 53.5t-166 119.5z" />
<glyph unicode="%" horiz-adv-x="1619" d="M178 995q0 88 37 178.5t116 150.5t195 60q123 0 196 -73.5t73 -198.5q0 -90 -36 -180t-114 -151.5t-199 -61.5q-120 0 -194 75.5t-74 200.5zM225 8l82 -57l1145 1431l-82 58zM287 991q0 -84 39 -135t120 -51q91 0 144 52t74.5 124t21.5 133q0 84 -38 134t-120 50 q-90 0 -144 -51t-75.5 -121.5t-21.5 -134.5zM864 254q0 90 37 180t116 150.5t197 60.5q121 0 195 -74.5t74 -199.5q0 -88 -36 -179.5t-115 -153t-199 -61.5q-121 0 -195 76t-74 201zM973 250q0 -84 39 -134t121 -50q90 0 144 52t75.5 122.5t21.5 132.5q0 84 -38 134t-122 50 q-90 0 -144 -51t-75.5 -122t-21.5 -134z" />
<glyph unicode="&#x26;" horiz-adv-x="1474" d="M168 317q0 135 74.5 240t263.5 207q-80 90 -119 167t-39 161q0 88 43 164.5t126 122.5t198 46q145 0 236 -77.5t91 -196.5q0 -127 -85 -214t-287 -192l362 -393q106 178 180 355l107 -39q-98 -221 -219 -389l213 -232l-96 -67l-193 215q-98 -106 -213 -162t-262 -56 q-174 0 -277.5 95.5t-103.5 244.5zM289 317q0 -109 70.5 -174t197.5 -65q121 0 217 48t182 142l-387 426q-161 -86 -220.5 -175t-59.5 -202zM467 1092q0 -66 30.5 -132.5t104.5 -146.5q180 92 251 166t71 172q0 82 -58.5 131t-150.5 49q-121 0 -184.5 -69.5t-63.5 -169.5z " />
<glyph unicode="'" horiz-adv-x="413" d="M211 887l53 516h129l-92 -516h-90z" />
<glyph unicode="(" horiz-adv-x="657" d="M117 485q0 256 58 459t169 380t293 394l72 -57q-164 -203 -265.5 -379t-153.5 -371.5t-52 -435.5q0 -207 50 -362.5t154 -348.5l-82 -43q-82 143 -131 247t-80.5 233t-31.5 284z" />
<glyph unicode=")" horiz-adv-x="657" d="M0 -227q166 205 267.5 382t153.5 372.5t52 435.5q0 205 -51 360.5t-154 345.5l80 43q82 -143 131 -246.5t81 -231.5t32 -284q0 -256 -58.5 -459.5t-169 -381t-292.5 -394.5z" />
<glyph unicode="*" horiz-adv-x="886" d="M160 1192l45 102l289 -112l26 325h121l-63 -325l311 118l22 -108l-323 -82l168 -250l-101 -69l-137 268l-211 -268l-88 67l240 250z" />
<glyph unicode="+" horiz-adv-x="1003" d="M154 625l14 104h305l43 311h115l-45 -311h305l-14 -104h-306l-45 -310h-112l45 310h-305z" />
<glyph unicode="," horiz-adv-x="423" d="M-41 -309l127 303q-37 23 -37 74q0 43 31 74.5t74 31.5q41 0 65.5 -25.5t24.5 -64.5q0 -27 -10.5 -54.5t-32.5 -68.5l-154 -270h-88z" />
<glyph unicode="-" horiz-adv-x="815" d="M143 590l17 102h538l-14 -102h-541z" />
<glyph unicode="." horiz-adv-x="425" d="M51 68q0 45 30 75.5t75 30.5q41 0 65.5 -25.5t24.5 -64.5q0 -45 -31 -76t-76 -31q-39 0 -63.5 26t-24.5 65z" />
<glyph unicode="/" horiz-adv-x="1058" d="M139 -176l729 1823l103 -27l-729 -1825z" />
<glyph unicode="0" horiz-adv-x="1120" d="M137 459q0 -236 89 -359t257 -123q186 0 308 143.5t177.5 357.5t55.5 427q0 236 -88 357.5t-258 121.5q-186 0 -308 -144t-177.5 -357t-55.5 -424zM258 440q0 197 45 391.5t139.5 324.5t233.5 130q227 0 227 -362q0 -197 -44 -392.5t-138 -324.5t-234 -129 q-229 0 -229 362z" />
<glyph unicode="1" horiz-adv-x="839" d="M166 1110l442 252h103l-193 -1362h-119l172 1221l-362 -209z" />
<glyph unicode="2" horiz-adv-x="974" d="M10 0l15 104q340 317 497.5 484.5t210.5 266.5t53 204q0 106 -61 164.5t-168 58.5q-94 0 -170 -39t-151 -119l-80 72q94 98 193.5 143t215.5 45q160 0 252 -88t92 -233q0 -117 -57 -228.5t-213 -277.5t-471 -455l641 4l-35 -106h-764z" />
<glyph unicode="3" horiz-adv-x="991" d="M-12 158l82 65q59 -78 128.5 -110.5t161.5 -32.5q123 0 204 53t120 137t39 174q0 225 -266 226h-95l29 96h66q102 0 175 44t109.5 114.5t36.5 150.5q0 100 -59.5 155.5t-161.5 55.5q-88 0 -164 -31.5t-162 -101.5l-59 78q94 78 188.5 115.5t204.5 37.5q158 0 246 -85 t88 -222q0 -125 -82 -226t-237 -128q117 -4 190.5 -80t73.5 -211q0 -106 -52.5 -210.5t-163 -174.5t-272.5 -70q-238 0 -368 181z" />
<glyph unicode="4" horiz-adv-x="1056" d="M68 358l12 91l538 935l103 -41l-510 -886h463l69 399h105l-57 -399h182l-15 -99h-180l-51 -358h-119l51 358h-591z" />
<glyph unicode="5" horiz-adv-x="991" d="M14 145l82 68q55 -68 123 -100.5t164 -32.5q131 0 215 67.5t122 165t38 189.5q0 131 -64.5 197.5t-173.5 66.5q-68 0 -121 -15.5t-118 -50.5h-97l92 662h685l-31 -98h-551l-68 -465q111 63 236 63q156 0 245 -97t89 -265q0 -117 -52.5 -238t-165 -203t-282.5 -82 q-123 0 -211 43t-156 125z" />
<glyph unicode="6" horiz-adv-x="1067" d="M131 434q0 233 71.5 452.5t210 358.5t324.5 139q76 0 134.5 -20.5t111.5 -60.5l-59 -80q-86 63 -191 63q-168 0 -292 -166t-171 -436q158 205 375 205q139 0 227.5 -90t88.5 -258q0 -125 -50.5 -255t-156 -219.5t-260.5 -89.5q-188 0 -275.5 122t-87.5 335zM250 420 q0 -170 58.5 -256t187.5 -86q120 0 198 76.5t113 183t35 203.5q0 125 -58.5 186t-156.5 61q-106 0 -200.5 -62t-170.5 -173q-6 -70 -6 -133z" />
<glyph unicode="7" horiz-adv-x="888" d="M100 20l693 1242h-629l12 100h758l-12 -92l-711 -1286z" />
<glyph unicode="8" horiz-adv-x="1095" d="M80 317q0 287 348 416q-193 94 -192 283q0 109 57 192.5t153.5 129.5t210.5 46q145 0 247 -78.5t102 -220.5q0 -125 -69 -208.5t-224 -155.5q129 -57 191.5 -133t62.5 -185q0 -125 -63.5 -222t-176.5 -150.5t-254 -53.5q-182 0 -287.5 94.5t-105.5 245.5zM201 317 q0 -113 74.5 -176t201.5 -63q162 0 264.5 89t102.5 243q0 90 -59.5 146t-200.5 112l-66 24q-180 -70 -248.5 -165t-68.5 -210zM352 1018q0 -88 50.5 -142.5t164.5 -97.5l62 -22q143 74 201.5 150.5t58.5 178.5q0 98 -62.5 151.5t-171.5 53.5q-137 0 -220 -77.5t-83 -194.5z " />
<glyph unicode="9" horiz-adv-x="1054" d="M150 53q295 88 465.5 238.5t224.5 410.5q-72 -92 -164 -143t-197 -51q-143 0 -232 100.5t-89 263.5q0 123 50 241t155.5 194.5t259.5 76.5q180 0 270 -109.5t90 -305.5q0 -360 -173 -624.5t-638 -385.5zM276 868q0 -123 59.5 -191.5t164.5 -68.5q100 0 187 54.5 t167 158.5q10 98 10 148q0 160 -59.5 238.5t-183.5 78.5q-123 0 -200 -65.5t-111 -161.5t-34 -191z" />
<glyph unicode=":" horiz-adv-x="425" d="M51 68q0 45 30 75.5t75 30.5q41 0 65.5 -25.5t24.5 -64.5q0 -45 -31 -76t-76 -31q-39 0 -63.5 26t-24.5 65zM164 867q0 45 30 75.5t75 30.5q41 0 65.5 -25.5t24.5 -64.5q0 -45 -31 -76t-76 -31q-39 0 -63.5 26t-24.5 65z" />
<glyph unicode=";" horiz-adv-x="428" d="M-41 -309l127 303q-37 23 -37 74q0 43 31 74.5t74 31.5q41 0 65.5 -25.5t24.5 -64.5q0 -27 -10.5 -54.5t-32.5 -68.5l-154 -270h-88zM168 867q0 45 30 75.5t75 30.5q41 0 65.5 -25.5t24.5 -64.5q0 -45 -31 -76t-76 -31q-39 0 -63.5 26t-24.5 65z" />
<glyph unicode="&#x3c;" horiz-adv-x="1011" d="M141 625l17 114l755 344l35 -104l-692 -299l604 -305l-57 -99z" />
<glyph unicode="=" horiz-adv-x="1007" d="M129 447l14 104h725l-16 -104h-723zM181 805l14 104h725l-16 -104h-723z" />
<glyph unicode="&#x3e;" horiz-adv-x="1011" d="M104 377l693 311l-604 295l57 100l661 -344l-16 -114l-758 -349z" />
<glyph unicode="?" horiz-adv-x="911" d="M180 1239q96 96 196.5 141t219.5 45q152 0 234.5 -73.5t82.5 -188.5q0 -92 -36.5 -157.5t-90 -108.5t-139.5 -92q-74 -43 -116 -75t-70.5 -77t-28.5 -106q0 -41 10 -82l-106 -23q-20 57 -21 113q0 80 34 137.5t82 94t130 87.5q76 47 121 81t75.5 84.5t30.5 119.5 q0 78 -53 122t-147 44q-92 0 -171 -38t-161 -120zM279 66q0 45 29.5 75.5t74.5 30.5q41 0 65.5 -25.5t24.5 -64.5q0 -45 -30.5 -76t-75.5 -31q-39 0 -63.5 26t-24.5 65z" />
<glyph unicode="@" horiz-adv-x="2082" d="M156 367q0 242 105.5 485.5t333.5 408t576 164.5q242 0 413 -91t258 -248.5t87 -358.5q0 -162 -47 -323.5t-150.5 -270t-258.5 -108.5q-102 0 -160 62.5t-64 158.5q-123 -217 -323 -217q-131 0 -214 93t-83 257q0 143 52 283.5t164.5 234.5t284.5 94q150 0 289 -76 l-73 -550q-6 -39 -7 -80q0 -164 131 -164q117 0 194 95t111.5 235.5t34.5 279.5q0 178 -73.5 312.5t-218 207t-349.5 72.5q-307 0 -508.5 -148.5t-293 -368.5t-91.5 -439q0 -203 85 -357.5t241 -240.5t365 -86t397 69l25 -100q-113 -37 -208.5 -54.5t-217.5 -17.5 q-236 0 -419.5 98.5t-285.5 276.5t-102 412zM745 371q0 -121 51.5 -184.5t143.5 -63.5q98 0 175 68.5t118 158.5l72 508q-82 41 -172 41q-139 0 -226.5 -83t-124.5 -203.5t-37 -241.5z" />
<glyph unicode="A" horiz-adv-x="1150" d="M-43 0l664 1403h153l268 -1403h-127l-67 383h-588l-176 -383h-127zM309 487h520l-145 813z" />
<glyph unicode="B" horiz-adv-x="1218" d="M150 0l198 1403h348q197 0 310.5 -78t113.5 -231q0 -141 -86 -234.5t-227 -118.5q129 -16 208 -86.5t79 -208.5q0 -190 -131.5 -318t-427.5 -128h-385zM289 104h254q231 0 327.5 97.5t96.5 247.5q0 123 -82 181t-221 58h-293zM385 788h268q160 0 251 83t91 221 q0 208 -292 208h-3h-243z" />
<glyph unicode="C" horiz-adv-x="1120" d="M145 539q0 205 71 409.5t222.5 340.5t378.5 136q113 0 195 -32.5t153 -98.5l-71 -73q-66 53 -128.5 76.5t-144.5 23.5q-190 0 -313 -122t-179.5 -303t-56.5 -364q0 -221 98.5 -333.5t262.5 -112.5q100 0 174 29.5t154 89.5l59 -86q-178 -141 -395 -142 q-217 0 -348.5 146.5t-131.5 415.5z" />
<glyph unicode="D" horiz-adv-x="1290" d="M150 0l198 1403h275q256 0 412.5 -113.5t156.5 -410.5q0 -236 -75 -434.5t-239.5 -321.5t-422.5 -123h-305zM289 102h182q213 0 346 113t191.5 289t58.5 377q0 248 -120 333.5t-316 85.5h-174z" />
<glyph unicode="E" horiz-adv-x="1044" d="M150 0l198 1403h709l-29 -103h-571l-74 -522h496l-15 -102h-495l-82 -572h602l-15 -104h-724z" />
<glyph unicode="F" horiz-adv-x="978" d="M150 0l198 1403h696l-28 -103h-559l-78 -546h485l-14 -103h-485l-93 -651h-122z" />
<glyph unicode="G" horiz-adv-x="1259" d="M145 532q0 217 77 423t232.5 338t376.5 132q115 0 205 -34.5t170 -106.5l-78 -70q-70 57 -137 82t-160 25q-184 0 -310 -119t-186.5 -303t-60.5 -381q0 -219 96.5 -326.5t276.5 -107.5q160 0 301 74l72 495h-270l-2 105h407l-90 -662q-201 -119 -430 -119t-359.5 142.5 t-130.5 412.5z" />
<glyph unicode="H" horiz-adv-x="1368" d="M150 0l198 1403h123l-86 -612h670l86 612h123l-199 -1403h-123l96 686h-669l-97 -686h-122z" />
<glyph unicode="I" horiz-adv-x="575" d="M150 0l198 1403h123l-199 -1403h-122z" />
<glyph unicode="J" horiz-adv-x="591" d="M-74 -152q100 41 155.5 85t83.5 105.5t40 160.5l170 1204h123l-170 -1219q-16 -125 -59.5 -202.5t-117 -129t-198.5 -98.5z" />
<glyph unicode="K" horiz-adv-x="1116" d="M150 0l198 1403h123l-197 -1403h-124zM387 752l670 651h147l-676 -655l512 -748h-145z" />
<glyph unicode="L" horiz-adv-x="966" d="M150 0l198 1403h123l-182 -1292h583l-32 -111h-690z" />
<glyph unicode="M" horiz-adv-x="1572" d="M66 0l329 1403h162l197 -1092l485 1092h178l-61 -1403h-119l31 676q12 338 32 608l-507 -1118h-117l-207 1116q-23 -141 -131 -610l-154 -672h-118z" />
<glyph unicode="N" horiz-adv-x="1372" d="M150 0l198 1403h160l483 -1288q6 207 41 440l119 848h117l-197 -1403h-158l-483 1292q-6 -193 -53 -514l-111 -778h-116z" />
<glyph unicode="O" horiz-adv-x="1409" d="M145 537q0 199 70 403.5t223.5 344.5t388.5 140q226 0 355 -144t129 -413q0 -205 -67.5 -409.5t-220.5 -343t-390 -138.5q-225 0 -356.5 145.5t-131.5 414.5zM274 532q0 -225 95.5 -336.5t265.5 -111.5q201 0 323.5 126t174 306t51.5 358q0 223 -94.5 335t-268.5 112 q-196 0 -318 -126t-175.5 -306t-53.5 -357z" />
<glyph unicode="P" horiz-adv-x="1161" d="M150 0l198 1403h324q227 0 348 -88t121 -266q0 -215 -138.5 -358.5t-447.5 -143.5h-205l-78 -547h-122zM365 649h196q246 0 347.5 111.5t101.5 288.5q0 135 -87 194.5t-259 59.5h-207z" />
<glyph unicode="Q" horiz-adv-x="1388" d="M145 537q0 199 70 403.5t223.5 344.5t388.5 140q225 0 354.5 -144t129.5 -413q0 -163 -44 -331t-142.5 -302.5t-252.5 -189.5q111 -4 204 -39t163 -98l-90 -98q-96 96 -210 131.5t-306 35.5q-225 0 -356.5 145.5t-131.5 414.5zM274 524q0 -219 95.5 -329.5t265.5 -110.5 q201 0 323.5 126t174 309t51.5 366q0 217 -95.5 326.5t-267.5 109.5q-197 0 -318.5 -126t-175 -308t-53.5 -363z" />
<glyph unicode="R" horiz-adv-x="1202" d="M150 0l198 1403h344q442 0 443 -330q0 -145 -90.5 -264t-280.5 -162l295 -647h-137l-279 629h-283l-88 -629h-122zM375 729h243q205 0 296.5 102.5t91.5 241.5q0 119 -77 174.5t-245 55.5h-227z" />
<glyph unicode="S" horiz-adv-x="1097" d="M27 158l77 73q70 -74 154 -110.5t197 -36.5q129 0 217 47t131 122t43 161q0 106 -63.5 168.5t-221.5 115.5q-188 63 -270 141.5t-82 213.5q0 94 53 180t156.5 139t245.5 53q122 0 214.5 -39.5t168.5 -117.5l-78 -76q-66 70 -138.5 99.5t-166.5 29.5q-147 0 -239.5 -72.5 t-92.5 -191.5q0 -96 62.5 -151.5t221.5 -108.5q178 -55 267.5 -140.5t89.5 -236.5q0 -111 -55.5 -211t-173 -166t-291.5 -66q-139 0 -243 47.5t-183 133.5z" />
<glyph unicode="T" horiz-adv-x="1009" d="M135 1294l17 109h960l-31 -109h-409l-183 -1294h-122l182 1294h-414z" />
<glyph unicode="U" horiz-adv-x="1329" d="M186 350q0 43 7 92l135 961h123l-136 -959q-6 -45 -6 -88q0 -272 287 -272q172 0 270.5 97.5t122.5 271.5l133 950h123l-135 -969q-29 -209 -162 -333t-356 -124q-201 0 -303.5 100.5t-102.5 272.5z" />
<glyph unicode="V" horiz-adv-x="1114" d="M154 1403h129l213 -1274l577 1274h129l-653 -1403h-137z" />
<glyph unicode="W" horiz-adv-x="1652" d="M184 1403h121l84 -1286l488 1286h139l129 -1288l450 1288h117l-504 -1403h-153l-127 1264l-484 -1264h-149z" />
<glyph unicode="X" horiz-adv-x="1048" d="M-55 0l532 756l-293 647h135l236 -565l401 565h136l-469 -645l327 -758h-133l-274 670l-461 -670h-137z" />
<glyph unicode="Y" horiz-adv-x="1064" d="M150 1403h129l268 -741l477 741h137l-563 -854l-78 -549h-125l78 547z" />
<glyph unicode="Z" horiz-adv-x="1050" d="M-4 0l14 102l912 1194h-668l14 107h809l-14 -103l-907 -1191h725l-31 -109h-854z" />
<glyph unicode="[" horiz-adv-x="643" d="M63 -229l265 1882h340l-15 -99h-229l-238 -1687h230l-13 -96h-340z" />
<glyph unicode="\" horiz-adv-x="1058" d="M395 1620l103 22l217 -1822l-105 -25z" />
<glyph unicode="]" horiz-adv-x="643" d="M27 -229l12 96h229l240 1687h-229l12 99h340l-264 -1882h-340z" />
<glyph unicode="^" horiz-adv-x="1081" d="M190 1079l465 625h101l288 -625h-131l-221 508l-366 -508h-136z" />
<glyph unicode="_" horiz-adv-x="1058" d="M-53 -250l14 105h946l-14 -105h-946z" />
<glyph unicode="`" horiz-adv-x="552" d="M197 1495l61 109l354 -215l-41 -68z" />
<glyph unicode="a" d="M119 393q0 160 57 322t181 270.5t313 108.5q100 0 180 -22.5t164 -65.5l-113 -773q-4 -23 -4 -61q0 -43 15.5 -68.5t52.5 -42.5l-35 -84q-72 17 -109 61q-35 42 -35 125v9q-61 -90 -146 -142.5t-183 -52.5q-160 0 -249 112t-89 304zM246 393q0 -156 59.5 -235.5 t169.5 -79.5q96 0 173 57.5t147 167.5l92 645q-98 49 -213 49q-146 0 -243 -94t-141 -233.5t-44 -276.5z" />
<glyph unicode="b" horiz-adv-x="1171" d="M147 47l207 1460l119 17l-80 -586q156 156 336 156q154 0 239 -105.5t85 -300.5q0 -164 -55.5 -326.5t-179.5 -273.5t-318 -111q-88 0 -167 15.5t-186 54.5zM279 121q55 -23 106 -33t121 -10q150 0 245 97t137 238.5t42 280.5q0 152 -58.5 225.5t-166.5 73.5 q-97 0 -172.5 -46t-157.5 -132z" />
<glyph unicode="c" horiz-adv-x="956" d="M123 410q0 156 55 313.5t175 264t302 106.5q178 0 289 -111l-67 -76q-47 43 -100.5 64.5t-123.5 21.5q-143 0 -234 -92t-132 -228t-41 -270q0 -162 70.5 -241.5t197.5 -79.5q74 0 136.5 22.5t127.5 67.5l51 -84q-145 -111 -321 -111q-180 0 -282.5 114t-102.5 319z" />
<glyph unicode="d" horiz-adv-x="1183" d="M121 399q0 156 51 315.5t164 269.5t287 110q182 0 282 -148l82 576l117 -15l-213 -1507h-103l17 217q-63 -109 -151.5 -174.5t-202.5 -65.5q-156 0 -243 113t-87 309zM246 393q0 -154 58 -234.5t163 -80.5q111 0 192.5 73.5t165.5 219.5l68 467q-45 74 -104.5 115.5 t-149.5 41.5q-137 0 -226 -95t-128 -233.5t-39 -273.5z" />
<glyph unicode="e" horiz-adv-x="1050" d="M121 408q0 162 58.5 319.5t182 262t306.5 104.5q150 0 233.5 -73t83.5 -185q0 -197 -192.5 -292t-546.5 -122v-12q0 -168 72.5 -248t199.5 -80q84 0 154.5 25.5t148.5 80.5l53 -84q-86 -63 -175 -95t-189 -32q-184 0 -286.5 113t-102.5 318zM252 516q307 25 458.5 98.5 t151.5 216.5q0 70 -49 117t-145 47q-185 0 -288.5 -141t-127.5 -338z" />
<glyph unicode="f" horiz-adv-x="653" d="M-106 -326q84 39 133 78t81.5 105.5t49.5 181.5l131 936h-187l15 96h186l25 178q16 127 104 201t225 74q68 0 125.5 -18.5t116.5 -55.5l-47 -82q-94 55 -190 55q-193 0 -218 -182l-24 -170h280l-26 -96h-266l-132 -940q-20 -139 -61 -221t-105.5 -131.5t-179.5 -100.5z " />
<glyph unicode="g" horiz-adv-x="1163" d="M74 -324l47 91q156 -86 303 -86q289 0 336 325l24 178q-61 -84 -145 -134t-178 -50q-158 0 -248 110.5t-92 299.5q0 160 58.5 317.5t183 262t315.5 104.5q100 0 180 -22.5t164 -65.5l-145 -998q-63 -432 -449 -432q-184 0 -354 100zM248 410q0 -150 61.5 -230t169.5 -80 q94 0 174 57.5t152 166.5l90 624q-98 49 -217 49q-148 0 -245 -90t-142 -225q-43 -129 -43 -260v-12z" />
<glyph unicode="h" horiz-adv-x="1191" d="M139 0l213 1507l121 15l-100 -711q76 135 177 209t218 74q123 0 188.5 -68t65.5 -190q0 -35 -6 -76l-107 -760h-118l106 752q4 25 4 69q0 90 -38 131t-115 41q-209 0 -400 -352l-90 -641h-119z" />
<glyph unicode="i" horiz-adv-x="550" d="M139 0l152 1071h119l-152 -1071h-119zM315 1448q0 41 28 67.5t69 26.5q37 0 59.5 -21.5t22.5 -56.5q0 -41 -28 -67.5t-69 -26.5q-36 0 -59 21.5t-23 56.5z" />
<glyph unicode="j" horiz-adv-x="550" d="M-115 -328q84 39 132.5 78t81 106.5t48.5 182.5l146 1032h119l-148 -1036q-18 -139 -59 -221t-106.5 -131.5t-180.5 -100.5zM317 1448q0 41 28 67.5t69 26.5q37 0 59.5 -21.5t22.5 -56.5q0 -41 -28 -67.5t-69 -26.5q-36 0 -59 21.5t-23 56.5z" />
<glyph unicode="k" horiz-adv-x="1071" d="M139 0l213 1507l121 17l-100 -715q84 145 185 215t214 70q111 0 178.5 -62.5t67.5 -167.5q0 -131 -90 -228t-262 -153l243 -483h-133l-256 520q188 53 280.5 135t92.5 199q0 68 -37 105.5t-111 37.5q-111 0 -214 -97t-185 -275l-88 -625h-119z" />
<glyph unicode="l" horiz-adv-x="577" d="M156 143q0 14 4 56l184 1308l119 17l-189 -1344q-2 -10 -2 -28q0 -37 16.5 -54.5t53.5 -17.5q33 0 78 16l26 -90q-63 -29 -122 -29q-80 0 -124 42t-44 124z" />
<glyph unicode="m" horiz-adv-x="1738" d="M139 0l152 1071h102l-28 -264q172 287 378 287q104 0 167 -70q61 -68 61 -189v-8q166 266 372 267q107 0 167.5 -69t60.5 -189q0 -33 -6 -74l-109 -762h-119l107 752q6 41 6 73q0 168 -141 168q-94 0 -182.5 -92t-178.5 -254l-92 -647h-119l107 752q6 41 6 73 q0 168 -141 168q-96 0 -183.5 -93t-177.5 -259l-90 -641h-119z" />
<glyph unicode="n" horiz-adv-x="1189" d="M139 0l152 1071h102l-28 -266q84 139 186 214t219 75q121 0 186.5 -68t65.5 -192q0 -37 -6 -78l-107 -756h-118l106 752q4 25 4 67q0 174 -156 174q-207 0 -397 -352l-90 -641h-119z" />
<glyph unicode="o" horiz-adv-x="1165" d="M123 412q0 154 53 310.5t173 264t308 107.5q186 0 286.5 -113t100.5 -317q0 -152 -52 -309.5t-173 -267.5t-309 -110q-184 0 -285.5 115t-101.5 320zM246 401q0 -160 69.5 -241.5t198.5 -81.5q145 0 236.5 94t130.5 230.5t39 269.5q0 160 -68 241.5t-197 81.5 q-147 0 -239 -95t-131 -232.5t-39 -266.5z" />
<glyph unicode="p" horiz-adv-x="1169" d="M80 -424l211 1495h102l-10 -145q156 168 344 168q154 0 239 -104.5t85 -301.5q0 -164 -54.5 -326.5t-178.5 -273.5t-318 -111q-119 0 -240 43l-61 -428zM279 121q55 -23 106 -33t119 -10q149 0 245.5 97t138.5 238.5t42 280.5q0 152 -59.5 225.5t-168.5 73.5 q-96 0 -171.5 -46t-155.5 -132z" />
<glyph unicode="q" horiz-adv-x="1161" d="M119 393q0 160 57 322t181 270.5t313 108.5q100 0 181 -21.5t169 -66.5l-201 -1414l-119 -16l80 584q-55 -82 -140 -132.5t-183 -50.5q-160 0 -249 112t-89 304zM246 393q0 -156 59.5 -235.5t169.5 -79.5q96 0 175 57.5t149 167.5l94 645q-98 49 -219 49 q-145 0 -242.5 -94t-141.5 -233.5t-44 -276.5z" />
<glyph unicode="r" horiz-adv-x="759" d="M139 0l152 1071h102l-26 -260q125 283 340 283q59 -1 102 -15l-33 -112q-37 12 -86 12q-113 0 -193.5 -92t-150.5 -277l-88 -610h-119z" />
<glyph unicode="s" horiz-adv-x="944" d="M18 123l68 70q70 -57 143.5 -86t167.5 -29q139 0 216 60.5t77 158.5q0 86 -52 133t-194 92q-158 49 -222 116t-64 169q0 78 45 143.5t130 104.5t199 39q191 0 330 -121l-63 -72q-61 47 -125 69.5t-142 22.5q-115 0 -184 -48t-69 -132q0 -70 52 -114t183 -83 q158 -49 228.5 -120.5t70.5 -188.5q0 -150 -112.5 -240t-303.5 -90q-125 0 -216 39t-163 107z" />
<glyph unicode="t" horiz-adv-x="694" d="M96 975l15 96h182l59 260l94 10l-38 -270h276l-29 -96h-260l-100 -711q-4 -37 -4 -51q0 -133 127 -133q78 0 174 51l41 -88q-111 -66 -230 -66q-109 0 -170 58.5t-61 167.5q0 20 4 61l100 711h-180z" />
<glyph unicode="u" horiz-adv-x="1181" d="M168 236q0 35 6 73l107 762h118l-106 -758q-4 -25 -4 -65q0 -172 155 -172q113 0 210.5 93t174.5 247l93 655h118l-151 -1071h-98l28 272q-74 -137 -173 -216t-224 -79q-121 0 -187.5 68t-66.5 191z" />
<glyph unicode="v" horiz-adv-x="958" d="M106 1071h130l186 -965l448 965h134l-523 -1071h-145z" />
<glyph unicode="w" horiz-adv-x="1425" d="M129 1071h117l94 -979l383 979h139l105 -979l364 979h117l-410 -1071h-159l-101 961l-375 -961h-157z" />
<glyph unicode="x" horiz-adv-x="935" d="M-55 0l456 575l-256 496h131l205 -428l324 428h139l-399 -506l293 -565h-133l-242 494l-377 -494h-141z" />
<glyph unicode="y" horiz-adv-x="952" d="M-16 -324q109 25 176 64t111 97.5t100 162.5h-45l-220 1071h127l183 -981l454 981h127l-510 -1079q-88 -184 -196.5 -279.5t-300.5 -130.5z" />
<glyph unicode="z" horiz-adv-x="860" d="M-20 0l14 92l708 875h-536l14 104h686l-12 -92l-711 -877h582l-27 -102h-718z" />
<glyph unicode="{" horiz-adv-x="661" d="M102 664l15 102q80 0 125 37t57 119l72 522q20 135 94 193.5t227 58.5l-6 -92q-96 0 -144 -39t-61 -125l-71 -518q-14 -102 -55.5 -145.5t-127.5 -63.5q63 -16 95 -50t32 -104q0 -16 -4 -57l-74 -518q-4 -29 -4 -43q0 -59 37 -86t121 -27l-6 -94q-260 0 -260 209 q0 16 4 53l74 522q2 12 2 37q0 59 -34 84t-108 25z" />
<glyph unicode="|" horiz-adv-x="827" d="M254 -205l260 1852h111l-258 -1852h-113z" />
<glyph unicode="}" horiz-adv-x="661" d="M20 -266l7 94q96 0 143 39t59 125l74 518q14 102 55 145t127 64q-66 16 -97.5 49t-31.5 102q0 16 4 58l76 518q2 14 2 41q0 61 -35.5 89t-119.5 28l6 92q125 0 192.5 -52.5t67.5 -156.5q0 -14 -4 -51l-74 -523q-4 -29 -4 -41q0 -57 34 -80.5t107 -23.5l-12 -102 q-80 0 -125 -37t-57 -119l-74 -522q-18 -135 -94 -194.5t-226 -59.5z" />
<glyph unicode="~" horiz-adv-x="960" d="M113 606q55 72 110.5 113t132.5 41q45 0 82 -16.5t86 -49.5q37 -27 65.5 -40t59.5 -13q47 0 84 23.5t76 70.5l70 -47q-49 -70 -104.5 -108.5t-131.5 -38.5q-45 0 -82 16t-90 49q-37 27 -65.5 40t-57.5 13q-49 0 -86 -25.5t-78 -74.5z" />
<glyph unicode="&#xa1;" horiz-adv-x="487" d="M55 -403l140 913h108l-121 -913h-127zM203 866q0 45 29.5 76t74.5 31q41 0 65.5 -25.5t24.5 -64.5q0 -45 -30.5 -76t-75.5 -31q-39 0 -63.5 25.5t-24.5 64.5z" />
<glyph unicode="&#xa2;" horiz-adv-x="956" d="M123 410q0 143 48 291.5t151.5 257t261.5 131.5l43 303h102l-41 -299q156 -10 256 -111l-67 -76q-47 43 -100.5 64.5t-123.5 21.5q-143 0 -234 -92t-132 -228t-41 -270q0 -162 70.5 -241.5t197.5 -79.5q74 0 136.5 22.5t127.5 67.5l51 -84q-135 -104 -301 -111l-39 -284 h-104l41 291q-143 25 -223 135t-80 291z" />
<glyph unicode="&#xa3;" horiz-adv-x="1036" d="M27 0l12 100q106 45 150 96.5t59 157.5l45 324h-133l12 88h133l37 260q23 160 125 259t268 99q107 0 182.5 -38.5t133.5 -118.5l-84 -60q-43 61 -96.5 89t-131.5 28q-117 0 -190.5 -72.5t-89.5 -193.5l-35 -252h434l-12 -88h-434l-47 -330q-14 -100 -50 -152.5 t-116 -91.5h665l-30 -104h-807z" />
<glyph unicode="&#xa4;" d="M100 283l164 161q-82 106 -82 254q0 141 80 250l-162 164l74 74l164 -164q100 74 235 74t238 -70l162 160l74 -74l-160 -160q82 -106 82 -254q0 -150 -84 -256l162 -159l-74 -74l-164 160q-100 -70 -236 -70q-137 0 -233 74l-166 -164zM299 698q0 -139 71.5 -220 t204.5 -81q136 0 206.5 81t70.5 220t-70.5 221t-206.5 82q-133 0 -204.5 -81.5t-71.5 -221.5z" />
<glyph unicode="&#xa5;" horiz-adv-x="1042" d="M143 1362h133l273 -641l455 641h129l-488 -670h238l-15 -88h-274l-29 -211h275l-13 -88h-276l-43 -305h-121l43 305h-276l12 88h278l29 211h-278l14 88h240z" />
<glyph unicode="&#xa6;" horiz-adv-x="827" d="M254 -205l104 742h111l-102 -742h-113zM410 907l104 740h111l-103 -740h-112z" />
<glyph unicode="&#xa7;" horiz-adv-x="1085" d="M100 -43l56 82q115 -80 276 -80q139 0 200.5 53.5t61.5 134.5q0 70 -47 112t-178 89q-156 55 -220.5 115.5t-64.5 161.5q0 88 50.5 157.5t156.5 128.5q-47 37 -68.5 81t-21.5 104q0 127 101.5 206.5t265.5 79.5q100 0 177 -26.5t144 -75.5l-55 -76q-63 41 -126 61.5 t-140 20.5q-129 0 -188.5 -52t-59.5 -132q0 -72 47 -115t182 -92q147 -53 212 -117.5t65 -159.5q0 -88 -47.5 -154.5t-153.5 -129.5q90 -70 90 -182q0 -76 -41 -142.5t-129 -107.5t-219 -41q-182 0 -326 96zM303 635q0 -68 44 -112t161 -85q84 -29 143 -59q90 57 123 109.5 t33 117.5q0 66 -44 112t-161 89q-78 27 -141 59q-86 -55 -122 -108t-36 -123z" />
<glyph unicode="&#xa8;" horiz-adv-x="673" d="M189 1430q0 39 25.5 64.5t64.5 25.5q33 0 54.5 -20.5t21.5 -53.5q0 -37 -26 -62.5t-65 -25.5q-32 0 -53.5 20.5t-21.5 51.5zM574 1430q0 39 26.5 64.5t65.5 25.5q33 0 53.5 -20.5t20.5 -53.5q0 -37 -26 -62.5t-65 -25.5q-32 0 -53.5 20.5t-21.5 51.5z" />
<glyph unicode="&#xa9;" horiz-adv-x="1658" d="M272 891q0 176 80 317.5t219.5 220t309.5 78.5t308 -78.5t218 -219t80 -318.5q0 -176 -80 -317.5t-218 -221.5t-308 -80t-309.5 79t-219.5 220.5t-80 319.5zM365 891q0 -158 66.5 -280t184 -189.5t267.5 -67.5q145 0 263 67.5t184.5 190.5t66.5 279q0 158 -66.5 279.5 t-183.5 189t-264 67.5q-150 0 -267.5 -67.5t-184 -190t-66.5 -278.5zM580 893q0 119 43 202t112.5 125t147.5 42q65 0 114.5 -18.5t94.5 -53.5l-50 -68q-37 27 -72.5 39.5t-82.5 12.5q-82 0 -141.5 -68t-59.5 -213q0 -139 55.5 -211t147.5 -72q51 0 90 15.5t80 46.5l47 -70 q-96 -82 -221 -82q-135 0 -220 100.5t-85 272.5z" />
<glyph unicode="&#xaa;" horiz-adv-x="1028" d="M78 0l14 104h725l-16 -104h-723zM195 784q0 123 96 203t297 80h157l11 68q4 33 4 47q0 68 -38 96.5t-122 28.5q-106 0 -242 -45l-24 88q150 53 284 53q256 0 256 -213q0 -33 -2 -49l-51 -377q-2 -10 -4 -22.5t-2 -24.5q0 -27 12.5 -45.5t40.5 -30.5l-32 -80 q-57 12 -87 41t-38 88q-109 -129 -277 -129q-112 0 -175.5 62.5t-63.5 160.5zM315 788q0 -63 36 -99t104 -36q77 0 142 37t112 105l26 190h-147q-141 0 -207 -53t-66 -144z" />
<glyph unicode="&#xab;" horiz-adv-x="1132" d="M147 547l9 82l391 436l71 -51l-339 -424l221 -426l-78 -49zM583 547l9 82l391 436l71 -51l-339 -424l221 -426l-78 -49z" />
<glyph unicode="&#xac;" horiz-adv-x="1017" d="M152 604l12 105h735l-49 -365h-117l37 260h-618z" />
<glyph unicode="&#xad;" horiz-adv-x="815" d="M143 590l17 102h538l-14 -102h-541z" />
<glyph unicode="&#xae;" horiz-adv-x="1308" d="M231 1014q0 135 65.5 248.5t178.5 180t248 66.5q137 0 248.5 -64.5t177 -177t65.5 -249.5q0 -135 -65.5 -248t-178 -179.5t-247.5 -66.5t-248 64.5t-178.5 177.5t-65.5 248zM313 1014q0 -117 54.5 -212t148.5 -148.5t207 -53.5q115 0 208 55.5t147.5 150.5t54.5 212 q0 119 -53.5 214t-146.5 148.5t-210 53.5q-113 0 -207 -55.5t-148.5 -152t-54.5 -212.5zM553 745v558h141q231 0 232 -166q0 -60 -34 -98t-95 -54l151 -240h-104l-131 228h-74v-228h-86zM639 1044h80q119 0 119 93q0 51 -32 72.5t-99 21.5h-68v-187z" />
<glyph unicode="&#xaf;" horiz-adv-x="614" d="M180 1384l14 97h492l-15 -97h-491z" />
<glyph unicode="&#xb0;" horiz-adv-x="1060" d="M219 1073q0 100 47 181t125 126t168 45q119 0 193.5 -69.5t74.5 -194.5q0 -100 -47 -181t-124.5 -126t-168.5 -45q-118 0 -193 69.5t-75 194.5zM324 1071q0 -82 44 -127t121 -45q103 0 168.5 72.5t65.5 191.5q0 84 -44 128t-122 44q-102 0 -167.5 -72.5t-65.5 -191.5z " />
<glyph unicode="&#xb1;" horiz-adv-x="1005" d="M66 0l14 104h725l-16 -104h-723zM158 648l14 104h305l43 311h115l-45 -311h305l-14 -104h-306l-45 -310h-112l45 310h-305z" />
<glyph unicode="&#xb2;" horiz-adv-x="813" d="M170 662l10 88l76 66q145 123 223 197.5t127 149t49 148.5q0 57 -34.5 90t-96.5 33q-57 0 -107.5 -25.5t-99.5 -72.5l-65 61q70 63 137.5 94t144.5 31q109 0 169.5 -58.5t60.5 -152.5q0 -86 -50.5 -167t-129 -154.5t-224.5 -192.5l-53 -45h403l-28 -90h-512z" />
<glyph unicode="&#xb3;" horiz-adv-x="813" d="M158 764l69 52q41 -45 85 -63.5t99 -18.5q102 0 161 56t59 151q0 68 -41 97.5t-121 29.5h-66l25 79h39q84 0 141 51.5t57 129.5q0 55 -35.5 83.5t-99.5 28.5q-57 0 -104 -18.5t-103 -57.5l-51 64q125 96 269 96q108 0 169.5 -53t61.5 -137q0 -86 -56.5 -146.5 t-148.5 -76.5q74 -4 122 -50.5t48 -124.5q0 -127 -92 -208.5t-234 -81.5q-162 0 -253 118z" />
<glyph unicode="&#xb4;" horiz-adv-x="559" d="M180 1389l412 215l41 -109l-422 -174z" />
<glyph unicode="&#xb5;" horiz-adv-x="1191" d="M82 -416l209 1487h119l-109 -768q-4 -41 -4 -55q0 -88 46 -128t124 -40q96 0 183 62.5t163 183.5l107 745h118l-100 -713q-14 -100 -14 -188q0 -90 16 -172l-109 -14q-23 84 -22 163q0 37 2 58q-162 -227 -360 -228q-141 0 -197 105q6 -86 -18 -250l-35 -235z" />
<glyph unicode="&#xb6;" horiz-adv-x="1445" d="M266 940q0 217 144.5 340t386.5 123h463l-254 -1806l-111 -19l242 1725h-269l-237 -1706l-111 -19l146 1024q-207 8 -303.5 98.5t-96.5 239.5z" />
<glyph unicode="&#xb7;" horiz-adv-x="423" d="M131 645q0 45 29.5 76t75.5 31q41 0 65.5 -26t24.5 -64q0 -45 -31 -76t-76 -31q-39 0 -63.5 25.5t-24.5 64.5z" />
<glyph unicode="&#xb8;" horiz-adv-x="501" d="M-71 -420l43 72q57 -31 120 -31q55 0 91 24.5t36 71.5t-36.5 66.5t-131.5 19.5l52 230h80l-29 -164q86 -8 128 -46t42 -104q0 -82 -64.5 -133t-167.5 -51q-100 0 -163 45z" />
<glyph unicode="&#xb9;" horiz-adv-x="813" d="M276 1348l295 162h90l-120 -848h-103l103 735l-224 -123z" />
<glyph unicode="&#xba;" horiz-adv-x="1017" d="M72 0l14 104h725l-16 -104h-723zM197 897q0 141 52 257t149.5 182.5t228.5 66.5q153 0 237 -87t84 -247q0 -141 -52 -257t-149.5 -183.5t-228.5 -67.5q-154 0 -237.5 88t-83.5 248zM317 891q0 -115 52.5 -174.5t150.5 -59.5q150 0 227.5 121t77.5 299q0 229 -200 230 q-150 0 -229 -120t-79 -296z" />
<glyph unicode="&#xbb;" horiz-adv-x="1132" d="M90 164l340 426l-219 424l76 51l276 -436l-10 -82l-391 -432zM526 164l340 426l-219 424l76 51l276 -436l-10 -82l-391 -432z" />
<glyph unicode="&#xbc;" horiz-adv-x="1855" d="M262 1241l295 162h90l-121 -848h-102l102 735l-223 -123zM381 -104l1059 1634l78 -41l-1059 -1634zM1103 211l11 76l344 575l86 -35l-318 -530h273l45 235h92l-33 -235h113l-12 -86h-113l-31 -211h-102l28 211h-383z" />
<glyph unicode="&#xbd;" horiz-adv-x="1855" d="M262 1241l295 162h90l-121 -848h-102l102 735l-223 -123zM381 -104l1059 1634l78 -41l-1059 -1634zM1120 0l10 88l76 66q145 123 223 197.5t127 149t49 148.5q0 57 -34.5 90t-96.5 33q-57 0 -107.5 -25.5t-99.5 -72.5l-65 61q70 63 137.5 94t144.5 31q109 0 169.5 -58.5 t60.5 -152.5q0 -86 -50.5 -167t-129 -154.5t-224.5 -192.5l-53 -45h403l-28 -90h-512z" />
<glyph unicode="&#xbe;" horiz-adv-x="1855" d="M143 657l70 52q41 -45 85 -63.5t99 -18.5q102 0 160.5 56t58.5 151q0 68 -40.5 97.5t-120.5 29.5h-66l25 79h39q84 0 141 51.5t57 129.5q0 55 -35.5 83.5t-99.5 28.5q-57 0 -104 -18.5t-103 -57.5l-51 64q125 96 268 96q109 0 170.5 -53t61.5 -137q0 -86 -56.5 -146.5 t-148.5 -76.5q74 -4 122 -50.5t48 -124.5q0 -127 -92 -208.5t-234 -81.5q-162 0 -254 118zM381 -104l1059 1634l78 -41l-1059 -1634zM1103 211l11 76l344 575l86 -35l-318 -530h273l45 235h92l-33 -235h113l-12 -86h-113l-31 -211h-102l28 211h-383z" />
<glyph unicode="&#xbf;" horiz-adv-x="911" d="M-12 -160q0 92 36.5 157.5t90 106.5t139.5 93q74 43 116 74.5t70.5 76.5t28.5 107q0 39 -10 84l106 20q20 -57 21 -110q0 -80 -34 -138.5t-82 -96.5t-130 -87q-76 -45 -121 -80t-75.5 -86t-30.5 -119q0 -76 53 -120t147 -44q92 0 171 38t161 118l76 -72 q-98 -96 -198.5 -141t-217.5 -45q-151 0 -234 75t-83 189zM428 928q0 45 30.5 75.5t76.5 30.5q38 0 63 -25.5t25 -64.5q0 -45 -30 -75.5t-75 -30.5q-41 0 -65.5 25.5t-24.5 64.5z" />
<glyph unicode="&#xc0;" horiz-adv-x="1150" d="M-43 0l664 1403h153l268 -1403h-127l-67 383h-588l-176 -383h-127zM309 487h520l-145 813zM534 1706l56 106l360 -192l-41 -68z" />
<glyph unicode="&#xc1;" horiz-adv-x="1150" d="M-43 0l664 1403h153l268 -1403h-127l-67 383h-588l-176 -383h-127zM309 487h520l-145 813zM494 1622l409 193l41 -109l-421 -154z" />
<glyph unicode="&#xc2;" horiz-adv-x="1150" d="M-43 0l664 1403h153l268 -1403h-127l-67 383h-588l-176 -383h-127zM309 487h520l-145 813zM418 1624l291 207h76l233 -209l-55 -61l-225 163l-271 -163z" />
<glyph unicode="&#xc3;" horiz-adv-x="1150" d="M-43 0l664 1403h153l268 -1403h-127l-67 383h-588l-176 -383h-127zM309 487h520l-145 813zM432 1675q92 135 199 135q37 0 64.5 -13t66.5 -38q37 -23 55 -32t41 -9q33 0 62.5 21.5t64.5 68.5l74 -43q-90 -143 -199 -143q-41 0 -70.5 13.5t-68.5 39.5q-27 20 -48.5 30.5 t-43.5 10.5q-37 0 -64 -19.5t-65 -66.5z" />
<glyph unicode="&#xc4;" horiz-adv-x="1150" d="M-43 0l664 1403h153l268 -1403h-127l-67 383h-588l-176 -383h-127zM309 487h520l-145 813zM466 1688q0 39 26 64.5t65 25.5q33 0 54 -20.5t21 -53.5q0 -37 -25.5 -62.5t-64.5 -25.5q-33 0 -54.5 20.5t-21.5 51.5zM852 1688q0 39 26.5 64.5t65.5 25.5q33 0 53 -20.5 t20 -53.5q0 -37 -25.5 -62.5t-64.5 -25.5q-32 0 -53.5 20.5t-21.5 51.5z" />
<glyph unicode="&#xc5;" horiz-adv-x="1150" d="M-43 0l664 1403h153l268 -1403h-127l-67 383h-588l-176 -383h-127zM309 487h520l-145 813zM547 1724q0 92 65.5 153.5t157.5 61.5q82 0 132.5 -48t50.5 -122q0 -92 -64.5 -153.5t-159.5 -61.5q-82 0 -132 48.5t-50 121.5zM637 1726q0 -47 24.5 -72.5t69.5 -25.5 q61 0 97 41t36 98q0 47 -24.5 73t-71.5 26q-61 0 -96 -40t-35 -100z" />
<glyph unicode="&#xc6;" horiz-adv-x="1597" d="M-78 0l744 1403h864l-31 -103h-661l61 -524h526l-14 -102h-500l66 -570h467l-17 -104h-557l-41 377h-581l-195 -377h-131zM301 479h518l-90 826z" />
<glyph unicode="&#xc7;" horiz-adv-x="1120" d="M145 539q0 205 71 409.5t222.5 340.5t378.5 136q113 0 195 -32.5t153 -98.5l-71 -73q-66 53 -128.5 76.5t-144.5 23.5q-190 0 -313 -122t-179.5 -303t-56.5 -364q0 -221 98.5 -333.5t262.5 -112.5q100 0 174 29.5t154 89.5l59 -86q-168 -131 -361 -142l-18 -108 q86 -8 128 -46t42 -104q0 -82 -64.5 -133t-166.5 -51q-100 0 -164 45l43 72q57 -31 121 -31q55 0 91 24.5t36 71.5t-37 66.5t-131 19.5l39 177q-197 16 -315 160.5t-118 398.5z" />
<glyph unicode="&#xc8;" horiz-adv-x="1044" d="M150 0l198 1403h709l-29 -103h-571l-74 -522h496l-15 -102h-495l-82 -572h602l-15 -104h-724zM546 1706l56 106l360 -192l-41 -68z" />
<glyph unicode="&#xc9;" horiz-adv-x="1044" d="M150 0l198 1403h709l-29 -103h-571l-74 -522h496l-15 -102h-495l-82 -572h602l-15 -104h-724zM506 1622l409 193l41 -109l-421 -154z" />
<glyph unicode="&#xca;" horiz-adv-x="1044" d="M150 0l198 1403h709l-29 -103h-571l-74 -522h496l-15 -102h-495l-82 -572h602l-15 -104h-724zM430 1624l291 207h76l233 -209l-55 -61l-225 163l-271 -163z" />
<glyph unicode="&#xcb;" horiz-adv-x="1044" d="M150 0l198 1403h709l-29 -103h-571l-74 -522h496l-15 -102h-495l-82 -572h602l-15 -104h-724zM479 1688q0 39 26 64.5t65 25.5q33 0 54 -20.5t21 -53.5q0 -37 -25.5 -62.5t-64.5 -25.5q-33 0 -54.5 20.5t-21.5 51.5zM865 1688q0 39 26.5 64.5t65.5 25.5q33 0 53 -20.5 t20 -53.5q0 -37 -25.5 -62.5t-64.5 -25.5q-32 0 -53.5 20.5t-21.5 51.5z" />
<glyph unicode="&#xcc;" horiz-adv-x="575" d="M150 0l198 1403h123l-199 -1403h-122zM245 1706l56 106l360 -192l-41 -68z" />
<glyph unicode="&#xcd;" horiz-adv-x="575" d="M150 0l198 1403h123l-199 -1403h-122zM205 1622l409 193l41 -109l-421 -154z" />
<glyph unicode="&#xce;" horiz-adv-x="575" d="M129 1624l291 207h76l233 -209l-55 -61l-225 163l-271 -163zM150 0l198 1403h123l-199 -1403h-122z" />
<glyph unicode="&#xcf;" horiz-adv-x="575" d="M150 0l198 1403h123l-199 -1403h-122zM178 1688q0 39 26 64.5t65 25.5q33 0 54 -20.5t21 -53.5q0 -37 -25.5 -62.5t-64.5 -25.5q-33 0 -54.5 20.5t-21.5 51.5zM564 1688q0 39 26.5 64.5t65.5 25.5q33 0 53 -20.5t20 -53.5q0 -37 -25.5 -62.5t-64.5 -25.5 q-32 0 -53.5 20.5t-21.5 51.5z" />
<glyph unicode="&#xd0;" horiz-adv-x="1300" d="M78 674l12 98h178l90 631h275q256 0 412.5 -113.5t156.5 -410.5q0 -236 -74.5 -434.5t-239.5 -321.5t-423 -123h-305l96 674h-178zM299 102h182q213 0 346.5 113t191.5 289t58 377q0 248 -119.5 333.5t-316.5 85.5h-174l-74 -528h363l-13 -98h-364z" />
<glyph unicode="&#xd1;" horiz-adv-x="1372" d="M150 0l198 1403h160l483 -1288q6 207 41 440l119 848h117l-197 -1403h-158l-483 1292q-6 -193 -53 -514l-111 -778h-116zM561 1675q92 135 199 135q37 0 64.5 -13t66.5 -38q37 -23 55 -32t41 -9q33 0 62.5 21.5t64.5 68.5l74 -43q-90 -143 -199 -143q-41 0 -70.5 13.5 t-68.5 39.5q-27 20 -48.5 30.5t-43.5 10.5q-37 0 -64 -19.5t-65 -66.5z" />
<glyph unicode="&#xd2;" horiz-adv-x="1409" d="M145 537q0 199 70 403.5t223.5 344.5t388.5 140q226 0 355 -144t129 -413q0 -205 -67.5 -409.5t-220.5 -343t-390 -138.5q-225 0 -356.5 145.5t-131.5 414.5zM274 532q0 -225 95.5 -336.5t265.5 -111.5q201 0 323.5 126t174 306t51.5 358q0 223 -94.5 335t-268.5 112 q-196 0 -318 -126t-175.5 -306t-53.5 -357zM665 1706l56 106l360 -192l-41 -68z" />
<glyph unicode="&#xd3;" horiz-adv-x="1409" d="M145 537q0 199 70 403.5t223.5 344.5t388.5 140q226 0 355 -144t129 -413q0 -205 -67.5 -409.5t-220.5 -343t-390 -138.5q-225 0 -356.5 145.5t-131.5 414.5zM274 532q0 -225 95.5 -336.5t265.5 -111.5q201 0 323.5 126t174 306t51.5 358q0 223 -94.5 335t-268.5 112 q-196 0 -318 -126t-175.5 -306t-53.5 -357zM625 1622l409 193l41 -109l-421 -154z" />
<glyph unicode="&#xd4;" horiz-adv-x="1409" d="M145 537q0 199 70 403.5t223.5 344.5t388.5 140q226 0 355 -144t129 -413q0 -205 -67.5 -409.5t-220.5 -343t-390 -138.5q-225 0 -356.5 145.5t-131.5 414.5zM274 532q0 -225 95.5 -336.5t265.5 -111.5q201 0 323.5 126t174 306t51.5 358q0 223 -94.5 335t-268.5 112 q-196 0 -318 -126t-175.5 -306t-53.5 -357zM549 1624l291 207h76l233 -209l-55 -61l-225 163l-271 -163z" />
<glyph unicode="&#xd5;" horiz-adv-x="1409" d="M145 537q0 199 70 403.5t223.5 344.5t388.5 140q226 0 355 -144t129 -413q0 -205 -67.5 -409.5t-220.5 -343t-390 -138.5q-225 0 -356.5 145.5t-131.5 414.5zM274 532q0 -225 95.5 -336.5t265.5 -111.5q201 0 323.5 126t174 306t51.5 358q0 223 -94.5 335t-268.5 112 q-196 0 -318 -126t-175.5 -306t-53.5 -357zM563 1675q92 135 199 135q37 0 64.5 -13t66.5 -38q37 -23 55 -32t41 -9q33 0 62.5 21.5t64.5 68.5l74 -43q-90 -143 -199 -143q-41 0 -70.5 13.5t-68.5 39.5q-27 20 -48.5 30.5t-43.5 10.5q-37 0 -64 -19.5t-65 -66.5z" />
<glyph unicode="&#xd6;" horiz-adv-x="1409" d="M145 537q0 199 70 403.5t223.5 344.5t388.5 140q226 0 355 -144t129 -413q0 -205 -67.5 -409.5t-220.5 -343t-390 -138.5q-225 0 -356.5 145.5t-131.5 414.5zM274 532q0 -225 95.5 -336.5t265.5 -111.5q201 0 323.5 126t174 306t51.5 358q0 223 -94.5 335t-268.5 112 q-196 0 -318 -126t-175.5 -306t-53.5 -357zM598 1688q0 39 26 64.5t65 25.5q33 0 54 -20.5t21 -53.5q0 -37 -25.5 -62.5t-64.5 -25.5q-33 0 -54.5 20.5t-21.5 51.5zM984 1688q0 39 26.5 64.5t65.5 25.5q33 0 53 -20.5t20 -53.5q0 -37 -25.5 -62.5t-64.5 -25.5 q-32 0 -53.5 20.5t-21.5 51.5z" />
<glyph unicode="&#xd7;" horiz-adv-x="1005" d="M150 371l290 258l-219 262l86 74l213 -263l295 263l68 -76l-291 -260l221 -260l-86 -74l-217 260l-291 -260z" />
<glyph unicode="&#xd8;" horiz-adv-x="1409" d="M145 537q0 199 70 403.5t223.5 344.5t388.5 140q86 0 154 -20l109 254l102 -29l-119 -262q115 -63 176.5 -189t61.5 -311q0 -205 -67.5 -409.5t-220.5 -343t-390 -138.5q-82 0 -160 23l-106 -246l-103 31l115 254q-113 63 -173.5 190t-60.5 308zM274 524q0 -285 160 -389 l512 1170q-61 16 -125 16q-197 0 -318.5 -126t-175 -308t-53.5 -363zM508 102q59 -18 127 -18q201 0 323.5 126t174 309t51.5 366q0 289 -164 389z" />
<glyph unicode="&#xd9;" horiz-adv-x="1329" d="M186 350q0 43 7 92l135 961h123l-136 -959q-6 -45 -6 -88q0 -272 287 -272q172 0 270.5 97.5t122.5 271.5l133 950h123l-135 -969q-29 -209 -162 -333t-356 -124q-201 0 -303.5 100.5t-102.5 272.5zM622 1706l56 106l360 -192l-41 -68z" />
<glyph unicode="&#xda;" horiz-adv-x="1329" d="M186 350q0 43 7 92l135 961h123l-136 -959q-6 -45 -6 -88q0 -272 287 -272q172 0 270.5 97.5t122.5 271.5l133 950h123l-135 -969q-29 -209 -162 -333t-356 -124q-201 0 -303.5 100.5t-102.5 272.5zM582 1622l409 193l41 -109l-421 -154z" />
<glyph unicode="&#xdb;" horiz-adv-x="1329" d="M186 350q0 43 7 92l135 961h123l-136 -959q-6 -45 -6 -88q0 -272 287 -272q172 0 270.5 97.5t122.5 271.5l133 950h123l-135 -969q-29 -209 -162 -333t-356 -124q-201 0 -303.5 100.5t-102.5 272.5zM506 1624l291 207h76l233 -209l-55 -61l-225 163l-271 -163z" />
<glyph unicode="&#xdc;" horiz-adv-x="1329" d="M186 350q0 43 7 92l135 961h123l-136 -959q-6 -45 -6 -88q0 -272 287 -272q172 0 270.5 97.5t122.5 271.5l133 950h123l-135 -969q-29 -209 -162 -333t-356 -124q-201 0 -303.5 100.5t-102.5 272.5zM555 1688q0 39 26 64.5t65 25.5q33 0 54 -20.5t21 -53.5 q0 -37 -25.5 -62.5t-64.5 -25.5q-33 0 -54.5 20.5t-21.5 51.5zM941 1688q0 39 26.5 64.5t65.5 25.5q33 0 53 -20.5t20 -53.5q0 -37 -25.5 -62.5t-64.5 -25.5q-32 0 -53.5 20.5t-21.5 51.5z" />
<glyph unicode="&#xdd;" horiz-adv-x="1064" d="M150 1403h129l268 -741l477 741h137l-563 -854l-78 -549h-125l78 547zM449 1622l409 193l41 -109l-421 -154z" />
<glyph unicode="&#xde;" horiz-adv-x="1161" d="M150 0l198 1403h123l-35 -250h201q467 0 467 -365q0 -131 -55.5 -246.5t-186.5 -189t-346 -73.5h-205l-39 -279h-122zM326 381h198q242 0 346.5 115.5t104.5 289.5q0 143 -86 204t-258 61h-209z" />
<glyph unicode="&#xdf;" horiz-adv-x="1189" d="M-115 -326q84 39 133.5 78t81 105.5t47.5 181.5l152 1071q27 199 143.5 306.5t290.5 107.5q139 0 221 -69t82 -177q0 -68 -24.5 -117t-59 -81.5t-90.5 -73.5q-63 -47 -91 -78t-28 -76q0 -43 29 -77t90 -81q63 -51 103.5 -92t69 -105.5t28.5 -150.5q0 -84 -43 -169 t-130 -142.5t-212 -57.5q-66 0 -126 17.5t-103 40.5l45 84q86 -41 176 -41q94 0 155.5 43t90 104.5t28.5 118.5q0 96 -45 157.5t-131 131.5q-72 59 -105.5 102t-33.5 105q0 72 35.5 115.5t109.5 97.5q74 53 111 99t37 122q0 72 -51.5 111.5t-137.5 39.5q-125 0 -210 -82.5 t-107 -244.5l-150 -1063q-20 -139 -61 -221t-105.5 -131.5t-179.5 -100.5z" />
<glyph unicode="&#xe0;" d="M119 393q0 160 57 322t181 270.5t313 108.5q100 0 180 -22.5t164 -65.5l-113 -773q-4 -23 -4 -61q0 -43 15.5 -68.5t52.5 -42.5l-35 -84q-72 16 -109 60.5t-35 134.5q-61 -90 -146 -142.5t-183 -52.5q-160 0 -249 112t-89 304zM246 393q0 -156 59.5 -235.5t169.5 -79.5 q96 0 173 57.5t147 167.5l92 645q-98 49 -213 49q-146 0 -243 -94t-141 -233.5t-44 -276.5zM557 1495l61 109l354 -215l-41 -68z" />
<glyph unicode="&#xe1;" d="M119 393q0 160 57 322t181 270.5t313 108.5q100 0 180 -22.5t164 -65.5l-113 -773q-4 -23 -4 -61q0 -43 15.5 -68.5t52.5 -42.5l-35 -84q-72 16 -109 60.5t-35 134.5q-61 -90 -146 -142.5t-183 -52.5q-160 0 -249 112t-89 304zM246 393q0 -156 59.5 -235.5t169.5 -79.5 q96 0 173 57.5t147 167.5l92 645q-98 49 -213 49q-146 0 -243 -94t-141 -233.5t-44 -276.5zM520 1389l412 215l41 -109l-422 -174z" />
<glyph unicode="&#xe2;" d="M119 393q0 160 57 322t181 270.5t313 108.5q100 0 180 -22.5t164 -65.5l-113 -773q-4 -23 -4 -61q0 -43 15.5 -68.5t52.5 -42.5l-35 -84q-72 16 -109 60.5t-35 134.5q-61 -90 -146 -142.5t-183 -52.5q-160 0 -249 112t-89 304zM246 393q0 -156 59.5 -235.5t169.5 -79.5 q96 0 173 57.5t147 167.5l92 645q-98 49 -213 49q-146 0 -243 -94t-141 -233.5t-44 -276.5zM428 1380l295 217h74l233 -217l-57 -63l-225 174l-267 -174z" />
<glyph unicode="&#xe3;" d="M119 393q0 160 57 322t181 270.5t313 108.5q100 0 180 -22.5t164 -65.5l-113 -773q-4 -23 -4 -61q0 -43 15.5 -68.5t52.5 -42.5l-35 -84q-72 16 -109 60.5t-35 134.5q-61 -90 -146 -142.5t-183 -52.5q-160 0 -249 112t-89 304zM246 393q0 -156 59.5 -235.5t169.5 -79.5 q96 0 173 57.5t147 167.5l92 645q-98 49 -213 49q-146 0 -243 -94t-141 -233.5t-44 -276.5zM434 1417q92 135 199 135q37 0 64.5 -13t66.5 -38q37 -23 55.5 -32t40.5 -9q33 0 62.5 21.5t64.5 68.5l74 -43q-90 -143 -199 -143q-41 0 -70.5 13.5t-68.5 39.5q-27 20 -48.5 30.5 t-43.5 10.5q-37 0 -63.5 -19.5t-65.5 -66.5z" />
<glyph unicode="&#xe4;" d="M119 393q0 160 57 322t181 270.5t313 108.5q100 0 180 -22.5t164 -65.5l-113 -773q-4 -23 -4 -61q0 -43 15.5 -68.5t52.5 -42.5l-35 -84q-72 16 -109 60.5t-35 134.5q-61 -90 -146 -142.5t-183 -52.5q-160 0 -249 112t-89 304zM246 393q0 -156 59.5 -235.5t169.5 -79.5 q96 0 173 57.5t147 167.5l92 645q-98 49 -213 49q-146 0 -243 -94t-141 -233.5t-44 -276.5zM467 1430q0 39 25.5 64.5t64.5 25.5q33 0 54.5 -20.5t21.5 -53.5q0 -37 -26 -62.5t-65 -25.5q-32 0 -53.5 20.5t-21.5 51.5zM852 1430q0 39 26.5 64.5t65.5 25.5q33 0 53.5 -20.5 t20.5 -53.5q0 -37 -26 -62.5t-65 -25.5q-32 0 -53.5 20.5t-21.5 51.5z" />
<glyph unicode="&#xe5;" d="M119 393q0 160 57 322t181 270.5t313 108.5q100 0 180 -22.5t164 -65.5l-113 -773q-4 -23 -4 -61q0 -43 15.5 -68.5t52.5 -42.5l-35 -84q-72 16 -109 60.5t-35 134.5q-61 -90 -146 -142.5t-183 -52.5q-160 0 -249 112t-89 304zM246 393q0 -156 59.5 -235.5t169.5 -79.5 q96 0 173 57.5t147 167.5l92 645q-98 49 -213 49q-146 0 -243 -94t-141 -233.5t-44 -276.5zM549 1466q0 92 65.5 153.5t157.5 61.5q82 0 132.5 -48t50.5 -122q0 -92 -64.5 -153.5t-159.5 -61.5q-82 0 -132 48.5t-50 121.5zM639 1468q0 -47 24.5 -72.5t70.5 -25.5q61 0 97 41 t36 98q0 47 -24.5 73t-72.5 26q-61 0 -96 -40t-35 -100z" />
<glyph unicode="&#xe6;" horiz-adv-x="1675" d="M70 256q0 158 118.5 262.5t374.5 104.5h209q18 88 49 159q-4 96 -71.5 153.5t-180.5 57.5q-70 0 -136 -14t-157 -45l-26 92q176 68 332 68q135 0 212.5 -55.5t104.5 -151.5q49 82 154.5 144.5t234.5 62.5q150 0 236 -73t86 -187q0 -195 -194.5 -289t-551.5 -121 q0 -342 279 -342q84 0 153.5 25.5t147.5 80.5l55 -84q-88 -63 -177 -95t-187 -32q-127 0 -217.5 55.5t-133.5 157.5q-92 -115 -192 -164t-215 -49q-141 0 -224 76t-83 203zM199 256q0 -90 50 -136t142 -46q102 0 191.5 52t173.5 165q-8 39 -8 112q0 84 8 132h-183 q-195 0 -284.5 -74t-89.5 -205zM872 518q309 25 461 97.5t152 213.5q0 70 -50.5 118t-148.5 48q-182 0 -285.5 -141t-128.5 -336z" />
<glyph unicode="&#xe7;" horiz-adv-x="956" d="M123 410q0 156 55 313.5t175 264t302 106.5q178 0 289 -111l-67 -76q-47 43 -100.5 64.5t-123.5 21.5q-143 0 -234 -92t-132 -228t-41 -270q0 -162 70.5 -241.5t197.5 -79.5q74 0 136.5 22.5t127.5 67.5l51 -84q-135 -104 -301 -111l-18 -108q86 -8 128 -46t42 -104 q0 -82 -64.5 -133t-166.5 -51q-100 0 -164 45l43 72q57 -31 121 -31q55 0 90.5 24.5t35.5 71.5t-36.5 66.5t-130.5 19.5l38 179q-152 18 -237.5 129.5t-85.5 298.5z" />
<glyph unicode="&#xe8;" horiz-adv-x="1050" d="M121 408q0 162 58.5 319.5t182 262t306.5 104.5q150 0 233.5 -73t83.5 -185q0 -197 -192.5 -292t-546.5 -122v-12q0 -168 72.5 -248t199.5 -80q84 0 154.5 25.5t148.5 80.5l53 -84q-86 -63 -175 -95t-189 -32q-184 0 -286.5 113t-102.5 318zM252 516q307 25 458.5 98.5 t151.5 216.5q0 70 -49 117t-145 47q-185 0 -288.5 -141t-127.5 -338zM504 1495l61 109l354 -215l-41 -68z" />
<glyph unicode="&#xe9;" horiz-adv-x="1050" d="M121 408q0 162 58.5 319.5t182 262t306.5 104.5q150 0 233.5 -73t83.5 -185q0 -197 -192.5 -292t-546.5 -122v-12q0 -168 72.5 -248t199.5 -80q84 0 154.5 25.5t148.5 80.5l53 -84q-86 -63 -175 -95t-189 -32q-184 0 -286.5 113t-102.5 318zM252 516q307 25 458.5 98.5 t151.5 216.5q0 70 -49 117t-145 47q-185 0 -288.5 -141t-127.5 -338zM467 1389l412 215l41 -109l-422 -174z" />
<glyph unicode="&#xea;" horiz-adv-x="1050" d="M121 408q0 162 58.5 319.5t182 262t306.5 104.5q150 0 233.5 -73t83.5 -185q0 -197 -192.5 -292t-546.5 -122v-12q0 -168 72.5 -248t199.5 -80q84 0 154.5 25.5t148.5 80.5l53 -84q-86 -63 -175 -95t-189 -32q-184 0 -286.5 113t-102.5 318zM252 516q307 25 458.5 98.5 t151.5 216.5q0 70 -49 117t-145 47q-185 0 -288.5 -141t-127.5 -338zM375 1380l295 217h74l233 -217l-57 -63l-225 174l-267 -174z" />
<glyph unicode="&#xeb;" horiz-adv-x="1050" d="M121 408q0 162 58.5 319.5t182 262t306.5 104.5q150 0 233.5 -73t83.5 -185q0 -197 -192.5 -292t-546.5 -122v-12q0 -168 72.5 -248t199.5 -80q84 0 154.5 25.5t148.5 80.5l53 -84q-86 -63 -175 -95t-189 -32q-184 0 -286.5 113t-102.5 318zM252 516q307 25 458.5 98.5 t151.5 216.5q0 70 -49 117t-145 47q-185 0 -288.5 -141t-127.5 -338zM414 1430q0 39 25.5 64.5t64.5 25.5q33 0 54.5 -20.5t21.5 -53.5q0 -37 -26 -62.5t-65 -25.5q-32 0 -53.5 20.5t-21.5 51.5zM799 1430q0 39 26.5 64.5t65.5 25.5q33 0 53.5 -20.5t20.5 -53.5 q0 -37 -26 -62.5t-65 -25.5q-32 0 -53.5 20.5t-21.5 51.5z" />
<glyph unicode="&#xec;" horiz-adv-x="550" d="M139 0l152 1071h119l-152 -1071h-119zM215 1495l61 109l354 -215l-41 -68z" />
<glyph unicode="&#xed;" horiz-adv-x="550" d="M139 0l152 1071h119l-152 -1071h-119zM178 1389l412 215l41 -109l-422 -174z" />
<glyph unicode="&#xee;" horiz-adv-x="550" d="M86 1380l295 217h74l233 -217l-57 -63l-225 174l-267 -174zM139 0l152 1071h119l-152 -1071h-119z" />
<glyph unicode="&#xef;" horiz-adv-x="550" d="M125 1430q0 39 25.5 64.5t64.5 25.5q33 0 54.5 -20.5t21.5 -53.5q0 -37 -26 -62.5t-65 -25.5q-32 0 -53.5 20.5t-21.5 51.5zM139 0l152 1071h119l-152 -1071h-119zM510 1430q0 39 26.5 64.5t65.5 25.5q33 0 53.5 -20.5t20.5 -53.5q0 -37 -26 -62.5t-65 -25.5 q-32 0 -53.5 20.5t-21.5 51.5z" />
<glyph unicode="&#xf0;" horiz-adv-x="1155" d="M117 375q0 139 49 274t154.5 223.5t263.5 88.5q199 0 313 -160q0 154 -47 272.5t-150 212.5l-182 -158l-82 41l189 172q-123 66 -236 89l33 94q156 -31 280 -115l164 152l66 -64l-158 -143q121 -101 181.5 -239t60.5 -327q0 -219 -57.5 -403t-177 -296t-296.5 -112 q-172 0 -270 105.5t-98 292.5zM238 373q0 -143 64.5 -219t184.5 -76q181 0 283 173t121 429q-106 180 -295 180q-127 0 -208 -72.5t-115.5 -183t-34.5 -231.5z" />
<glyph unicode="&#xf1;" horiz-adv-x="1189" d="M139 0l152 1071h102l-28 -266q84 139 186 214t219 75q121 0 186.5 -68t65.5 -192q0 -37 -6 -78l-107 -756h-118l106 752q4 25 4 67q0 174 -156 174q-207 0 -397 -352l-90 -641h-119zM414 1417q92 135 199 135q37 0 64.5 -13t66.5 -38q37 -23 55.5 -32t40.5 -9 q33 0 62.5 21.5t64.5 68.5l74 -43q-90 -143 -199 -143q-41 0 -70.5 13.5t-68.5 39.5q-27 20 -48.5 30.5t-43.5 10.5q-37 0 -63.5 -19.5t-65.5 -66.5z" />
<glyph unicode="&#xf2;" horiz-adv-x="1165" d="M123 412q0 154 53 310.5t173 264t308 107.5q186 0 286.5 -113t100.5 -317q0 -152 -52 -309.5t-173 -267.5t-309 -110q-184 0 -285.5 115t-101.5 320zM246 401q0 -160 69.5 -241.5t198.5 -81.5q145 0 236.5 94t130.5 230.5t39 269.5q0 160 -68 241.5t-197 81.5 q-147 0 -239 -95t-131 -232.5t-39 -266.5zM525 1495l61 109l354 -215l-41 -68z" />
<glyph unicode="&#xf3;" horiz-adv-x="1165" d="M123 412q0 154 53 310.5t173 264t308 107.5q186 0 286.5 -113t100.5 -317q0 -152 -52 -309.5t-173 -267.5t-309 -110q-184 0 -285.5 115t-101.5 320zM246 401q0 -160 69.5 -241.5t198.5 -81.5q145 0 236.5 94t130.5 230.5t39 269.5q0 160 -68 241.5t-197 81.5 q-147 0 -239 -95t-131 -232.5t-39 -266.5zM487 1389l412 215l41 -109l-422 -174z" />
<glyph unicode="&#xf4;" horiz-adv-x="1165" d="M123 412q0 154 53 310.5t173 264t308 107.5q186 0 286.5 -113t100.5 -317q0 -152 -52 -309.5t-173 -267.5t-309 -110q-184 0 -285.5 115t-101.5 320zM246 401q0 -160 69.5 -241.5t198.5 -81.5q145 0 236.5 94t130.5 230.5t39 269.5q0 160 -68 241.5t-197 81.5 q-147 0 -239 -95t-131 -232.5t-39 -266.5zM395 1380l295 217h74l233 -217l-57 -63l-225 174l-267 -174z" />
<glyph unicode="&#xf5;" horiz-adv-x="1165" d="M123 412q0 154 53 310.5t173 264t308 107.5q186 0 286.5 -113t100.5 -317q0 -152 -52 -309.5t-173 -267.5t-309 -110q-184 0 -285.5 115t-101.5 320zM246 401q0 -160 69.5 -241.5t198.5 -81.5q145 0 236.5 94t130.5 230.5t39 269.5q0 160 -68 241.5t-197 81.5 q-147 0 -239 -95t-131 -232.5t-39 -266.5zM401 1417q92 135 199 135q37 0 64.5 -13t66.5 -38q37 -23 55.5 -32t40.5 -9q33 0 62.5 21.5t64.5 68.5l74 -43q-90 -143 -199 -143q-41 0 -70.5 13.5t-68.5 39.5q-27 20 -48.5 30.5t-43.5 10.5q-37 0 -63.5 -19.5t-65.5 -66.5z" />
<glyph unicode="&#xf6;" horiz-adv-x="1165" d="M123 412q0 154 53 310.5t173 264t308 107.5q186 0 286.5 -113t100.5 -317q0 -152 -52 -309.5t-173 -267.5t-309 -110q-184 0 -285.5 115t-101.5 320zM246 401q0 -160 69.5 -241.5t198.5 -81.5q145 0 236.5 94t130.5 230.5t39 269.5q0 160 -68 241.5t-197 81.5 q-147 0 -239 -95t-131 -232.5t-39 -266.5zM435 1430q0 39 25.5 64.5t64.5 25.5q33 0 54.5 -20.5t21.5 -53.5q0 -37 -26 -62.5t-65 -25.5q-32 0 -53.5 20.5t-21.5 51.5zM820 1430q0 39 26.5 64.5t65.5 25.5q33 0 53.5 -20.5t20.5 -53.5q0 -37 -26 -62.5t-65 -25.5 q-32 0 -53.5 20.5t-21.5 51.5z" />
<glyph unicode="&#xf7;" horiz-adv-x="1005" d="M154 627l14 104h725l-16 -104h-723zM366 224q0 45 30 75.5t75 30.5q41 0 65.5 -25.5t24.5 -64.5q0 -45 -31 -76t-76 -31q-39 0 -63.5 26t-24.5 65zM493 1121q0 45 30 75.5t75 30.5q41 0 65.5 -25.5t24.5 -64.5q0 -45 -31 -76t-76 -31q-39 0 -63.5 26t-24.5 65z" />
<glyph unicode="&#xf8;" horiz-adv-x="1165" d="M123 412q0 154 53 310.5t173 264t308 107.5q68 0 129 -17l117 250l98 -29l-120 -264q80 -51 121.5 -145t41.5 -225q0 -152 -52 -309.5t-173 -267.5t-309 -110q-68 0 -129 17l-117 -250l-96 29l123 262q-82 53 -125 149.5t-43 227.5zM246 401q0 -199 102 -276l404 856 q-41 14 -97 14q-147 0 -239 -95t-131 -232.5t-39 -266.5zM418 90q43 -12 96 -12q145 0 236.5 94t130.5 230.5t39 269.5q0 199 -99 274z" />
<glyph unicode="&#xf9;" horiz-adv-x="1181" d="M168 236q0 35 6 73l107 762h118l-106 -758q-4 -25 -4 -65q0 -172 155 -172q113 0 210.5 93t174.5 247l93 655h118l-151 -1071h-98l28 272q-74 -137 -173 -216t-224 -79q-121 0 -187.5 68t-66.5 191zM527 1495l61 109l354 -215l-41 -68z" />
<glyph unicode="&#xfa;" horiz-adv-x="1181" d="M168 236q0 35 6 73l107 762h118l-106 -758q-4 -25 -4 -65q0 -172 155 -172q113 0 210.5 93t174.5 247l93 655h118l-151 -1071h-98l28 272q-74 -137 -173 -216t-224 -79q-121 0 -187.5 68t-66.5 191zM489 1389l412 215l41 -109l-422 -174z" />
<glyph unicode="&#xfb;" horiz-adv-x="1181" d="M168 236q0 35 6 73l107 762h118l-106 -758q-4 -25 -4 -65q0 -172 155 -172q113 0 210.5 93t174.5 247l93 655h118l-151 -1071h-98l28 272q-74 -137 -173 -216t-224 -79q-121 0 -187.5 68t-66.5 191zM397 1380l295 217h74l233 -217l-57 -63l-225 174l-267 -174z" />
<glyph unicode="&#xfc;" horiz-adv-x="1181" d="M168 236q0 35 6 73l107 762h118l-106 -758q-4 -25 -4 -65q0 -172 155 -172q113 0 210.5 93t174.5 247l93 655h118l-151 -1071h-98l28 272q-74 -137 -173 -216t-224 -79q-121 0 -187.5 68t-66.5 191zM437 1430q0 39 25.5 64.5t64.5 25.5q33 0 54.5 -20.5t21.5 -53.5 q0 -37 -26 -62.5t-65 -25.5q-32 0 -53.5 20.5t-21.5 51.5zM822 1430q0 39 26.5 64.5t65.5 25.5q33 0 53.5 -20.5t20.5 -53.5q0 -37 -26 -62.5t-65 -25.5q-32 0 -53.5 20.5t-21.5 51.5z" />
<glyph unicode="&#xfd;" horiz-adv-x="952" d="M-16 -324q109 25 176 64t111 97.5t100 162.5h-45l-220 1071h127l183 -981l454 981h127l-510 -1079q-88 -184 -196.5 -279.5t-300.5 -130.5zM371 1389l412 215l41 -109l-422 -174z" />
<glyph unicode="&#xfe;" horiz-adv-x="1169" d="M80 -424l272 1931l121 17l-84 -588q158 158 340 158q156 0 239 -104.5t83 -301.5q0 -166 -54.5 -327.5t-178.5 -272.5t-318 -111q-125 0 -240 48l-59 -433zM279 121q61 -23 111 -33t116 -10q149 0 244.5 97t137.5 239.5t42 281.5q0 297 -230 297q-94 0 -169.5 -46 t-157.5 -132z" />
<glyph unicode="&#xff;" horiz-adv-x="952" d="M-16 -324q109 25 176 64t111 97.5t100 162.5h-45l-220 1071h127l183 -981l454 981h127l-510 -1079q-88 -184 -196.5 -279.5t-300.5 -130.5zM318 1430q0 39 25.5 64.5t64.5 25.5q33 0 54.5 -20.5t21.5 -53.5q0 -37 -26 -62.5t-65 -25.5q-32 0 -53.5 20.5t-21.5 51.5z M703 1430q0 39 26.5 64.5t65.5 25.5q33 0 53.5 -20.5t20.5 -53.5q0 -37 -26 -62.5t-65 -25.5q-32 0 -53.5 20.5t-21.5 51.5z" />
<glyph unicode="&#x152;" horiz-adv-x="1773" d="M145 535q0 195 70 401.5t216.5 347.5t367.5 141q76 0 143 -22h844l-29 -103h-653q80 -66 122 -176t42 -258q0 -27 -4 -88h344l-15 -102h-340q-27 -174 -102.5 -325.5t-204.5 -246.5h674l-16 -104h-850q-66 -23 -146 -23q-211 0 -337 145.5t-126 412.5zM272 522 q0 -217 92.5 -327.5t247.5 -110.5q188 0 308 129t171.5 314.5t51.5 363.5q0 213 -91 321.5t-251 108.5q-184 0 -303 -128t-172.5 -312.5t-53.5 -358.5z" />
<glyph unicode="&#x153;" horiz-adv-x="1830" d="M123 412q0 154 53 310.5t173 264t308 107.5q139 0 228.5 -71t126.5 -200q66 125 172 198t256 73q152 0 238.5 -73t86.5 -185q0 -197 -192.5 -292t-546.5 -122v-12q0 -168 72.5 -248t199.5 -80q84 0 155 25.5t149 80.5l53 -84q-86 -63 -175 -95t-190 -32q-139 0 -229 70 t-131 199q-63 -123 -167 -196t-253 -73q-184 0 -285.5 115t-101.5 320zM246 401q0 -160 69.5 -241.5t198.5 -81.5q145 0 236.5 94t130.5 230.5t39 269.5q0 160 -68 241.5t-197 81.5q-147 0 -239 -95t-131 -232.5t-39 -266.5zM1032 516q307 25 457.5 98.5t150.5 216.5 q0 70 -51 117t-151 47q-183 0 -283 -139t-123 -340z" />
<glyph unicode="&#x178;" horiz-adv-x="1064" d="M150 1403h129l268 -741l477 741h137l-563 -854l-78 -549h-125l78 547zM421 1688q0 39 26 64.5t65 25.5q33 0 54 -20.5t21 -53.5q0 -37 -25.5 -62.5t-64.5 -25.5q-33 0 -54.5 20.5t-21.5 51.5zM807 1688q0 39 26.5 64.5t65.5 25.5q33 0 53 -20.5t20 -53.5 q0 -37 -25.5 -62.5t-64.5 -25.5q-32 0 -53.5 20.5t-21.5 51.5z" />
<glyph unicode="&#x2c6;" horiz-adv-x="724" d="M178 1380l295 217h74l233 -217l-57 -63l-225 174l-267 -174z" />
<glyph unicode="&#x2dc;" horiz-adv-x="737" d="M186 1417q92 135 199 135q37 0 64.5 -13t66.5 -38q37 -23 55.5 -32t40.5 -9q33 0 62.5 21.5t64.5 68.5l74 -43q-90 -143 -199 -143q-41 0 -70.5 13.5t-68.5 39.5q-27 20 -48.5 30.5t-43.5 10.5q-37 0 -63.5 -19.5t-65.5 -66.5z" />
<glyph unicode="&#x2000;" horiz-adv-x="969" />
<glyph unicode="&#x2001;" horiz-adv-x="1939" />
<glyph unicode="&#x2002;" horiz-adv-x="969" />
<glyph unicode="&#x2003;" horiz-adv-x="1939" />
<glyph unicode="&#x2004;" horiz-adv-x="646" />
<glyph unicode="&#x2005;" horiz-adv-x="484" />
<glyph unicode="&#x2006;" horiz-adv-x="323" />
<glyph unicode="&#x2007;" horiz-adv-x="323" />
<glyph unicode="&#x2008;" horiz-adv-x="242" />
<glyph unicode="&#x2009;" horiz-adv-x="387" />
<glyph unicode="&#x200a;" horiz-adv-x="107" />
<glyph unicode="&#x2010;" horiz-adv-x="815" d="M143 590l17 102h538l-14 -102h-541z" />
<glyph unicode="&#x2011;" horiz-adv-x="815" d="M143 590l17 102h538l-14 -102h-541z" />
<glyph unicode="&#x2012;" horiz-adv-x="815" d="M143 590l17 102h538l-14 -102h-541z" />
<glyph unicode="&#x2013;" horiz-adv-x="1058" d="M86 590l14 102h901l-16 -102h-899z" />
<glyph unicode="&#x2014;" horiz-adv-x="1593" d="M88 590l12 102h1436l-14 -102h-1434z" />
<glyph unicode="&#x2018;" horiz-adv-x="442" d="M211 1159q0 27 6 47.5t31 61.5l153 250h82l-125 -277q37 -20 37 -70q0 -39 -27.5 -66.5t-70.5 -27.5q-39 0 -62.5 23.5t-23.5 58.5z" />
<glyph unicode="&#x2019;" horiz-adv-x="442" d="M175 1079l124 277q-37 23 -36 69q0 39 27.5 67t70.5 28q39 0 62.5 -23.5t23.5 -58.5q0 -27 -6 -47.5t-31 -61.5l-154 -250h-81z" />
<glyph unicode="&#x201a;" horiz-adv-x="442" d="M-18 -285l124 277q-37 23 -36 69q0 39 27.5 67t70.5 28q39 0 62.5 -23.5t23.5 -58.5q0 -27 -6 -47.5t-31 -61.5l-154 -250h-81z" />
<glyph unicode="&#x201c;" horiz-adv-x="755" d="M211 1159q0 27 6 47.5t31 61.5l153 250h82l-125 -277q37 -20 37 -70q0 -39 -27.5 -66.5t-70.5 -27.5q-39 0 -62.5 23.5t-23.5 58.5zM524 1159q0 27 6.5 47.5t30.5 61.5l154 250h82l-125 -277q37 -20 37 -70q0 -39 -28 -66.5t-71 -27.5q-39 0 -62.5 23.5t-23.5 58.5z" />
<glyph unicode="&#x201d;" horiz-adv-x="755" d="M175 1079l124 277q-37 23 -36 69q0 39 27.5 67t70.5 28q39 0 62.5 -23.5t23.5 -58.5q0 -27 -6 -47.5t-31 -61.5l-154 -250h-81zM488 1079l124 277q-37 23 -36 69q0 39 27.5 67t70.5 28q39 0 62.5 -23.5t23.5 -58.5q0 -27 -6 -47.5t-31 -61.5l-154 -250h-81z" />
<glyph unicode="&#x201e;" horiz-adv-x="755" d="M-18 -285l124 277q-37 23 -36 69q0 39 27.5 67t70.5 28q39 0 62.5 -23.5t23.5 -58.5q0 -27 -6 -47.5t-31 -61.5l-154 -250h-81zM295 -285l124 277q-37 23 -36 69q0 39 27.5 67t70.5 28q39 0 62.5 -23.5t23.5 -58.5q0 -27 -6 -47.5t-31 -61.5l-154 -250h-81z" />
<glyph unicode="&#x2022;" horiz-adv-x="581" d="M164 690q0 72 48 121t120 49q61 0 99 -38t38 -95q0 -72 -49 -122t-119 -50q-61 0 -99 38t-38 97z" />
<glyph unicode="&#x2026;" horiz-adv-x="1292" d="M51 68q0 45 30 75.5t75 30.5q41 0 65.5 -25.5t24.5 -64.5q0 -45 -31 -76t-76 -31q-39 0 -63.5 26t-24.5 65zM485 68q0 45 30 75.5t75 30.5q41 0 65.5 -25.5t24.5 -64.5q0 -45 -31 -76t-76 -31q-39 0 -63.5 26t-24.5 65zM917 68q0 45 30 75.5t75 30.5q41 0 65.5 -25.5 t24.5 -64.5q0 -45 -31 -76t-76 -31q-39 0 -63.5 26t-24.5 65z" />
<glyph unicode="&#x202f;" horiz-adv-x="387" />
<glyph unicode="&#x2039;" horiz-adv-x="694" d="M147 547l9 82l391 436l71 -51l-339 -424l221 -426l-78 -49z" />
<glyph unicode="&#x203a;" horiz-adv-x="696" d="M90 164l340 426l-219 424l76 51l276 -436l-10 -82l-391 -432z" />
<glyph unicode="&#x205f;" horiz-adv-x="484" />
<glyph unicode="&#x20ac;" horiz-adv-x="1165" d="M68 496l32 88h146l26 211h-163l34 90h148q78 242 228.5 370.5t340.5 128.5q96 0 177 -28.5t157 -85.5l-57 -82q-72 51 -133.5 72.5t-143.5 21.5q-145 0 -259 -98.5t-179 -298.5h553l-35 -90h-541l-28 -211h499l-32 -88h-476q-4 -213 78 -313.5t244 -100.5 q84 0 151.5 22.5t147.5 65.5l-8 -113q-154 -80 -309 -80q-207 0 -318.5 132.5t-109.5 386.5h-170z" />
<glyph unicode="&#x2122;" horiz-adv-x="1765" d="M195 1315l10 88h639l-29 -88h-254l-98 -701h-103l99 701h-264zM805 614l149 789h138l137 -598l305 598h137l-72 -789h-100l37 406q14 147 35 278l-307 -596h-93l-149 601q-10 -94 -43 -289l-76 -400h-98z" />
<glyph unicode="&#x25fc;" horiz-adv-x="1075" d="M0 0v1075h1075v-1075h-1075z" />
<glyph unicode="&#xfb03;" horiz-adv-x="1761" d="M-106 -326q84 39 133 78t81.5 105.5t49.5 181.5l131 936h-187l15 96h184l23 158q18 129 112 201.5t250 72.5q168 0 324 -80q96 100 276 101q150 0 281 -88l-49 -82q-51 33 -111.5 51t-120.5 18q-109 0 -167 -44t-70 -138l-25 -170h598l-152 -1071h-120l137 975h-475 l-133 -940q-16 -121 -48 -196t-83.5 -124t-135.5 -96l-41 90q84 51 128 121t63 207l131 938h-487l-130 -940q-20 -139 -61 -221t-105.5 -131.5t-179.5 -100.5zM420 1071h487l25 178q6 53 26 94q-145 59 -270 60q-113 0 -173 -44t-75 -138z" />
<glyph unicode="&#xfb04;" horiz-adv-x="1798" d="M-106 -326q84 39 133 78t81.5 105.5t49.5 181.5l131 936h-187l15 96h184l23 158q18 129 112 201.5t250 72.5q168 0 324 -80q96 100 272 101q147 0 285 -54l110 13l-182 -1303q-2 -10 -2 -28q0 -37 16.5 -54.5t53.5 -17.5q32 0 77 16l27 -90q-63 -29 -123 -29 q-80 0 -124 42t-44 124q0 14 4 56l166 1177q-74 25 -133 36t-133 11q-207 0 -231 -182l-25 -170h281l-27 -96h-266l-133 -940q-16 -121 -48 -196t-83.5 -124t-135.5 -96l-41 90q84 51 128 121t63 207l131 938h-487l-130 -940q-20 -139 -61 -221t-105.5 -131.5t-179.5 -100.5 zM420 1071h487l25 178q6 53 26 94q-145 59 -270 60q-113 0 -173 -44t-75 -138z" />
</font>
</defs>
</svg>
